<ttFont>
          <CharString index="0">
            -104 callsubr
            -25 48 hvcurveto
            return
          </CharString>
          <CharString index="1">
            vvcurveto
            -52 33 -21 25 54 13 -105 callgsubr
          </CharString>
          <CharString index="2">
            -107 callgsubr
            endchar
          </CharString>
          <CharString index="3">
            -99 callsubr
            -31 21 return
          </CharString>
          <CharString index="4">
            -98 callgsubr
            -20 return
          </CharString>
          <CharString index="5">
            vvcurveto
            78 -48 70 -81 -152 -98 -128 -146 -94 callgsubr
            return
          </CharString>
          <CharString index="6">
            -92 callsubr
            -17 -13 -27 -35 hvcurveto
            210 callsubr
            return
          </CharString>
          <CharString index="7">
            554 -100 callgsubr
            return
          </CharString>
          <CharString index="8">
            -48 -21 -21 -31 return
          </CharString>
          <CharString index="9">
            -3 -9 -2 -9 -10 vvcurveto
            -36 64 -46 31 27 11 30 20 11 vhcurveto
            21 12 22 13 23 hhcurveto
            25 14 -20 -22 return
          </CharString>
          <CharString index="10">
            -38 5 -26 -40 hhcurveto
            -24 -27 36 51 89 68 77 73 25 6 -28 -30 hvcurveto
            -24 -7 -28 -23 vvcurveto
            -24 7 -18 31 return
          </CharString>
          <CharString index="11">
            -84 -12 -92 callgsubr
            return
          </CharString>
          <CharString index="12">
            -99 callgsubr
            37 20 rlinecurve
            return
          </CharString>
          <CharString index="13">
            4 -27 3 -26 2 -25 rrcurveto
            -22 2 14 -22 25 -64 callgsubr
            115 -105 callsubr
          </CharString>
          <CharString index="14">
            -13 -51 -9 -52 -8 -45 rrcurveto
            -36 -15 -28 -26 -27 vvcurveto
            -30 43 -26 22 37 20 20 34 12 vhcurveto
            26 -3 18 -15 -24 vvcurveto
            -60 -79 -21 -96 vhcurveto
            -115 -67 53 -39 hhcurveto
            -21 -12 -9 -19 -55 130 -60 115 152 125 58 111 65 -42 53 -76 9 hvcurveto
            4 20 3 21 4 22 -43 callgsubr
            -57 -40 -43 -61 -29 vhcurveto
            -3 -16 -20 -2 -24 -83 callgsubr
          </CharString>
          <CharString index="15">
            -93 callgsubr
            hvcurveto
            -82 -1 48 -48 hhcurveto
            return
          </CharString>
          <CharString index="16">
            -75 callgsubr
            -45 callgsubr
            115 -105 callsubr
          </CharString>
          <CharString index="17">
            hlineto
            -12 -96 callsubr
            return
          </CharString>
          <CharString index="18">
            108 -106 callgsubr
            return
          </CharString>
          <CharString index="19">
            hlineto
            -1 -15 0 -15 -16 vvcurveto
            -33 -1 -35 -3 -35 vhcurveto
            2 -18 -17 1 -17 hhcurveto
            -95 -76 -28 -86 -84 82 -114 84 141 40 241 162 20 -1 18 -2 17 hvcurveto
            return
          </CharString>
          <CharString index="20">
            -10 -62 -8 -51 -14 112 callsubr
            149 32 vhcurveto
            45 69 69 38 25 hhcurveto
            5 2 -12 -19 -51 -27 -100 -40 -26 hvcurveto
            -22 -14 -27 11 -26 vvcurveto
            -33 53 -46 34 101 47 209 109 72 -40 47 -73 -33 -54 -21 -31 -57 vhcurveto
            9 45 8 41 2 26 rrcurveto
            323 -105 callsubr
          </CharString>
          <CharString index="21">
            -74 callsubr
            13 -103 callgsubr
            return
          </CharString>
          <CharString index="22">
            -29 15 35 -32 26 16 26 38 36 hhcurveto
            21 13 -16 -27 return
          </CharString>
          <CharString index="23">
            -39 28 -82 -195 hhcurveto
            -83 -56 13 31 45 147 141 49 182 callsubr
            8 1 9 10 vvcurveto
            22 3 20 4 19 vhcurveto
            8 38 15 32 11 25 rrcurveto
            -4 callsubr
          </CharString>
          <CharString index="24">
            -102 callgsubr
            106 5 return
          </CharString>
          <CharString index="25">
            rmoveto
            -47 -7 -58 -9 -45 -7 -9 -1 rcurveline
            4 48 2 46 38 4 0 3 4 vvcurveto
            171 hlineto
            -340 -368 rmoveto
            -16 -28 36 23 14 31 11 46 9 hvcurveto
            -54 -8 -10 -39 -15 hhcurveto
            return
          </CharString>
          <CharString index="26">
            rmoveto
            -16 -28 36 23 18 30 12 46 8 hvcurveto
            -56 -7 -11 -41 -14 hhcurveto
            -99 170 callsubr
            148 -62 callgsubr
            return
          </CharString>
          <CharString index="27">
            -86 callgsubr
            106 5 return
          </CharString>
          <CharString index="28">
            -66 callsubr
            112 -105 callsubr
          </CharString>
          <CharString index="29">
            rmoveto
            32 37 16 34 37 38 -25 -56 -6 0 -6 -1 -5 vhcurveto
            -2 -19 -22 -3 -24 hhcurveto
            -45 -35 19 36 hvcurveto
            -210 -184 rmoveto
            -41 callsubr
            -112 -89 -68 -93 14 callgsubr
            return
          </CharString>
          <CharString index="30">
            rmoveto
            -27 -45 55 27 33 38 14 54 5 hvcurveto
            2 -26 4 -29 -21 vvcurveto
            -33 -7 -25 -19 vhcurveto
            return
          </CharString>
          <CharString index="31">
            662 -106 callgsubr
            return
          </CharString>
          <CharString index="32">
            -142 -158 -39 -99 -83 120 -139 90 98 32 96 87 29 -3 23 -6 18 hvcurveto
            return
          </CharString>
          <CharString index="33">
            vvcurveto
            -52 33 -21 25 54 return
          </CharString>
          <CharString index="34">
            -11 -49 -9 -40 -15 175 callgsubr
            134 119 27 vhcurveto
            60 80 69 53 30 hhcurveto
            10 5 -4 -9 hvcurveto
            -118 -126 -72 84 callsubr
            147 92 63 -65 79 -67 -35 -47 -24 -33 -50 vhcurveto
            12 58 9 58 3 34 rrcurveto
            289 -105 callsubr
          </CharString>
          <CharString index="35">
            -15 -15 0 -15 hhcurveto
            8 65 2 63 48 4 0 3 4 vvcurveto
            -169 -393 -81 callsubr
            return
          </CharString>
          <CharString index="36">
            rmoveto
            -22 -25 56 19 19 21 11 39 11 13 -1 -2 14 hvcurveto
            -59 -11 -17 -43 -23 hhcurveto
            return
          </CharString>
          <CharString index="37">
            rmoveto
            79 52 95 39 31 26 -57 -100 22 vhcurveto
            -43 -49 -64 -32 -38 hhcurveto
            -14 -5 34 24 hvcurveto
            return
          </CharString>
          <CharString index="38">
            -30 -37 -48 -30 -56 -63 -2 15 -29 hhcurveto
            -20 -7 -9 -20 -27 16 -21 23 -16 hvcurveto
            -58 -12 -77 -42 -83 hhcurveto
            -24 -6 4 26 57 30 97 81 32 hvcurveto
            23 9 33 2 27 vvcurveto
            25 -57 32 -41 return
          </CharString>
          <CharString index="39">
            hlineto
            -107 callsubr
            return
          </CharString>
          <CharString index="40">
            -72 callsubr
            hhcurveto
            return
          </CharString>
          <CharString index="41">
            -35 callgsubr
            43 57 -6 -10 50 vhcurveto
            -15 -100 -6 -79 -48 vvcurveto
            -24 46 -38 26 34 14 180 133 29 vhcurveto
            21 93 29 105 8 44 rrcurveto
            return
          </CharString>
          <CharString index="42">
            rmoveto
            -106 -88 -36 -31 -17 -44 22 -29 rlinecurve
            29 -38 40 40 35 19 109 55 rcurveline
            28 15 5 53 -31 38 -23 28 -24 9 -31 -27 rrcurveto
            return
          </CharString>
          <CharString index="43">
            106 86 57 91 hvcurveto
            159 -236 -19 21 vvcurveto
            21 81 18 40 vhcurveto
            29 18 -13 21 hhcurveto
            0 1 vlineto
            28 15 26 43 42 4 32 3 25 hvcurveto
            158 -105 callsubr
          </CharString>
          <CharString index="44">
            -20 callsubr
            54 59 22 33 63 192 callgsubr
            28 109 108 25 vhcurveto
            26 17 rlineto
            76 112 189 170 76 hhcurveto
            25 18 -18 -27 -79 -70 -81 -74 hvcurveto
            -42 -2 11 -29 hhcurveto
            -13 -5 -16 -17 -9 2 -9 4 -8 hvcurveto
            10 -23 30 -34 53 -65 rrcurveto
            -59 48 47 -46 27 281 callsubr
            return
          </CharString>
          <CharString index="45">
            rmoveto
            -1 -9 -7 -1 -7 hhcurveto
            -36 -12 17 20 22 14 35 25 25 7 -38 -47 hvcurveto
            return
          </CharString>
          <CharString index="46">
            hhcurveto
            -5 -2 1 2 35 74 67 52 25 hvcurveto
            14 7 13 5 8 vvcurveto
            19 -32 45 -22 -6 -12 -4 -8 -15 vhcurveto
            -13 -34 -47 -9 -35 hhcurveto
            -4 -1 1 3 10 4 13 6 15 hvcurveto
            -2 7 7 -1 7 hhcurveto
            return
          </CharString>
          <CharString index="47">
            -106 callgsubr
            73 hlineto
            -57 callgsubr
            -41 -35 -21 -46 -54 48 -30 59 -10 hvcurveto
            137 callsubr
            return
          </CharString>
          <CharString index="48">
            248 callgsubr
            -274 108 rmoveto
            -22 callsubr
            return
          </CharString>
          <CharString index="49">
            -59 callgsubr
            -7 -33 -4 -31 -25 vvcurveto
            -44 23 -14 24 22 15 11 31 10 vhcurveto
            return
          </CharString>
          <CharString index="50">
            -95 callgsubr
            156 -105 callsubr
          </CharString>
          <CharString index="51">
            rmoveto
            -90 86 -127 104 207 178 271 187 142 -87 134 -134 -144 -210 -260 -257 vhcurveto
            366 386 rmoveto
            39 28 -49 -106 -141 -159 -186 -85 -24 -18 38 58 181 154 205 65 hvcurveto
            return
          </CharString>
          <CharString index="52">
            -105 60 -105 115 62 44 42 35 32 -18 20 -24 return
          </CharString>
          <CharString index="53">
            -69 12 -94 26 105 vvcurveto
            60 43 35 75 50 33 -31 -42 -31 4 -21 19 40 26 46 46 80 -79 59 -98 -8 -7 0 -1 -8 vhcurveto
            -2 6 -1 7 8 vvcurveto
            22 18 15 75 vhcurveto
            28 26 -2 22 hhcurveto
            15 14 1 4 10 hvcurveto
            36 8 12 69 50 vvcurveto
            18 -3 18 -5 17 vhcurveto
            106 -105 callsubr
          </CharString>
          <CharString index="54">
            -99 callsubr
            -26 15 -23 35 -5 hvcurveto
            -13 -85 -12 -76 -12 -82 rrcurveto
            -15 -105 -20 -115 -23 -34 callgsubr
          </CharString>
          <CharString index="55">
            311 callgsubr
            -120 224 -48 -77 vvcurveto
            -20 -19 -15 -31 -8 vhcurveto
            82 -39 -49 73 -84 hhcurveto
            -72 -56 -40 -69 -90 95 -65 132 hvcurveto
            8 7 0 8 hhcurveto
            -121 51 51 -96 44 hhcurveto
            20 11 9 19 38 -44 67 -41 96 hvcurveto
            79 18 47 40 61 return
          </CharString>
          <CharString index="56">
            86 -45 callsubr
            return
          </CharString>
          <CharString index="57">
            155 35 hvcurveto
            71 callgsubr
            return
          </CharString>
          <CharString index="58">
            rmoveto
            15 21 -13 -10 -31 -55 -14 -66 -4 hvcurveto
            42 31 31 30 23 hhcurveto
            -358 130 callsubr
            395 hlineto
            -5 -15 -3 -17 -1 -17 rrcurveto
            4 -13 -13 3 -13 hhcurveto
            -127 -246 -185 -132 -40 40 -77 35 -20 hvcurveto
            return
          </CharString>
          <CharString index="59">
            -38 callgsubr
            35 24 -81 callgsubr
            hvcurveto
            20 89 22 106 5 50 rrcurveto
            return
          </CharString>
          <CharString index="60">
            vvcurveto
            -96 88 -56 127 -12 vhcurveto
            -115 12 60 -117 60 hhcurveto
            23 16 8 22 31 -51 54 -11 118 hvcurveto
            111 16 87 69 78 vvcurveto
            57 -55 55 -65 -111 -54 -84 -87 -18 vhcurveto
            -46 6 -39 16 36 vvcurveto
            return
          </CharString>
          <CharString index="61">
            -415 hlineto
            -76 callgsubr
            124 hlineto
            return
          </CharString>
          <CharString index="62">
            vvcurveto
            19 -2 17 -4 15 vhcurveto
            return
          </CharString>
          <CharString index="63">
            101 callgsubr
            -287 406 67 callsubr
            return
          </CharString>
          <CharString index="64">
            rmoveto
            23 -59 56 -41 -10 -6 -5 -15 -3 vhcurveto
            -16 -81 -21 -229 -52 -154 -65 149 -47 203 -43 64 rrcurveto
            29 -20 -43 34 -23 hhcurveto
            -15 -6 -13 -25 -2 hvcurveto
            -10 -123 -110 -410 -66 vvcurveto
            -30 58 -65 26 27 24 117 302 67 vhcurveto
            59 -132 43 -152 29 -80 rrcurveto
            -32 12 42 -23 17 hhcurveto
            81 106 543 115 1 hvcurveto
            return
          </CharString>
          <CharString index="65">
            vvcurveto
            -24 52 -38 26 34 34 183 133 30 vhcurveto
            19 84 33 109 9 46 rrcurveto
            return
          </CharString>
          <CharString index="66">
            33 callsubr
            108 -78 81 -128 return
          </CharString>
          <CharString index="67">
            165 callsubr
            75 2 92 12 79 22 rrcurveto
            -14 -91 -15 -88 -20 -106 callsubr
          </CharString>
          <CharString index="68">
            vvcurveto
            138 callgsubr
            vhcurveto
            -84 callgsubr
          </CharString>
          <CharString index="69">
            hlineto
            -2 -15 -1 -16 -16 vvcurveto
            -16 vlineto
            6 -12 -12 4 -10 hhcurveto
            -79 -143 -70 -49 -30 38 -53 41 -12 hvcurveto
            83 -24 77 -8 -29 vvcurveto
            -24 -29 -20 -56 -66 -29 22 165 callgsubr
            -25 -30 return
          </CharString>
          <CharString index="70">
            110 109 27 58 86 return
          </CharString>
          <CharString index="71">
            -250 151 712 rmoveto
            -3 -104 -97 -446 -1 -44 rrcurveto
            -28 -1 61 -77 28 hhcurveto
            30 19 127 145 30 hvcurveto
            36 174 32 112 1 36 rrcurveto
            60 2 -78 78 -28 hhcurveto
            -22 -8 -12 -21 -1 hvcurveto
            return
          </CharString>
          <CharString index="72">
            -61 callsubr
            128 118 92 105 51 -29 38 -53 return
          </CharString>
          <CharString index="73">
            vvcurveto
            -26 30 -35 18 27 81 101 52 22 vhcurveto
            -58 3 54 -123 55 hhcurveto
            16 7 9 17 return
          </CharString>
          <CharString index="74">
            hlineto
            -56 callgsubr
            return
          </CharString>
          <CharString index="75">
            hhcurveto
            164 callsubr
            hvcurveto
            -7 callsubr
            return
          </CharString>
          <CharString index="76">
            18 callgsubr
            hmoveto
            101 callsubr
            -50 -44 -48 -46 -41 hvcurveto
            -41 -62 -4 -6 -97 hvcurveto
            13 52 7 54 52 vvcurveto
            20 -1 19 -3 18 vhcurveto
            -238 -402 16 callsubr
            return
          </CharString>
          <CharString index="77">
            85 callsubr
            vhcurveto
            -79 callsubr
          </CharString>
          <CharString index="78">
            113 18 47 7 28 vvcurveto
            21 -25 7 -49 1 vhcurveto
            -156 2 -126 -3 -1 -39 rrcurveto
            -23 28 -41 28 -1 vhcurveto
            return
          </CharString>
          <CharString index="79">
            rmoveto
            38 -35 -13 43 -26 hhcurveto
            -19 -42 -29 -27 -47 hvcurveto
            -49 -28 -24 -26 -36 vvcurveto
            -27 17 -22 27 38 16 37 36 70 vhcurveto
            -45 35 63 -47 38 hhcurveto
            16 14 15 11 39 -47 32 -32 36 hvcurveto
            return
          </CharString>
          <CharString index="80">
            -11 -21 -7 -23 -4 -22 rrcurveto
            9 -18 -19 6 -17 hhcurveto
            return
          </CharString>
          <CharString index="81">
            -8 -39 -8 -35 -6 -27 rrcurveto
            10 -24 -27 6 -25 hhcurveto
            -45 -62 -31 -42 -57 hvcurveto
            -79 -58 -69 -78 -37 154 callsubr
            62 59 49 61 vhcurveto
            43 54 43 20 34 hhcurveto
            30 22 -10 -10 19 hvcurveto
            -11 20 17 -11 22 hhcurveto
            0 1 vlineto
            34 24 151 151 34 hvcurveto
            37 68 59 37 30 hhcurveto
            8 1 -12 -19 -51 -27 -100 -40 -26 hvcurveto
            -22 -14 -27 11 -26 vvcurveto
            -33 53 -46 34 101 47 209 109 67 -36 52 -63 -48 -53 -22 -28 -54 vhcurveto
            9 45 7 39 2 26 rrcurveto
            308 -105 callsubr
          </CharString>
          <CharString index="82">
            1 8 0 7 142 callsubr
            return
          </CharString>
          <CharString index="83">
            -21 vvcurveto
            -44 55 -47 20 35 24 -103 callgsubr
            return
          </CharString>
          <CharString index="84">
            -56 -40 -107 -103 -49 vvcurveto
            -16 24 -21 16 20 47 56 52 53 vhcurveto
            47 47 52 51 39 30 rrcurveto
            -7 -31 -10 -29 -18 323 callsubr
            43 128 122 23 vhcurveto
            48 47 97 68 273 callgsubr
            -117 -126 -73 -50 vvcurveto
            -18 25 -14 18 return
          </CharString>
          <CharString index="85">
            -107 callsubr
            138 -42 callgsubr
            143 return
          </CharString>
          <CharString index="86">
            hhcurveto
            -12 -5 4 10 33 96 125 41 return
          </CharString>
          <CharString index="87">
            303 callsubr
            -123 -121 -192 -91 -51 78 -59 48 return
          </CharString>
          <CharString index="88">
            rmoveto
            41 -33 -44 36 -51 hhcurveto
            -30 -28 -11 -19 -26 hvcurveto
            -61 -39 -74 -41 -78 -40 17 79 18 94 4 48 rrcurveto
            407 hlineto
            -259 -338 rmoveto
            33 74 123 41 42 36 -32 -30 28 vhcurveto
            -59 -78 -74 -52 -48 hhcurveto
            -14 -7 6 11 hvcurveto
            -320 52 rmoveto
            -45 -87 -63 -34 -45 -21 callsubr
            41 18 -56 -37 16 hvcurveto
            -293 320 callgsubr
            336 -20 callsubr
            40 63 20 32 72 272 callgsubr
            42 28 94 101 24 vhcurveto
            39 20 39 22 38 23 rrcurveto
            -6 -22 -4 -21 -17 286 callgsubr
            50 65 33 44 68 vhcurveto
            -12 -54 -10 -45 -16 2 callgsubr
            52 31 144 121 28 vhcurveto
            60 79 68 51 273 callgsubr
            -118 -126 -72 84 callsubr
            147 92 63 -65 79 -67 -35 -45 -23 -33 -50 vhcurveto
            11 55 8 52 3 32 rrcurveto
            return
          </CharString>
          <CharString index="89">
            -36 callgsubr
            vhcurveto
            -12 16 return
          </CharString>
          <CharString index="90">
            vvcurveto
            -30 7 -24 22 45 28 138 162 41 vhcurveto
            12 49 18 48 16 39 rrcurveto
            66 25 53 41 45 273 callsubr
            -42 -62 -30 vhcurveto
            -3 -17 -20 -2 -22 -95 callgsubr
            return
          </CharString>
          <CharString index="91">
            235 callgsubr
            -63 42 -51 63 -15 hvcurveto
            -33 -58 -67 -20 -75 hhcurveto
            -48 -33 21 28 -27 hvcurveto
            120 39 70 103 90 55 callsubr
            -577 319 callsubr
            65 124 callsubr
            -59 -49 -82 -26 hvcurveto
            33 -28 -32 26 -48 hhcurveto
            -47 -29 -29 -38 -54 47 -30 58 -9 hvcurveto
            -86 60 88 -65 106 hhcurveto
            89 109 39 59 89 hvcurveto
            -7 -35 -7 -29 -4 -20 rrcurveto
            6 -20 -21 3 -21 73 callgsubr
            15 14 -3 19 hhcurveto
            1 0 2 hlineto
            4 5 4 6 4 hvcurveto
            27 37 22 133 30 132 6 callsubr
          </CharString>
          <CharString index="92">
            rmoveto
            -16 -28 36 23 19 31 12 46 7 hvcurveto
            -56 -7 -11 -41 -15 hhcurveto
            -452 400 194 callgsubr
            26 -19 32 41 30 callgsubr
            263 192 callsubr
            164 -4 hlineto
            -35 -2 -63 -4 -65 vhcurveto
            -11 -1 rlineto
            -2 -49 -84 -17 -81 hhcurveto
            -59 -55 6 11 -47 hvcurveto
            35 45 24 52 63 vvcurveto
            67 -38 86 -98 299 callsubr
            -69 33 -52 52 -37 vhcurveto
            -103 -73 -125 -64 -110 -47 callsubr
            64 109 53 97 76 vhcurveto
            -22 71 82 -10 74 hhcurveto
            14 16 1 1 17 hvcurveto
            -1 -5 0 -4 -5 114 callgsubr
            81 43 101 116 22 vhcurveto
            1 22 22 0 23 return
          </CharString>
          <CharString index="93">
            157 155 35 vhcurveto
            6 callsubr
          </CharString>
          <CharString index="94">
            rmoveto
            -18 -16 26 19 19 25 2 30 10 12 -1 -1 12 hvcurveto
            -40 -15 -21 -24 -19 hhcurveto
            -11 812 -106 callgsubr
            345 -38 callsubr
            -52 28 -43 44 -28 hvcurveto
            1 -14 1 -16 -15 vvcurveto
            -27 -2 -26 -4 -24 vhcurveto
            3 -18 -18 1 -22 hhcurveto
            -86 -60 -34 -59 -72 70 -74 60 104 64 137 170 hvcurveto
            17 vlineto
            -3 19 19 -2 21 hhcurveto
            16 15 1 2 14 hvcurveto
            -30 -101 -16 -141 -35 234 callsubr
            9 88 37 164 13 80 rrcurveto
            35 24 20 35 35 13 callgsubr
            -97 callgsubr
            endchar
          </CharString>
          <CharString index="95">
            rmoveto
            7 -30 -32 10 -51 hhcurveto
            -109 -76 -19 -38 -24 44 -65 32 hvcurveto
            44 16 12 61 hhcurveto
            43 32 0 -11 hvcurveto
            -34 -325 -144 -80 vvcurveto
            -31 64 -83 70 166 144 33 65 27 -28 11 -25 vhcurveto
            -64 -50 -6 -104 hhcurveto
            -3 -3 -1 2 hvcurveto
            19 278 110 124 vvcurveto
            26 -46 77 -48 13 vhcurveto
            return
          </CharString>
          <CharString index="96">
            rmoveto
            146 126 93 114 hvcurveto
            145 -223 113 40 vvcurveto
            22 46 21 75 29 vhcurveto
            68 26 87 0 32 vvcurveto
            42 -34 58 -54 -87 -131 -59 -71 -72 vhcurveto
            -23 -20 -17 -59 -42 -70 226 -152 -53 vvcurveto
            -31 -89 -61 -57 vhcurveto
            -93 -29 96 -59 hhcurveto
            -22 -9 -24 -30 -66 84 -93 141 hvcurveto
            return
          </CharString>
          <CharString index="97">
            3 143 161 56 callgsubr
            372 501 rmoveto
            -28 23 -72 13 66 vvcurveto
            252 callgsubr
            -49 20 -42 31 -29 hvcurveto
            -198 -68 callsubr
            253 -2 hlineto
            -25 0 -27 1 -25 vhcurveto
            13 -34 -41 -52 callsubr
            160 -208 29 46 vvcurveto
            11 7 4 17 vhcurveto
            67 41 -39 31 hhcurveto
            6 4 1 1 4 hvcurveto
            2 1 2 1 2 2 3 2 2 3 2 4 rrcurveto
            17 30 9 76 53 vvcurveto
            9 -1 8 -2 7 vhcurveto
            127 -107 callgsubr
            return
          </CharString>
          <CharString index="98">
            -17 -86 callsubr
            return
          </CharString>
          <CharString index="99">
            -53 -106 -123 124 -131 81 65 callsubr
            return
          </CharString>
          <CharString index="100">
            164 callgsubr
            -1 vlineto
            33 callsubr
            return
          </CharString>
          <CharString index="101">
            6 callgsubr
            -86 -144 -72 -57 -29 46 -75 41 -12 hvcurveto
            -10 callgsubr
            return
          </CharString>
          <CharString index="102">
            14 51 12 109 28 138 14 68 rcurveline
            123 58 104 92 123 vvcurveto
            65 -34 66 -69 -156 -33 -161 -159 -26 vhcurveto
            -28 -75 -75 -17 -42 hhcurveto
            -5 -3 1 2 43 88 70 53 41 hvcurveto
            23 18 9 18 17 vvcurveto
            22 -16 8 -29 vhcurveto
            -26 -35 -13 -31 hhcurveto
            -17 -5 4 11 36 104 83 55 hvcurveto
            24 -5 -15 17 hhcurveto
            12 18 34 25 17 -5 13 -10 9 hvcurveto
            346 -105 callsubr
          </CharString>
          <CharString index="103">
            198 -105 callsubr
          </CharString>
          <CharString index="104">
            -25 48 -49 16 11 14 8 4 7 vhcurveto
            11 7 0 11 19 vvcurveto
            24 20 15 27 21 12 -13 -20 return
          </CharString>
          <CharString index="105">
            rmoveto
            199 callgsubr
            78 89 87 69 37 -43 50 -55 vhcurveto
            return
          </CharString>
          <CharString index="106">
            rmoveto
            5 2 -2 -4 -38 -81 -49 -46 -10 hvcurveto
            54 41 52 49 27 hhcurveto
            return
          </CharString>
          <CharString index="107">
            -25 44 56 -10 81 hhcurveto
            140 144 50 91 55 -91 101 -65 -68 -93 -94 -85 -49 hvcurveto
            -28 11 -14 19 31 vvcurveto
            55 192 136 51 vhcurveto
            47 19 -40 26 hhcurveto
            return
          </CharString>
          <CharString index="108">
            rmoveto
            -41 -15 -50 -13 -48 -10 rrcurveto
            24 39 14 44 46 -26 callgsubr
            140 hlineto
            return
          </CharString>
          <CharString index="109">
            rmoveto
            -10 -67 -9 -62 -10 -63 rrcurveto
            -27 -59 -54 -21 -32 hhcurveto
            -8 -4 16 24 52 18 92 26 56 hvcurveto
            -271 -89 callsubr
            136 hlineto
            -24 -62 -11 -71 -49 vvcurveto
            -79 13 -108 68 58 65 21 24 60 vhcurveto
            -15 -93 rlineto
            14 -26 -30 8 -27 hhcurveto
            -46 -73 -43 -52 -64 hvcurveto
            -70 -57 -59 -69 -33 154 callsubr
            54 61 49 61 vhcurveto
            43 54 45 29 34 hhcurveto
            34 23 -18 -15 24 hvcurveto
            11 -7 12 -7 14 -4 rrcurveto
            -1 3 4 -1 3 hhcurveto
            3 hlineto
            5 hlineto
            4 4 3 5 4 hvcurveto
            36 33 14 124 28 128 rrcurveto
            33 66 51 29 247 callgsubr
            -40 -42 -17 -24 -51 vhcurveto
            9 49 8 45 3 28 rrcurveto
            267 -105 callsubr
          </CharString>
          <CharString index="110">
            rmoveto
            45 -59 81 -53 -66 -186 -103 -78 vhcurveto
            -86 181 -56 -58 vvcurveto
            -16 -45 -5 -30 vhcurveto
            -104 -16 39 -35 hhcurveto
            -20 -12 -14 -28 -42 79 -68 122 110 89 73 54 hvcurveto
            117 -172 48 34 vvcurveto
            40 98 18 20 vhcurveto
            37 14 -19 27 hhcurveto
            13 8 9 15 hvcurveto
            return
          </CharString>
          <CharString index="111">
            rmoveto
            40 3 45 8 47 vhcurveto
            39 -74 52 -82 40 -50 rrcurveto
            -17 -36 -39 -12 -43 hhcurveto
            290 callgsubr
            hvcurveto
            return
          </CharString>
          <CharString index="112">
            -92 86 -62 119 9 8 0 1 8 vhcurveto
            -30 -34 -48 -19 -48 return
          </CharString>
          <CharString index="113">
            20 89 22 106 5 50 57 callsubr
          </CharString>
          <CharString index="114">
            -9 -28 67 10 14 -28 -43 -20 -107 0 -1 -31 rrcurveto
            -15 30 -22 41 -1 vhcurveto
            104 -2 105 57 1 58 rrcurveto
            33 -56 24 -39 6 vhcurveto
            return
          </CharString>
          <CharString index="115">
            554 rmoveto
            -133 -30 -131 -149 -59 18 callsubr
            return
          </CharString>
          <CharString index="116">
            333 callsubr
            -19 rlineto
            -130 -45 -112 -107 -60 hhcurveto
            -13 -7 41 42 45 10 64 22 64 hvcurveto
            return
          </CharString>
          <CharString index="117">
            -12 -82 rrcurveto
            -15 -105 return
          </CharString>
          <CharString index="118">
            -71 callsubr
            -116 74 callgsubr
            184 -88 callsubr
            205 274 callsubr
            -9 -63 -14 -63 -10 -44 rrcurveto
            11 -22 -25 7 -27 hhcurveto
            -50 -67 -45 -54 -57 hvcurveto
            -62 -59 -49 -70 -35 vvcurveto
            -24 15 -11 21 33 43 52 51 50 vhcurveto
            44 43 45 47 42 hhcurveto
            36 23 -23 -18 23 hvcurveto
            -11 14 15 -8 18 hhcurveto
            1 hlineto
            1 hlineto
            -68 callgsubr
            58 -105 callsubr
          </CharString>
          <CharString index="119">
            590 80 rmoveto
            292 callsubr
            hvcurveto
            7 33 12 67 6 46 rrcurveto
            270 hlineto
            47 -103 callsubr
            25 -48 hvcurveto
            -736 308 callsubr
            -22 -155 rlineto
            40 285 callsubr
            -105 -120 -184 -91 -26 35 -60 65 15 17 4 7 18 hvcurveto
            -23 callsubr
            vhcurveto
            -394 117 143 callsubr
            return
          </CharString>
          <CharString index="120">
            554 -3 callgsubr
            return
          </CharString>
          <CharString index="121">
            rmoveto
            316 callsubr
            -37 -37 23 24 vhcurveto
            -505 279 -106 callgsubr
            67 124 callsubr
            -59 -49 -82 -26 hvcurveto
            33 -28 -32 26 -48 hhcurveto
            -47 -29 -29 -38 -54 47 -30 58 -9 hvcurveto
            -86 60 88 -65 106 hhcurveto
            27 31 6 10 33 hvcurveto
            -107 -88 -96 -60 -37 vvcurveto
            -21 10 -14 26 103 309 284 159 61 vhcurveto
            2 4 2 4 1 4 rrcurveto
            0 vlineto
            3 10 2 10 10 vvcurveto
            66 -59 79 -104 220 callsubr
            -63 42 -51 63 -15 vhcurveto
            244 callsubr
            331 -105 callsubr
          </CharString>
          <CharString index="122">
            -106 callgsubr
            494 hlineto
            -18 -121 rlineto
            -27 -37 -49 -28 -56 -52 -9 11 -29 hhcurveto
            -20 -7 -9 -20 -17 9 -16 14 -13 hvcurveto
            -65 -1 -80 -38 -72 33 callgsubr
            vhcurveto
            2 vlineto
            33 2 38 8 35 14 -11 -71 -17 -68 -9 -41 rrcurveto
            6 -18 -20 4 -20 hhcurveto
            -54 -74 -34 -43 -63 hvcurveto
            -74 -50 -60 -62 -33 148 callgsubr
            38 20 -11 -8 22 hvcurveto
            -4 12 13 -3 16 hhcurveto
            35 24 157 155 35 hvcurveto
            6 callsubr
          </CharString>
          <CharString index="123">
            rmoveto
            -15 -17 31 16 20 46 8 58 6 hvcurveto
            -48 -24 -27 -33 -21 hhcurveto
            return
          </CharString>
          <CharString index="124">
            rmoveto
            -21 -6 -11 -12 -18 -45 -50 94 -35 hhcurveto
            -20 -36 -48 -31 -48 86 -65 93 81 69 58 87 31 hvcurveto
            166 495 rlineto
            72 24 -61 72 -45 hhcurveto
            -15 -11 -7 -18 -4 hvcurveto
            -62 -193 -145 -175 -27 4 rrcurveto
            -3 2 2 4 hvcurveto
            104 99 146 50 vvcurveto
            40 -45 43 -41 -57 -87 -262 -115 -72 81 -67 40 34 51 39 58 46 vhcurveto
            return
          </CharString>
          <CharString index="125">
            hhcurveto
            -13 -7 41 42 73 10 64 22 62 hvcurveto
            return
          </CharString>
          <CharString index="126">
            rmoveto
            -69 -50 -109 -67 -62 hhcurveto
            -24 -10 11 15 189 181 232 115 hvcurveto
            49 -11 -11 22 hhcurveto
            9 6 5 13 51 -56 89 -41 -181 -230 -337 -220 -84 110 -79 84 70 79 57 77 60 hvcurveto
            -25 -84 -15 -79 -43 vvcurveto
            -18 14 -12 19 51 76 268 53 66 -32 82 -86 -63 -86 -17 -31 -26 43 -33 38 1 vhcurveto
            return
          </CharString>
          <CharString index="127">
            rmoveto
            18 84 19 170 54 vvcurveto
            54 -71 72 -29 -23 -7 -12 -17 -1 vhcurveto
            -370 -130 -317 23 11 vhcurveto
            -28 1 55 -63 29 hhcurveto
            32 52 222 140 32 hvcurveto
            return
          </CharString>
          <CharString index="128">
            rmoveto
            -59 -79 -74 -52 -48 hhcurveto
            -14 325 callsubr
            94 122 41 33 29 -30 -29 25 hvcurveto
            return
          </CharString>
          <CharString index="129">
            -163 -82 -8 callsubr
            return
          </CharString>
          <CharString index="130">
            rmoveto
            -33 -27 22 32 -23 hvcurveto
            78 80 68 76 17 hhcurveto
            6 4 -3 -8 -68 -31 -129 -61 hvcurveto
            -336 5 rmoveto
            -11 -6 4 11 39 56 123 42 30 24 -35 -31 24 hvcurveto
            -61 -62 -58 -50 -39 hhcurveto
            -93 532 316 callgsubr
            hlineto
            -10 -25 -5 -26 -20 vvcurveto
            -9 1 -9 2 -8 vhcurveto
            -46 -7 -71 -71 -73 -74 rrcurveto
            60 -28 -55 67 -70 hhcurveto
            -127 -83 -208 -85 -63 84 -60 68 47 64 45 57 64 hvcurveto
            -59 37 50 -42 74 hhcurveto
            132 69 171 136 33 -22 40 -30 28 hvcurveto
            10 17 7 29 15 32 8 18 7 17 4 16 rrcurveto
            143 -105 callsubr
          </CharString>
          <CharString index="131">
            rmoveto
            -39 -31 7 22 49 152 151 75 39 33 -65 -37 -62 -156 -65 -73 hvcurveto
            return
          </CharString>
          <CharString index="132">
            -272 56 -76 callsubr
            return
          </CharString>
          <CharString index="133">
            hlineto
            -27 callsubr
            return
          </CharString>
          <CharString index="134">
            -62 callsubr
            279 165 111 callgsubr
            -95 -67 -75 -88 -35 hvcurveto
            -42 -62 -3 -7 -101 hvcurveto
            13 52 7 54 52 144 callsubr
            return
          </CharString>
          <CharString index="135">
            3 hlineto
            61 58 79 126 62 -14 53 -59 -25 -17 -18 -22 hvcurveto
            -29 6 -32 -25 vvcurveto
            -51 -12 -41 -24 -13 -13 27 16 -10 vhcurveto
            return
          </CharString>
          <CharString index="136">
            -2 3 -13 14 rlineto
            -10 14 -5 12 20 vvcurveto
            44 31 38 66 vhcurveto
            76 23 -45 331 callgsubr
            -57 -38 -55 -26 hvcurveto
            -3 9 -1 8 9 vvcurveto
            38 -77 65 -66 -13 -11 -2 -15 return
          </CharString>
          <CharString index="137">
            -68 callsubr
            368 hlineto
            -21 -144 rlineto
            41 -86 -116 32 -78 182 callgsubr
            -13 37 -14 30 -12 rrcurveto
            0 vlineto
            -41 -23 -51 -32 -47 -29 23 callgsubr
            18 11 18 11 19 10 rrcurveto
            -13 -59 -12 -50 -17 175 callgsubr
            135 119 27 vhcurveto
            66 83 79 46 47 hhcurveto
            10 5 -4 -9 hvcurveto
            -118 -126 -72 84 callsubr
            147 92 63 -65 79 -67 -53 -55 -24 -34 -54 vhcurveto
            11 59 10 58 3 34 rrcurveto
            endchar
          </CharString>
          <CharString index="138">
            hvcurveto
            43 callgsubr
            return
          </CharString>
          <CharString index="139">
            rmoveto
            -132 -153 -7 -42 -44 41 -47 31 43 18 4 2 57 hvcurveto
            -18 -198 -74 -224 -62 vvcurveto
            -31 55 -70 29 22 15 81 130 26 vhcurveto
            38 176 42 132 42 vvcurveto
            8 -1 8 -3 9 vhcurveto
            -2 96 53 -4 44 hhcurveto
            36 1 19 19 16 vvcurveto
            50 -74 53 -210 vhcurveto
            endchar
          </CharString>
          <CharString index="140">
            -2 vlineto
            -40 75 -78 67 -82 vhcurveto
            -67 callgsubr
            return
          </CharString>
          <CharString index="141">
            hlineto
            -3 287 callgsubr
            113 callgsubr
            return
          </CharString>
          <CharString index="142">
            183 224 -58 callgsubr
            return
          </CharString>
          <CharString index="143">
            hhcurveto
            22 callsubr
            return
          </CharString>
          <CharString index="144">
            rmoveto
            38 16 37 36 70 hvcurveto
            -45 35 63 -47 38 hhcurveto
            16 14 15 11 39 -47 32 -32 36 hvcurveto
            38 -35 -13 43 -26 hhcurveto
            -19 -42 -29 -27 -47 hvcurveto
            -49 -28 -24 -26 -36 vvcurveto
            -27 17 -22 27 vhcurveto
            return
          </CharString>
          <CharString index="145">
            -38 55 -49 99 -36 85 rrcurveto
            -295 108 128 callsubr
            return
          </CharString>
          <CharString index="146">
            4 -20 4 -25 -28 vvcurveto
            -93 -76 -153 -57 -25 -10 43 51 107 47 74 7 44 vhcurveto
            -466 162 callsubr
            332 208 rmoveto
            -23 -62 -16 -62 -5 -73 -20 -9 -24 -16 -27 -17 38 callsubr
            86 141 55 69 74 vhcurveto
            -70 18 48 -53 63 hhcurveto
            150 123 189 149 callgsubr
            hvcurveto
            return
          </CharString>
          <CharString index="147">
            hvcurveto
            -54 -14 -78 -33 -60 -36 rrcurveto
            1 8 0 7 8 -102 callsubr
            return
          </CharString>
          <CharString index="148">
            -298 8 callgsubr
            return
          </CharString>
          <CharString index="149">
            110 -107 callgsubr
            return
          </CharString>
          <CharString index="150">
            43 callgsubr
            46 29 109 108 25 vhcurveto
            116 169 166 147 67 hhcurveto
            25 18 -18 -27 -79 -70 -81 -74 hvcurveto
            -42 -2 11 -29 hhcurveto
            -13 -5 -16 -17 -11 3 -10 5 -8 hvcurveto
            -51 28 143 -173 42 281 callsubr
            33 9 29 14 26 19 86 3 97 11 81 22 rrcurveto
            -14 -92 -15 -89 -20 -34 callgsubr
          </CharString>
          <CharString index="151">
            635 -61 callgsubr
            return
          </CharString>
          <CharString index="152">
            1 -51 -7 -55 -12 -55 rrcurveto
            -90 -12 -66 -20 -22 vvcurveto
            -33 36 -47 31 11 20 4 7 26 vhcurveto
            -34 -115 -39 -100 -44 vvcurveto
            -51 81 -55 39 103 104 87 46 18 -4 12 -21 vhcurveto
            -26 -91 -45 -39 hhcurveto
            -9 -3 0 6 12 20 61 19 56 hvcurveto
            13 43 17 51 15 50 rrcurveto
            return
          </CharString>
          <CharString index="153">
            -81 callsubr
            hhcurveto
            return
          </CharString>
          <CharString index="154">
            313 callgsubr
            176 322 153 219 47 -18 48 -37 23 vhcurveto
            2 9 2 8 2 7 5 16 8 12 8 10 rrcurveto
            97 -105 callsubr
          </CharString>
          <CharString index="155">
            rmoveto
            -15 -16 31 16 15 43 7 60 5 hvcurveto
            -44 -25 -27 -30 -20 hhcurveto
            140 307 -62 callsubr
            204 193 callsubr
            49 hlineto
            -25 -164 -37 -2 -47 -6 -55 -7 rlinecurve
            235 callsubr
            212 callsubr
            vhcurveto
            126 callgsubr
            77 69 84 106 43 vhcurveto
            55 4 57 5 45 10 return
          </CharString>
          <CharString index="156">
            35 callsubr
            -115 73 callsubr
            return
          </CharString>
          <CharString index="157">
            hhcurveto
            -18 -1 33 25 67 51 85 39 hvcurveto
            39 -8 -51 48 hhcurveto
            30 15 24 32 44 -46 72 -66 return
          </CharString>
          <CharString index="158">
            110 callsubr
            -105 -133 -99 -97 hvcurveto
            -29 -49 44 -28 hhcurveto
            -17 -14 -27 -35 -10 3 -11 6 -11 hvcurveto
            19 -41 49 -61 51 -65 170 callgsubr
            -9 13 -11 15 -11 15 rrcurveto
            163 25 146 148 138 -26 callgsubr
            305 callgsubr
          </CharString>
          <CharString index="159">
            rmoveto
            -33 -7 -25 -19 -27 -45 55 27 19 39 11 54 10 vhcurveto
            2 -23 3 -23 -18 vvcurveto
            -164 409 -106 callgsubr
            414 hlineto
            -10 -70 -38 -10 -51 -16 -77 -15 rlinecurve
            -146 -28 -158 -9 -105 vvcurveto
            -83 120 -139 90 98 32 96 87 30 -3 24 -7 18 vhcurveto
            41 7 42 7 38 10 -7 -45 rcurveline
            -15 -105 -20 -115 -23 -106 callsubr
          </CharString>
          <CharString index="160">
            39 -23 -27 28 -29 hhcurveto
            -25 -31 -13 -33 -15 6 -19 9 -15 hvcurveto
            return
          </CharString>
          <CharString index="161">
            177 callsubr
            -325 hmoveto
            190 callsubr
            317 callsubr
            -109 3 hlineto
            83 23 66 73 85 309 callsubr
            -65 -58 -29 -43 -44 hvcurveto
            70 -19 -39 49 -65 hhcurveto
            -113 -122 -197 -122 -30 hvcurveto
            endchar
          </CharString>
          <CharString index="162">
            vvcurveto
            23 -3 22 -6 20 vhcurveto
            269 hlineto
            -86 -218 rmoveto
            -37 -37 23 24 316 callsubr
            hvcurveto
            return
          </CharString>
          <CharString index="163">
            15 45 48 -26 callgsubr
            return
          </CharString>
          <CharString index="164">
            rrcurveto
            113 -105 callsubr
          </CharString>
          <CharString index="165">
            rmoveto
            29 3 39 10 43 vhcurveto
            34 -54 44 -60 38 -48 rrcurveto
            -29 -44 -41 -23 -21 hhcurveto
            -16 -7 51 52 hvcurveto
            return
          </CharString>
          <CharString index="166">
            -38 callsubr
            -99 99 -62 122 return
          </CharString>
          <CharString index="167">
            rmoveto
            -19 -14 37 16 14 11 6 14 14 22 -8 -13 26 hvcurveto
            -20 -14 -26 -32 -14 hhcurveto
            return
          </CharString>
          <CharString index="168">
            -25 -28 -37 -33 -35 62 -65 38 120 callgsubr
            return
          </CharString>
          <CharString index="169">
            hlineto
            90 callgsubr
            -30 11 -24 16 -22 hvcurveto
            -71 -33 -46 -62 -75 vvcurveto
            -120 102 -72 143 59 65 19 36 19 -19 7 -56 -82 -91 29 75 60 43 35 75 50 33 -28 -37 -31 4 -21 19 40 26 39 46 80 -79 58 -98 -8 -7 0 -1 -8 vhcurveto
            -2 6 -1 7 8 vvcurveto
            22 18 15 75 vhcurveto
            28 26 -2 22 hhcurveto
            15 14 1 4 10 hvcurveto
            36 8 12 69 50 vvcurveto
            18 -3 18 -5 17 vhcurveto
            return
          </CharString>
          <CharString index="170">
            67 callgsubr
            endchar
          </CharString>
          <CharString index="171">
            333 callsubr
            -20 -3 -19 -2 -19 -46 -156 -117 -90 -149 -17 rrcurveto
            74 43 77 80 55 vvcurveto
            42 -70 60 -52 return
          </CharString>
          <CharString index="172">
            213 callgsubr
            -35 callgsubr
            return
          </CharString>
          <CharString index="173">
            vvcurveto
            -21 -19 -17 -33 -9 vhcurveto
            84 -23 -52 81 -115 hhcurveto
            -72 -53 -44 -72 -101 106 -59 136 hvcurveto
            -7 0 -8 -7 -72 -9 -40 -34 vvcurveto
            -26 5 -17 21 48 24 116 77 8 0 8 -1 9 vhcurveto
            100 18 55 49 70 vvcurveto
            return
          </CharString>
          <CharString index="174">
            -106 callgsubr
            332 -66 callgsubr
            return
          </CharString>
          <CharString index="175">
            525 125 rmoveto
            -38 -27 25 36 -22 hvcurveto
            79 84 73 78 21 hhcurveto
            6 4 -3 -8 -78 -40 -129 -61 hvcurveto
            -347 5 rmoveto
            -11 -6 4 11 39 67 128 42 30 25 -36 -32 24 hvcurveto
            -62 -66 -63 -52 -42 hhcurveto
            439 328 rmoveto
            -47 -79 -77 -79 -82 hvcurveto
            58 -30 -56 67 -64 hhcurveto
            -115 -96 -199 -89 -63 84 -50 58 51 69 48 58 68 hvcurveto
            -62 37 50 -43 72 hhcurveto
            120 79 176 121 57 -54 77 -65 hvcurveto
            return
          </CharString>
          <CharString index="176">
            -106 callgsubr
            106 hlineto
            -6 -205 -86 -161 -136 vvcurveto
            -109 81 -42 127 97 159 57 74 20 -12 15 -26 vhcurveto
            -80 -32 -53 -139 hhcurveto
            -38 -10 7 40 110 101 212 4 171 hvcurveto
            193 hlineto
            20 -27 26 -33 -63 vvcurveto
            -85 -58 -66 -89 -29 -11 -10 -13 -27 26 -42 66 128 82 105 131 53 -15 44 -23 33 199 callsubr
          </CharString>
          <CharString index="177">
            -11 -76 -11 -68 -10 -72 rrcurveto
            -35 -55 -55 -29 -30 -7 callgsubr
            return
          </CharString>
          <CharString index="178">
            42 callgsubr
            -99 -68 -81 -93 -34 hvcurveto
            -49 -32 -65 -56 -159 -14 rrcurveto
            125 69 86 115 125 vvcurveto
            12 -1 11 -2 12 vhcurveto
            -16 10 19 -10 31 hhcurveto
            103 -337 -70 callsubr
            -328 358 116 callsubr
            -13 vhcurveto
            -50 21 -13 34 23 vvcurveto
            return
          </CharString>
          <CharString index="179">
            -15 callgsubr
            -169 -393 rmoveto
            -16 -28 36 23 18 30 12 46 8 hvcurveto
            -56 -7 -11 -41 -14 hhcurveto
            return
          </CharString>
          <CharString index="180">
            438 -106 callgsubr
            return
          </CharString>
          <CharString index="181">
            257 callgsubr
            123 hmoveto
            1 29 1 29 27 vvcurveto
            126 -39 108 -97 -113 -122 -197 -122 -30 vhcurveto
            -49 hlineto
            190 callsubr
            116 -107 callgsubr
            return
          </CharString>
          <CharString index="182">
            166 rmoveto
            -15 -17 31 16 21 49 7 58 6 hvcurveto
            -48 -25 -28 -33 -22 hhcurveto
            return
          </CharString>
          <CharString index="183">
            -28 -48 -39 -25 -26 26 -25 37 5 return
          </CharString>
          <CharString index="184">
            -15 -86 callsubr
            148 -105 callsubr
          </CharString>
          <CharString index="185">
            147 callsubr
            -122 73 -1 -117 75 hhcurveto
            24 25 15 30 11 -6 29 -11 37 hvcurveto
            3 hlineto
            21 22 10 18 18 hvcurveto
            33 35 38 52 69 77 22 297 callgsubr
            72 -75 62 -90 -22 -22 -4 -9 -21 hvcurveto
            60 -1 -15 50 -57 hhcurveto
            259 callgsubr
          </CharString>
          <CharString index="186">
            rmoveto
            -75 -79 -96 -74 -3 hvcurveto
            -35 -2 27 -17 34 hhcurveto
            69 -16 89 29 70 hvcurveto
            -77 39 61 -54 51 hhcurveto
            53 77 94 75 3 hvcurveto
            34 2 -19 18 -25 hhcurveto
            -64 -6 -81 -19 -37 hvcurveto
            20 -44 -10 94 -106 hhcurveto
            return
          </CharString>
          <CharString index="187">
            376 rmoveto
            -27 35 -34 19 1 vhcurveto
            34 17 120 111 27 hvcurveto
            18 74 16 64 -1 53 rrcurveto
            16 -67 59 -30 -11 -10 -5 -15 vhcurveto
            3 -236 -51 -131 1 -50 rrcurveto
            485 419 rmoveto
            -20 5 -4 -12 -11 -16 -127 -185 -345 -462 -17 -69 -7 -30 30 -29 27 -5 23 -7 126 172 117 154 175 239 79 90 14 52 11 44 -47 53 -24 6 rrcurveto
            return
          </CharString>
          <CharString index="188">
            -307 273 662 rmoveto
            144 -1 -28 175 -195 hhcurveto
            -188 -235 -270 -105 -23 13 -25 21 52 27 48 47 36 hvcurveto
            62 48 107 134 106 hhcurveto
            93 21 -78 -109 hvcurveto
            -192 -68 callsubr
            186 hlineto
            -19 -194 -62 -232 -77 vvcurveto
            -31 16 -22 28 78 65 347 209 18 vhcurveto
            263 callsubr
            return
          </CharString>
          <CharString index="189">
            46 104 109 48 77 88 vhcurveto
            -9 -61 -8 -50 153 callgsubr
            return
          </CharString>
          <CharString index="190">
            rmoveto
            14 8 13 22 296 callgsubr
            return
          </CharString>
          <CharString index="191">
            -50 vvcurveto
            -18 25 -14 18 62 125 return
          </CharString>
          <CharString index="192">
            -123 124 -131 187 callsubr
            return
          </CharString>
          <CharString index="193">
            rmoveto
            93 96 139 105 51 -40 72 -68 -31 -49 -58 -22 hvcurveto
            -34 71 -9 -25 -114 -104 -58 -26 vvcurveto
            -13 11 -8 21 vhcurveto
            endchar
          </CharString>
          <CharString index="194">
            -44 55 -47 20 35 36 209 155 36 vhcurveto
            23 101 37 192 39 vvcurveto
            23 -62 61 -37 -14 -10 -8 -22 -3 vhcurveto
            -17 -115 -25 -163 -17 -104 rrcurveto
            -17 -105 -40 -149 -23 vvcurveto
            return
          </CharString>
          <CharString index="195">
            vhcurveto
            28 26 -2 22 hhcurveto
            19 16 2 6 13 hvcurveto
            29 14 10 54 57 vvcurveto
            18 -3 18 -5 17 vhcurveto
            return
          </CharString>
          <CharString index="196">
            182 callsubr
            9 1 9 9 vvcurveto
            67 24 52 17 37 vhcurveto
            return
          </CharString>
          <CharString index="197">
            hlineto
            -38 7 54 -57 34 36 14 52 43 hhcurveto
            22 8 -9 -21 return
          </CharString>
          <CharString index="198">
            299 callgsubr
            -39 -16 -33 -25 -30 hvcurveto
            -33 20 -21 32 43 30 callgsubr
            223 192 callsubr
            46 hlineto
            -8 -32 -6 -31 -7 -32 -67 -30 -73 -22 -57 -1 rrcurveto
            26 40 17 45 53 vvcurveto
            67 -38 86 -98 299 callsubr
            return
          </CharString>
          <CharString index="199">
            210 309 rmoveto
            94 callgsubr
            171 callsubr
            hvcurveto
            76 219 rmoveto
            -120 -151 -192 -142 -95 64 -87 132 101 103 57 52 16 -10 11 -31 hvcurveto
            -28 -30 -28 -126 hhcurveto
            -51 -3 17 36 15 3 18 6 18 hvcurveto
            -6 27 36 -4 44 hhcurveto
            118 callgsubr
            hvcurveto
            return
          </CharString>
          <CharString index="200">
            482 rmoveto
            -206 -35 -122 -124 -111 hhcurveto
            -16 -4 14 22 53 30 151 63 hvcurveto
            43 -1 -47 30 hhcurveto
            18 11 27 33 55 -26 52 -56 -39 -35 -13 -21 -29 hvcurveto
            -48 -32 -86 -55 -90 -53 17 77 17 92 4 47 rrcurveto
            476 hlineto
            -649 -291 rmoveto
            -43 -83 -73 -31 -38 -21 callsubr
            41 18 -56 -37 16 hvcurveto
            return
          </CharString>
          <CharString index="201">
            26 40 56 callsubr
            return
          </CharString>
          <CharString index="202">
            -106 callgsubr
            112 -95 callsubr
            return
          </CharString>
          <CharString index="203">
            -351 21 callgsubr
            return
          </CharString>
          <CharString index="204">
            99 360 373 60 callgsubr
            5 18 vvcurveto
            31 99 41 44 vhcurveto
            29 3 -12 21 hhcurveto
            11 4 6 15 8 -4 11 -6 11 hvcurveto
            105 hlineto
            -8 -56 -8 -52 -8 -53 rrcurveto
            -77 -56 -142 -94 -74 hhcurveto
            -3 -4 0 2 11 47 38 53 36 hvcurveto
            31 22 13 14 1 26 rrcurveto
            return
          </CharString>
          <CharString index="205">
            rmoveto
            -44 -20 -72 -70 -77 15 115 -37 hhcurveto
            -23 -46 -23 -56 -60 59 -75 96 82 96 79 60 18 -12 14 -19 hvcurveto
            endchar
          </CharString>
          <CharString index="206">
            228 callsubr
            -106 -197 -97 -41 311 callsubr
            171 248 92 98 30 -19 18 -26 -68 -22 -94 -38 -223 vhcurveto
            86 60 77 110 87 vvcurveto
            19 -2 17 -4 15 294 callgsubr
          </CharString>
          <CharString index="207">
            rmoveto
            28 15 5 53 -31 38 -23 28 -24 9 -31 -27 -106 -88 rcurveline
            220 callgsubr
            rrcurveto
            return
          </CharString>
          <CharString index="208">
            86 -78 callgsubr
            return
          </CharString>
          <CharString index="209">
            -106 callgsubr
            110 -99 callgsubr
            return
          </CharString>
          <CharString index="210">
            -42 callgsubr
            143 324 callsubr
            39 63 55 25 29 hhcurveto
            return
          </CharString>
          <CharString index="211">
            26 callsubr
            -115 -198 -191 -123 return
          </CharString>
          <CharString index="212">
            281 callgsubr
            -122 39 -98 86 return
          </CharString>
          <CharString index="213">
            vvcurveto
            -108 35 -113 86 return
          </CharString>
          <CharString index="214">
            282 callgsubr
            43 28 97 102 24 vhcurveto
            49 26 49 29 45 28 rrcurveto
            -5 -26 -3 -26 -24 vvcurveto
            -90 26 -73 80 85 88 48 72 68 vhcurveto
            -9 -36 -6 -27 -11 vvcurveto
            -44 47 -47 20 35 24 -103 callgsubr
            116 -105 callsubr
          </CharString>
          <CharString index="215">
            -5 callgsubr
            -100 -113 -71 -107 hvcurveto
            -29 -49 44 -28 hhcurveto
            -17 -14 -27 -35 -8 2 -9 4 -8 hvcurveto
            16 -43 51 -75 55 -69 rrcurveto
            -100 80 23 -37 39 hhcurveto
            28 13 11 24 28 -41 54 -55 78 hvcurveto
            -12 17 -13 20 -15 21 return
          </CharString>
          <CharString index="216">
            -35 callgsubr
            66 48 -8 -8 36 vhcurveto
            -6 -29 -3 -28 -26 vvcurveto
            -90 26 -73 172 callsubr
            vhcurveto
            -94 callsubr
          </CharString>
          <CharString index="217">
            -106 callgsubr
            109 -5 callgsubr
            return
          </CharString>
          <CharString index="218">
            -2 -13 -2 -15 -3 -15 -2 -10 -2 -7 -3 -7 return
          </CharString>
          <CharString index="219">
            vvcurveto
            -52 33 -21 25 52 14 144 return
          </CharString>
          <CharString index="220">
            114 callgsubr
            77 43 return
          </CharString>
          <CharString index="221">
            -78 callgsubr
            -39 -26 -37 -33 -34 hvcurveto
            2 vlineto
            23 -4 28 -18 vhcurveto
            175 callsubr
            return
          </CharString>
          <CharString index="222">
            hlineto
            -4 -28 rlineto
            -172 -33 -87 -115 -130 hhcurveto
            -19 -6 5 9 35 93 63 58 22 hvcurveto
            9 4 6 6 13 223 callsubr
            -39 -34 -23 -39 -37 vvcurveto
            -67 46 -49 82 85 70 30 47 56 vhcurveto
            -9 return
          </CharString>
          <CharString index="223">
            83 callsubr
            -4 return
          </CharString>
          <CharString index="224">
            92 -76 callsubr
            return
          </CharString>
          <CharString index="225">
            -25 44 56 -10 81 hhcurveto
            140 144 50 91 55 -91 101 -65 -68 -93 -94 -85 -49 hvcurveto
            78 callgsubr
          </CharString>
          <CharString index="226">
            255 165 -77 callsubr
            return
          </CharString>
          <CharString index="227">
            rmoveto
            27 6 29 10 27 vhcurveto
            1 2 1 3 1 3 rrcurveto
            46 19 29 37 24 hhcurveto
            31 26 -57 -100 22 hvcurveto
            -43 -49 -64 -32 -38 hhcurveto
            -14 -5 34 24 hvcurveto
            return
          </CharString>
          <CharString index="228">
            -5 -4 callgsubr
          </CharString>
          <CharString index="229">
            295 callgsubr
            vhcurveto
            203 callsubr
            rrcurveto
            -132 -11 -122 -19 -81 84 callgsubr
            return
          </CharString>
          <CharString index="230">
            81 44 104 119 22 return
          </CharString>
          <CharString index="231">
            90 callsubr
            -60 return
          </CharString>
          <CharString index="232">
            289 callgsubr
            -58 -51 hvcurveto
            return
          </CharString>
          <CharString index="233">
            -1 -20 hhcurveto
            -48 -42 11 25 62 117 139 50 hvcurveto
            52 2 -47 26 hhcurveto
            return
          </CharString>
          <CharString index="234">
            vvcurveto
            -56 3 -41 28 47 24 92 114 29 vhcurveto
            23 91 38 104 42 vvcurveto
            1 vlineto
            1 vlineto
            24 -16 16 -36 vhcurveto
            -39 -13 -24 -82 hhcurveto
            -66 -42 24 35 61 109 114 59 89 callsubr
            return
          </CharString>
          <CharString index="235">
            -106 callgsubr
            102 254 callgsubr
            return
          </CharString>
          <CharString index="236">
            rmoveto
            -9 -65 -10 -59 -9 -61 rrcurveto
            -30 -62 -60 -25 -24 hhcurveto
            -8 -3 16 26 54 16 85 27 59 hvcurveto
            return
          </CharString>
          <CharString index="237">
            459 -106 callgsubr
            return
          </CharString>
          <CharString index="238">
            -106 callgsubr
            18 hlineto
            return
          </CharString>
          <CharString index="239">
            vvcurveto
            -35 31 -27 39 -19 vhcurveto
            -93 -28 -85 -47 -53 vvcurveto
            -37 42 -50 30 -11 vhcurveto
            -14 39 40 -3 55 hhcurveto
            106 75 40 31 15 -12 10 -31 hvcurveto
            -43 -39 -6 -46 hhcurveto
            -60 -42 3 15 14 56 25 88 26 hvcurveto
            80 24 55 7 25 vvcurveto
            1 vlineto
            1 vlineto
            68 -177 -3 30 vvcurveto
            return
          </CharString>
          <CharString index="240">
            164 9 callgsubr
            return
          </CharString>
          <CharString index="241">
            vvcurveto
            -166 145 -99 202 74 68 20 45 21 -33 4 -59 -143 -129 45 138 return
          </CharString>
          <CharString index="242">
            rmoveto
            105 callsubr
            return
          </CharString>
          <CharString index="243">
            -39 68 -69 43 23 31 31 20 33 -53 108 -36 -35 -41 -49 -35 vhcurveto
            return
          </CharString>
          <CharString index="244">
            -91 64 90 -66 98 hhcurveto
            return
          </CharString>
          <CharString index="245">
            78 73 36 43 55 return
          </CharString>
          <CharString index="246">
            rmoveto
            296 callgsubr
            -4 -13 hvcurveto
            -50 21 -13 34 23 vvcurveto
            14 8 13 22 vhcurveto
            249 60 198 callsubr
            return
          </CharString>
          <CharString index="247">
            0 8 142 callsubr
            return
          </CharString>
          <CharString index="248">
            -33 rrcurveto
            1 8 0 7 8 -102 callsubr
            return
          </CharString>
          <CharString index="249">
            8 66 callgsubr
            48 37 38 83 vhcurveto
            return
          </CharString>
          <CharString index="250">
            rmoveto
            -12 -5 4 10 33 84 117 34 24 29 -29 -28 25 hvcurveto
            -53 -66 -73 -54 -40 hhcurveto
            return
          </CharString>
          <CharString index="251">
            vvcurveto
            111 -43 89 -92 return
          </CharString>
          <CharString index="252">
            -80 491 407 -59 callgsubr
            return
          </CharString>
          <CharString index="253">
            -4 hlineto
            -39 -2 -80 -5 -77 vhcurveto
            -117 -11 -82 -32 -82 114 callgsubr
            75 43 97 113 23 vhcurveto
            1 22 22 0 22 return
          </CharString>
          <CharString index="254">
            rmoveto
            53 callsubr
            return
          </CharString>
          <CharString index="255">
            hlineto
            5 -20 6 -24 3 -34 rrcurveto
            3 -20 -22 1 -20 hhcurveto
            -122 -88 return
          </CharString>
          <CharString index="256">
            19 80 19 100 4 50 rrcurveto
            return
          </CharString>
          <CharString index="257">
            346 155 callgsubr
            return
          </CharString>
          <CharString index="258">
            rmoveto
            -54 -55 -86 -154 hhcurveto
            -20 -5 3 15 33 56 49 -23 callgsubr
            return
          </CharString>
          <CharString index="259">
            -49 -20 -22 -30 -30 20 -26 49 hvcurveto
            189 hlineto
            -97 -33 -88 -83 -87 vvcurveto
            -44 31 -26 41 -11 vhcurveto
            298 callsubr
            return
          </CharString>
          <CharString index="260">
            vvcurveto
            -29 70 -81 22 157 338 227 118 208 -320 181 -209 return
          </CharString>
          <CharString index="261">
            141 callgsubr
            30 return
          </CharString>
          <CharString index="262">
            -5 hlineto
            -58 -125 -3 -38 37 callgsubr
            21 26 1 1 29 152 callgsubr
            return
          </CharString>
          <CharString index="263">
            554 rmoveto
            10 callgsubr
            return
          </CharString>
          <CharString index="264">
            20 17 22 18 return
          </CharString>
          <CharString index="265">
            rmoveto
            233 callsubr
            hvcurveto
            37 -140 106 91 vvcurveto
            38 -77 65 -66 vhcurveto
            return
          </CharString>
          <CharString index="266">
            236 callsubr
            -841 96 callsubr
            return
          </CharString>
          <CharString index="267">
            -31 -23 -15 -26 -40 89 -10 123 -37 return
          </CharString>
          <CharString index="268">
            62 44 42 35 32 -18 20 -24 hvcurveto
            -75 callgsubr
            return
          </CharString>
          <CharString index="269">
            -208 4 callsubr
            return
          </CharString>
          <CharString index="270">
            hhcurveto
            -60 -27 -43 -49 -71 46 -93 76 49 51 51 44 28 hvcurveto
            return
          </CharString>
          <CharString index="271">
            -112 -89 -68 -93 -92 86 -62 119 9 8 0 1 8 return
          </CharString>
          <CharString index="272">
            237 callsubr
            37 20 rlinecurve
            return
          </CharString>
          <CharString index="273">
            162 564 441 rmoveto
            -49 -6 -82 -14 -60 -9 -9 -1 rcurveline
            4 47 2 46 39 4 0 3 4 vvcurveto
            211 hlineto
            -380 -348 rmoveto
            -16 -28 36 23 10 31 9 46 8 hvcurveto
            -50 -8 -10 -36 -15 hhcurveto
            return
          </CharString>
          <CharString index="274">
            22 -21 11 -50 6 vhcurveto
            -36 5 -49 3 -52 1 rrcurveto
            3 42 1 32 19 vvcurveto
            54 -74 71 -28 -22 -7 -11 -19 -59 -4 -64 -5 -65 vhcurveto
            -105 -4 -89 -13 -26 vvcurveto
            -26 30 -60 27 46 36 6 6 43 vhcurveto
            return
          </CharString>
          <CharString index="275">
            -106 callgsubr
            729 -33 callsubr
            return
          </CharString>
          <CharString index="276">
            hhcurveto
            25 11 -18 -27 hvcurveto
            -107 -177 -95 -33 vvcurveto
            -53 51 -51 82 callsubr
            return
          </CharString>
          <CharString index="277">
            501 -106 callgsubr
            return
          </CharString>
          <CharString index="278">
            18 37 -35 -13 -39 -71 -9 -66 return
          </CharString>
          <CharString index="279">
            80 138 callsubr
            return
          </CharString>
          <CharString index="280">
            -28 callsubr
            endchar
          </CharString>
          <CharString index="281">
            138 -76 callsubr
            return
          </CharString>
          <CharString index="282">
            -38 -99 -90 -174 -35 -7 3 -22 hhcurveto
            -20 -7 -9 -20 -19 11 -18 18 -14 hvcurveto
            -61 -10 -78 -52 -84 hhcurveto
            -24 -6 4 26 72 37 86 81 32 hvcurveto
            23 9 33 2 27 vvcurveto
            25 -57 32 -41 return
          </CharString>
          <CharString index="283">
            vvcurveto
            47 callsubr
          </CharString>
          <CharString index="284">
            rmoveto
            81 36 72 106 25 hhcurveto
            22 3 -59 -75 -18 0 -18 -1 -17 hvcurveto
            return
          </CharString>
          <CharString index="285">
            34 vvcurveto
            1 vlineto
            1 vlineto
            22 -8 18 -34 vhcurveto
            -39 -13 -24 -82 hhcurveto
            -66 return
          </CharString>
          <CharString index="286">
            370 rmoveto
            12 2 -10 -20 -45 -36 -42 -51 -34 hvcurveto
            85 22 25 66 26 hhcurveto
            -269 -606 rmoveto
            -13 -43 -33 -5 -39 hhcurveto
            -44 -51 4 28 30 70 48 41 38 35 -33 -54 27 hvcurveto
            return
          </CharString>
          <CharString index="287">
            75 callsubr
            139 324 -62 callsubr
            return
          </CharString>
          <CharString index="288">
            206 -71 callsubr
            return
          </CharString>
          <CharString index="289">
            254 callsubr
            27 22 28 4 hvcurveto
            1 return
          </CharString>
          <CharString index="290">
            10 50 8 45 3 28 rrcurveto
            return
          </CharString>
          <CharString index="291">
            rmoveto
            1 vlineto
            0 vlineto
            2 vlineto
            -7 46 -146 -12 43 vvcurveto
            23 58 23 48 vhcurveto
            21 7 -10 15 hhcurveto
            8 9 11 15 5 hvcurveto
            13 27 7 46 21 vvcurveto
            9 -1 8 -2 7 vhcurveto
            return
          </CharString>
          <CharString index="292">
            99 20 78 18 33 vvcurveto
            21 -22 13 -53 -24 -25 -1 -1 -24 vhcurveto
            return
          </CharString>
          <CharString index="293">
            rmoveto
            252 callgsubr
            -100 80 -67 97 27 22 12 15 hvcurveto
            40 -112 -1 83 vvcurveto
            endchar
          </CharString>
          <CharString index="294">
            81 167 callgsubr
            return
          </CharString>
          <CharString index="295">
            -107 callsubr
            92 hlineto
            -46 -35 -36 -43 -38 89 callgsubr
            return
          </CharString>
          <CharString index="296">
            vvcurveto
            -78 73 -48 130 318 callsubr
            vhcurveto
            11 33 9 37 1 25 rrcurveto
            219 -105 callsubr
          </CharString>
          <CharString index="297">
            315 callsubr
            -21 -231 -59 -183 -89 vvcurveto
            -26 11 -27 26 75 44 242 187 30 vhcurveto
            6 37 5 44 5 46 rrcurveto
            return
          </CharString>
          <CharString index="298">
            -2 15 16 -1 17 hhcurveto
            2 hlineto
            -8 -27 -5 -27 -2 -28 rrcurveto
            return
          </CharString>
          <CharString index="299">
            538 -106 callgsubr
            return
          </CharString>
          <CharString index="300">
            165 -106 callgsubr
            return
          </CharString>
          <CharString index="301">
            59 38 21 26 18 -32 8 -33 6 return
          </CharString>
          <CharString index="302">
            -106 callgsubr
            362 -66 callgsubr
            35 return
          </CharString>
          <CharString index="303">
            6 -71 72 callsubr
            return
          </CharString>
          <CharString index="304">
            -106 callgsubr
            362 277 callgsubr
            -174 -98 -51 68 -58 48 return
          </CharString>
          <CharString index="305">
            34 callgsubr
            -42 return
          </CharString>
          <CharString index="306">
            vhcurveto
            126 -105 callsubr
          </CharString>
          <CharString index="307">
            -107 callsubr
            337 -20 callsubr
            return
          </CharString>
          <CharString index="308">
            84 callgsubr
            1 hlineto
            return
          </CharString>
          <CharString index="309">
            26 37 10 13 78 hvcurveto
            return
          </CharString>
          <CharString index="310">
            -5 -24 -6 -24 -7 -23 return
          </CharString>
          <CharString index="311">
            0 259 -56 rmoveto
            -30 25 -28 25 -25 26 rrcurveto
            6 16 17 4 14 hhcurveto
            2 hlineto
            191 callsubr
            return
          </CharString>
          <CharString index="312">
            hmoveto
            -85 callgsubr
            return
          </CharString>
          <CharString index="313">
            -143 -81 -168 -116 -90 26 -73 80 return
          </CharString>
          <CharString index="314">
            hhcurveto
            -37 callsubr
            hvcurveto
            243 callsubr
            return
          </CharString>
          <CharString index="315">
            138 rmoveto
            -13 -2 2 11 52 114 198 88 12 5 -20 -37 2 hvcurveto
            -10 -1 -6 -4 -1 -9 rrcurveto
            -125 -24 -126 -67 -39 hhcurveto
            return
          </CharString>
          <CharString index="316">
            vvcurveto
            -52 33 -21 25 54 13 -14 callsubr
          </CharString>
          <CharString index="317">
            -2 vlineto
            -1 vlineto
            return
          </CharString>
          <CharString index="318">
            vvcurveto
            -97 121 -128 323 callgsubr
            77 -131 15 89 vvcurveto
            return
          </CharString>
          <CharString index="319">
            -86 -64 -96 -83 -64 38 -55 94 12 12 1 1 14 return
          </CharString>
          <CharString index="320">
            195 callgsubr
            hvcurveto
            -48 68 -122 -180 hhcurveto
            -111 -24 46 46 hvcurveto
            10 3 1 11 vvcurveto
            22 -48 31 -25 return
          </CharString>
          <CharString index="321">
            3 0 3 -1 return
          </CharString>
          <CharString index="322">
            rmoveto
            17 14 9 19 48 28 -35 -48 15 vhcurveto
            -92 2 -32 24 31 vvcurveto
            return
          </CharString>
          <CharString index="323">
            hlineto
            -21 -55 -13 -71 -70 vvcurveto
            -93 23 -80 58 50 67 24 27 65 vhcurveto
            return
          </CharString>
          <CharString index="324">
            hlineto
            203 callgsubr
            return
          </CharString>
          <CharString index="325">
            hhcurveto
            -142 -171 -46 -99 -83 133 -109 77 98 32 96 87 18 -1 15 -2 14 hvcurveto
            -2 49 61 -4 42 hhcurveto
            10 return
          </CharString>
          <CharString index="326">
            -106 callgsubr
            96 hlineto
            return
          </CharString>
          <CharString index="327">
            -78 -67 -59 -71 return
          </CharString>
          <CharString index="328">
            13 callsubr
            -136 hmoveto
            return
          </CharString>
          <CharString index="329">
            232 callsubr
            -62 -57 return
          </CharString>
          <CharString index="330">
            vvcurveto
            40 -36 32 -70 vhcurveto
            -49 -40 76 callgsubr
            32 36 2 2 37 hvcurveto
            return
          </CharString>
          <CharString index="331">
            vvcurveto
            -80 113 -73 79 57 36 51 74 33 -3 26 -4 22 vhcurveto
            return
          </CharString>
          <CharString index="332">
            510 rmoveto
            32 37 16 34 37 38 -25 -56 -6 0 -6 -1 -5 vhcurveto
            -2 -19 -22 -3 -24 hhcurveto
            -45 -35 19 36 hvcurveto
            return
          </CharString>
          <CharString index="333">
            -68 callsubr
            endchar
          </CharString>
          <CharString index="334">
            -72 -105 -104 -83 50 callsubr
            return
          </CharString>
          <CharString index="335">
            -106 callgsubr
            87 -78 callgsubr
            hvcurveto
            return
          </CharString>
          <CharString index="336">
            -107 173 114 rmoveto
            -20 -11 53 31 98 90 76 34 13 12 -8 -10 10 hvcurveto
            -141 -7 -88 -99 -33 hhcurveto
            return
          </CharString>
          <CharString index="337">
            -9 callgsubr
            -97 80 -52 120 hvcurveto
            return
          </CharString>
          <CharString index="338">
            -75 callsubr
            200 callgsubr
            return
          </CharString>
          <CharString index="339">
            -106 callgsubr
            402 90 callsubr
            return
          </CharString>
          <CharString index="340">
            -13 -11 -2 -15 -109 184 -249 66 25 32 13 25 return
          </CharString>
          <CharString index="341">
            vvcurveto
            -51 0 -62 31 40 8 58 36 4 vhcurveto
            return
          </CharString>
          <CharString index="342">
            9 42 5 41 39 144 callsubr
            return
          </CharString>
          <CharString index="343">
            vvcurveto
            45 -13 36 -28 24 vhcurveto
            return
          </CharString>
          <CharString index="344">
            -12 16 43 5 42 15 return
          </CharString>
          <CharString index="345">
            554 129 callsubr
            return
          </CharString>
          <CharString index="346">
            243 rmoveto
            290 callgsubr
            40 3 45 8 47 hvcurveto
            31 -59 40 -64 34 -49 rrcurveto
            -38 -33 -33 -25 -26 hhcurveto
            return
          </CharString>
          <CharString index="347">
            -90 -179 -207 -118 -44 vvcurveto
            -19 20 -10 19 116 263 309 121 33 -25 11 -34 return
          </CharString>
          <CharString index="348">
            -3 callsubr
            -46 return
          </CharString>
          <CharString index="349">
            334 541 rmoveto
            31 27 25 38 31 12 -19 -22 -32 -23 -33 -34 -30 vhcurveto
            -33 22 -18 27 31 vvcurveto
            return
          </CharString>
          <CharString index="350">
            -12 -74 -10 -64 -9 callsubr
            return
          </CharString>
          <CharString index="351">
            280 callgsubr
            -48 -33 21 28 -27 hvcurveto
            120 39 70 103 90 vvcurveto
            23 -3 22 -6 20 vhcurveto
            return
          </CharString>
          <CharString index="352">
            -27 hhcurveto
            -32 -13 return
          </CharString>
          <CharString index="353">
            -85 callgsubr
            202 514 rmoveto
            -11 return
          </CharString>
          <CharString index="354">
            662 144 callgsubr
            return
          </CharString>
          <CharString index="355">
            vvcurveto
            -166 150 -119 217 89 53 29 36 23 -50 1 -90 -117 -127 62 142 return
          </CharString>
          <CharString index="356">
            81 -134 3 97 vvcurveto
            37 35 26 87 return
          </CharString>
          <CharString index="357">
            13 rmoveto
            -27 -55 30 27 27 44 9 58 3 hvcurveto
            2 -20 4 -18 -20 vvcurveto
            -26 -7 -12 -19 vhcurveto
            return
          </CharString>
          <CharString index="358">
            -160 rmoveto
            -18 -16 26 19 19 25 2 30 13 14 -1 -3 17 hvcurveto
            -38 -19 -23 -24 -23 hhcurveto
            return
          </CharString>
          <CharString index="359">
            -106 callgsubr
            100 217 callsubr
            -122 32 -98 86 return
          </CharString>
          <CharString index="360">
            -69 75 44 44 37 23 hvcurveto
            38 -88 19 43 63 81 59 38 vvcurveto
            22 -16 12 -23 vhcurveto
            endchar
          </CharString>
          <CharString index="361">
            hvcurveto
            47 11 -67 26 hhcurveto
            27 return
          </CharString>
          <CharString index="362">
            329 -62 callsubr
            return
          </CharString>
          <CharString index="363">
            rmoveto
            4 -20 4 -25 -28 vvcurveto
            -93 -71 -133 -61 -25 -10 43 51 106 46 57 7 42 vhcurveto
            return
          </CharString>
          <CharString index="364">
            rmoveto
            -27 -45 33 19 33 39 14 53 5 hvcurveto
            3 -15 3 -12 -19 vvcurveto
            -33 -7 -25 -19 vhcurveto
            return
          </CharString>
          <CharString index="365">
            106 279 callsubr
            -37 27 22 14 32 14 47 15 vhcurveto
            2 -17 2 -21 -15 vvcurveto
            return
          </CharString>
          <CharString index="366">
            33 -24 63 -28 return
          </CharString>
          <CharString index="367">
            hlineto
            -6 -26 -5 -26 -5 -26 -122 -9 -145 -6 -96 -10 rrcurveto
            -4 -3 -1 -3 hhcurveto
            return
          </CharString>
          <CharString index="368">
            rmoveto
            -44 -22 9 26 33 51 56 37 39 29 -47 -51 17 hvcurveto
            -14 -30 -39 -12 -38 hhcurveto
            return
          </CharString>
          <CharString index="369">
            316 -106 callgsubr
            return
          </CharString>
          <CharString index="370">
            109 -107 callgsubr
            return
          </CharString>
          <CharString index="371">
            rmoveto
            -4 vlineto
            166 callgsubr
            return
          </CharString>
          <CharString index="372">
            147 callgsubr
            110 hlineto
            return
          </CharString>
          <CharString index="373">
            -46 -56 -39 -37 -18 8 -14 14 hvcurveto
            16 21 12 13 hhcurveto
            22 18 -16 -11 10 hvcurveto
            return
          </CharString>
          <CharString index="374">
            203 rmoveto
            15 21 -13 -10 -31 -55 -14 -66 -4 hvcurveto
            42 31 31 30 23 hhcurveto
            return
          </CharString>
          <CharString index="375">
            442 -1 callsubr
            return
          </CharString>
          <CharString index="376">
            vvcurveto
            313 callgsubr
            48 59 9 18 61 vhcurveto
            return
          </CharString>
          <CharString index="377">
            rmoveto
            7 67 3 67 49 4 0 3 4 vvcurveto
            return
          </CharString>
          <CharString index="378">
            vvcurveto
            -80 107 -59 79 57 36 51 74 24 -1 return
          </CharString>
          <CharString index="379">
            27 vvcurveto
            25 -57 32 -41 -106 return
          </CharString>
          <CharString index="380">
            vvcurveto
            41 -30 37 -42 -57 -40 return
          </CharString>
          <CharString index="381">
            hlineto
            -12 -84 -12 -75 -12 -82 return
          </CharString>
          <CharString index="382">
            -68 callsubr
            362 hlineto
            -7 -50 -8 -58 -8 return
          </CharString>
          <CharString index="383">
            rmoveto
            31 -33 70 -27 -19 -22 -28 -26 -27 48 -50 30 14 9 13 17 vhcurveto
            return
          </CharString>
          <CharString index="384">
            42 callgsubr
            -97 return
          </CharString>
          <CharString index="385">
            rmoveto
            -19 -22 -28 -26 -26 48 -50 29 14 9 13 17 30 -33 70 -26 hvcurveto
            return
          </CharString>
          <CharString index="386">
            rmoveto
            -25 -3 -14 -17 -26 return
          </CharString>
          <CharString index="387" raw="1">
            98bf92c1 bff7240a f79d1d1e 0b
          </CharString>
          <CharString index="388">
            hhcurveto
            123 callgsubr
            hvcurveto
            -4 6 -5 5 -4 5 return
          </CharString>
          <CharString index="389">
            -25 hhcurveto
            -22 -9 -9 -18 -33 31 -54 45 return
          </CharString>
          <CharString index="390">
            3 -16 hhcurveto
            -114 -153 -201 -106 return
          </CharString>
          <CharString index="391">
            vvcurveto
            -40 60 -65 57 88 120 30 45 return
          </CharString>
          <CharString index="392">
            -30 -38 33 -39 hhcurveto
            return
          </CharString>
          <CharString index="393">
            40 -44 91 -34 return
          </CharString>
          <CharString index="394">
            -78 callgsubr
            -42 return
          </CharString>
          <CharString index="395">
            -2 -13 -17 -52 -26 -54 -30 -49 rlinecurve
            -28 51 -29 62 -23 55 rrcurveto
            return
          </CharString>
          <CharString index="396">
            -8 -52 rrcurveto
            42 return
          </CharString>
          <CharString index="397">
            8 -27 310 callgsubr
            return
          </CharString>
          <CharString index="398">
            -14 -14 0 -14 hhcurveto
            5 54 2 52 42 4 0 3 4 vvcurveto
            return
          </CharString>
          <CharString index="399">
            62 125 149 90 63 -65 79 -67 -36 -50 -26 -27 -39 return
          </CharString>
          <CharString index="400">
            -91 -59 56 105 183 154 107 125 84 61 -72 -103 return
          </CharString>
          <CharString index="401">
            312 callsubr
            39 89 90 64 90 return
          </CharString>
          <CharString index="402">
            15 5 -12 -17 -31 -24 -31 -36 -31 return
          </CharString>
          <CharString index="403">
            55 rmoveto
            -99 callsubr
            -30 return
          </CharString>
          <CharString index="404">
            9 -70 51 -49 63 -18 return
          </CharString>
          <CharString index="405">
            -54 -53 -43 -67 -51 vvcurveto
            return
          </CharString>
          <CharString index="406">
            -121 -86 -84 -99 return
          </CharString>
          <CharString index="407">
            -13 271 callgsubr
            58 29 return
          </CharString>
          <CharString index="408">
            hlineto
            6 -21 6 -28 3 -38 rrcurveto
            2 -22 -24 0 -23 hhcurveto
            return
          </CharString>
          <CharString index="409">
            -37 23 -39 -18 -54 -209 -42 -36 vvcurveto
            -17 17 -9 31 return
          </CharString>
          <CharString index="410">
            hlineto
            307 callsubr
            return
          </CharString>
          <CharString index="411">
            rmoveto
            -99 callsubr
            hvcurveto
            -1 vlineto
            49 -19 -44 39 -68 hhcurveto
            return
          </CharString>
          <CharString index="412">
            263 callsubr
            endchar
          </CharString>
          <CharString index="413">
            53 -76 callsubr
            return
          </CharString>
          <CharString index="414">
            -7 -49 -8 -57 289 callsubr
            -19 -32 34 -55 hhcurveto
            return
          </CharString>
          <CharString index="415">
            -68 callsubr
            337 hlineto
            return
          </CharString>
          <CharString index="416">
            77 23 -42 28 hhcurveto
            10 9 9 12 66 -65 68 -100 return
          </CharString>
          <CharString index="417">
            33 32 4 8 29 vhcurveto
            -16 -58 -16 -47 -29 vvcurveto
            -26 return
          </CharString>
          <CharString index="418">
            vvcurveto
            184 callgsubr
            return
          </CharString>
          <CharString index="419">
            -20 13 -12 20 return
          </CharString>
          <CharString index="420">
            rmoveto
            -94 -48 -186 -40 vvcurveto
            -25 63 -70 29 32 return
          </CharString>
          <CharString index="421">
            -14 -21 -42 -30 -35 53 -80 26 17 10 15 19 return
          </CharString>
          <CharString index="422">
            -107 callsubr
            318 hlineto
            return
          </CharString>
          <CharString index="423">
            21 17 21 30 36 48 -40 -22 -18 -27 -9 -30 return
          </CharString>
          <CharString index="424">
            117 -107 callgsubr
            return
          </CharString>
          <CharString index="425">
            129 189 71 139 71 -35 78 -59 41 return
          </CharString>
          <CharString index="426">
            326 -106 callgsubr
            return
          </CharString>
          <CharString index="427">
            427 -106 callgsubr
            return
          </CharString>
          <CharString index="428">
            753 -106 callgsubr
            return
          </CharString>
          <CharString index="429">
            81 213 callgsubr
            return
          </CharString>
          <CharString index="430">
            2 callgsubr
            41 return
          </CharString>
          <CharString index="431">
            148 31 vhcurveto
            return
          </CharString>
          <CharString index="432">
            -7 6 11 33 return
          </CharString>
          <CharString index="433">
            37 -18 hhcurveto
            -11 -8 -6 -23 -65 79 -57 56 return
          </CharString>
          <CharString index="434">
            55 hvcurveto
            36 17 12 21 vvcurveto
            18 -43 51 -29 return
          </CharString>
          <CharString index="435">
            87 -106 callgsubr
            return
          </CharString>
          <CharString index="436">
            135 147 86 94 46 -28 27 -33 15 return
          </CharString>
          <CharString index="437">
            rmoveto
            -25 -38 -26 -21 -17 9 -8 19 -6 hvcurveto
            return
          </CharString>
          <CharString index="438">
            9 -41 hhcurveto
            -86 -40 -35 -51 return
          </CharString>
          <CharString index="439">
            hlineto
            -99 -34 -90 -89 -89 vvcurveto
            return
          </CharString>
          <CharString index="440">
            554 rmoveto
            -3 return
          </CharString>
          <CharString index="441">
            -30 -34 -48 -19 -48 -82 -8 71 -52 hhcurveto
            return
          </CharString>
          <CharString index="442">
            4 19 2 21 19 vvcurveto
            78 -48 70 -81 return
          </CharString>
        <CharString name=".notdef">
          191 180 hmoveto
          390 701 -390 hlineto
          54 -50 rmoveto
          282 -601 -282 hlineto
          endchar
        </CharString>
        <CharString name="A">
          71 281 381 -88 callgsubr
        </CharString>
        <CharString name="AE">
          340 446 424 rmoveto
          -49 -5 -52 -8 -46 -8 31 74 39 82 24 25 10 11 17 5 62 5 -6 -58 -14 -62 -16 -61 rrcurveto
          220 189 rmoveto
          202 7 62 9 8 33 rrcurveto
          37 9 -100 37 -237 hhcurveto
          -237 -67 -11 -53 -39 hvcurveto
          -39 -53 -55 -156 -23 -62 rrcurveto
          -39 -106 -77 -169 -27 vvcurveto
          -39 59 -45 25 26 51 122 134 52 vhcurveto
          43 5 65 11 57 10 rrcurveto
          -18 -66 -14 -58 -42 vvcurveto
          -56 59 -55 61 156 187 70 74 16 -6 11 -13 vhcurveto
          -23 -116 -41 -143 hhcurveto
          -10 325 callsubr
          19 56 21 66 hvcurveto
          136 19 117 8 47 vvcurveto
          40 -73 6 -89 -1 vhcurveto
          -13 -20 -1 -1 -24 hvcurveto
          13 51 9 54 50 vvcurveto
          6 -1 5 -3 6 vhcurveto
          endchar
        </CharString>
        <CharString name="Aacute">
          72 541 882 100 callsubr
          -152 -446 -88 callgsubr
        </CharString>
        <CharString name="Abreve">
          72 376 788 rmoveto
          82 96 79 60 18 -12 14 -19 hvcurveto
          -44 -20 -72 -70 -77 15 115 -37 hhcurveto
          -23 -46 -23 -56 -60 59 -75 96 hvcurveto
          -96 -407 -88 callgsubr
        </CharString>
        <CharString name="Acircumflex">
          72 241 806 37 callsubr
          39 -425 -88 callgsubr
        </CharString>
        <CharString name="Adieresis">
          72 475 799 rmoveto
          227 callgsubr
          -21 callgsubr
          hvcurveto
          -178 hmoveto
          227 callgsubr
          -21 callgsubr
          hvcurveto
          -17 -418 -88 callgsubr
        </CharString>
        <CharString name="Agrave">
          72 331 832 rmoveto
          1 callgsubr
          -34 -34 1 -42 26 -17 rrcurveto
          55 -518 -88 callgsubr
        </CharString>
        <CharString name="Amacron">
          72 234 808 rmoveto
          202 callsubr
          -29 callsubr
          46 -427 -88 callgsubr
        </CharString>
        <CharString name="Aogonek">
          72 280 381 rmoveto
          26 75 22 73 17 52 5 -53 7 -68 6 -68 -29 -3 -27 -4 -27 -4 rrcurveto
          210 18 rmoveto
          208 -16 -38 137 -46 hhcurveto
          -32 -100 -37 -45 -14 hvcurveto
          -36 -112 -39 -96 -23 -70 -5 -14 326 callgsubr
          rrcurveto
          -44 -17 -26 -19 -20 vvcurveto
          -23 9 -20 13 -15 vhcurveto
          -27 -59 -22 -50 -19 vvcurveto
          -45 67 -41 23 20 42 99 121 44 vhcurveto
          18 6 20 7 22 6 24 7 29 7 31 7 6 -57 5 -50 5 -31 3 -20 3 -16 3 -14 -1 -1 rcurveline
          -55 -41 -76 -87 -64 -30 callgsubr
          10 8 8 9 6 9 rrcurveto
          19 14 9 44 98 vvcurveto
          45 -1 43 -2 41 vhcurveto
          49 16 35 18 24 vvcurveto
          32 -35 2 -28 1 vhcurveto
          endchar
        </CharString>
        <CharString name="Aring">
          72 356 896 158 callgsubr
          -94 -405 -88 callgsubr
        </CharString>
        <CharString name="Atilde">
          72 216 794 rmoveto
          12 callgsubr
          154 callgsubr
          64 -413 -88 callgsubr
        </CharString>
        <CharString name="B">
          65 241 344 rmoveto
          -17 13 19 -14 13 hhcurveto
          35 118 -18 -31 -46 -157 -57 -95 -20 hvcurveto
          9 17 11 42 17 74 rrcurveto
          174 332 rmoveto
          18 16 -13 -20 -58 -81 -36 -52 -32 hvcurveto
          -14 -8 -13 -7 -11 -8 rrcurveto
          12 50 5 25 22 vvcurveto
          17 -16 26 -19 22 vhcurveto
          8 50 66 12 39 hhcurveto
          16 -225 rmoveto
          88 56 68 74 71 vvcurveto
          115 -137 40 -172 -86 -68 -23 -39 -15 22 -40 25 -23 vhcurveto
          -3 -163 -65 -168 -46 vvcurveto
          -33 46 -38 29 -12 vhcurveto
          -2 -11 -10 -1 -7 -43 -37 33 -20 hhcurveto
          -17 -11 -15 -22 -38 87 -85 53 176 244 124 129 57 -72 45 -79 19 hvcurveto
          endchar
        </CharString>
        <CharString name="C">
          58 533 609 53 callgsubr
        </CharString>
        <CharString name="CR">
          endchar
        </CharString>
        <CharString name="Cacute">
          70 574 998 -65 callsubr
          -39 -389 53 callgsubr
        </CharString>
        <CharString name="Ccaron">
          70 598 964 -28 callgsubr
          -63 -355 53 callgsubr
        </CharString>
        <CharString name="Ccedilla">
          70 559 206 rmoveto
          22 -11 17 -8 vhcurveto
          -26 -127 -85 -157 hhcurveto
          -36 -10 20 41 135 175 236 104 hvcurveto
          26 18 -8 15 hhcurveto
          6 7 5 20 52 -57 86 -37 -187 -217 -324 -192 -69 68 -92 71 -39 hvcurveto
          -18 -42 -21 -36 -3 -22 7 callsubr
          8 14 8 15 6 13 rrcurveto
          123 14 173 111 67 vvcurveto
          endchar
        </CharString>
        <CharString name="D">
          107 189 155 110 callgsubr
        </CharString>
        <CharString name="Dcaron">
          107 444 722 -16 callgsubr
          -255 -567 110 callgsubr
        </CharString>
        <CharString name="Dcroat">
          107 234 301 rmoveto
          58 9 60 9 -3 -1 48 6 21 20 -3 32 -9 38 -60 28 -73 -10 15 56 9 42 2 28 185 callgsubr
          7 18 8 33 10 31 rrcurveto
          -142 167 rmoveto
          -58 -8 1 -28 5 -34 7 -26 23 -20 37 -5 rrcurveto
          -20 -70 -15 -60 -30 153 callsubr
          -12 -8 -7 -16 -32 35 -50 49 -33 vhcurveto
          -11 -57 -19 -71 -20 -70 rrcurveto
          endchar
        </CharString>
        <CharString name="E">
          -8 349 610 -80 callgsubr
        </CharString>
        <CharString name="Eacute">
          -8 552 882 100 callsubr
          -94 -217 -80 callgsubr
        </CharString>
        <CharString name="Ecaron">
          -8 357 782 -16 callgsubr
          -8 -172 -80 callgsubr
        </CharString>
        <CharString name="Ecircumflex">
          -8 252 806 37 callsubr
          97 -196 -80 callgsubr
        </CharString>
        <CharString name="Edieresis">
          -8 486 799 rmoveto
          227 callgsubr
          -21 callgsubr
          hvcurveto
          -178 hmoveto
          227 callgsubr
          -21 callgsubr
          hvcurveto
          41 -189 -80 callgsubr
        </CharString>
        <CharString name="Edotaccent">
          -8 391 785 rmoveto
          20 25 25 17 26 -45 91 -29 -29 -33 -41 -29 -32 54 -57 37 hvcurveto
          -42 -175 -80 callgsubr
        </CharString>
        <CharString name="Egrave">
          -8 342 832 rmoveto
          1 callgsubr
          -34 -34 1 -42 26 -17 rrcurveto
          113 -289 -80 callgsubr
        </CharString>
        <CharString name="Emacron">
          -8 245 808 rmoveto
          202 callsubr
          -29 callsubr
          104 -198 -80 callgsubr
        </CharString>
        <CharString name="Eogonek">
          -8 349 610 rmoveto
          113 21 129 -7 56 vvcurveto
          40 -122 8 -94 -160 -65 -4 -39 -16 vhcurveto
          -1 -2 -1 -3 -1 -4 rrcurveto
          -1 -4 0 -6 -5 vvcurveto
          -3 0 -4 1 -3 vhcurveto
          -6 -177 -100 -231 -112 vvcurveto
          -56 59 -55 61 61 66 11 17 57 vhcurveto
          -11 -21 -7 -22 -19 -30 callgsubr
          32 25 14 33 -20 22 -10 12 -14 7 -14 2 rrcurveto
          1 -2 -3 1 -4 -23 -116 -41 -143 hhcurveto
          -10 325 callsubr
          18 55 21 65 hvcurveto
          104 4 156 31 65 vvcurveto
          14 -13 10 -17 -45 -54 -12 1 -98 vhcurveto
          14 52 10 54 51 vvcurveto
          25 7 28 7 30 6 rrcurveto
          endchar
        </CharString>
        <CharString name="Eth">
          90 277 307 rmoveto
          72 11 48 6 21 20 -3 32 rlinecurve
          -7 31 -40 24 -53 3 16 59 9 43 2 29 185 callgsubr
          7 18 8 33 10 31 rrcurveto
          -104 510 rmoveto
          -12 -8 -7 -16 -32 35 -50 49 -33 hvcurveto
          -11 -57 -19 -72 -21 -71 rrcurveto
          -6 -50 -49 -6 5 hhcurveto
          -58 -8 1 -28 5 -34 9 -34 39 -25 60 7 rrcurveto
          -19 -66 -14 -57 -29 153 callsubr
          vhcurveto
          endchar
        </CharString>
        <CharString name="Euro">
          75 598 200 rmoveto
          -33 -108 -58 -125 hhcurveto
          -54 -27 23 39 -13 hvcurveto
          138 22 221 39 47 vvcurveto
          29 -60 5 -62 -2 vhcurveto
          -64 -92 -6 -10 -86 hvcurveto
          4 13 4 14 6 14 14 1 15 2 16 1 rrcurveto
          58 3 249 23 44 vvcurveto
          24 -21 12 -48 8 vhcurveto
          4 -28 -82 4 -89 hhcurveto
          61 56 70 46 60 29 6 -49 12 hhcurveto
          19 22 33 27 31 -47 93 -47 -146 -124 -111 -136 -72 hvcurveto
          -72 -7 -54 -12 -23 vvcurveto
          -31 1 28 -66 26 6 6 0 6 hhcurveto
          -4 -13 -2 -14 -3 -13 rrcurveto
          -59 -10 -41 -11 -10 vvcurveto
          -29 30 -67 23 16 15 0 1 13 vhcurveto
          -101 15 62 -73 146 hhcurveto
          123 174 94 60 17 -10 18 -16 hvcurveto
          endchar
        </CharString>
        <CharString name="F">
          -17 145 680 rmoveto
          -1 -6 -1 -6 -7 vvcurveto
          -3 0 -3 1 -3 vhcurveto
          -8 -112 -99 -348 4 -62 rrcurveto
          -32 1 63 -85 29 hhcurveto
          18 20 116 136 34 hvcurveto
          2 9 rlineto
          78 3 203 28 76 vvcurveto
          15 -18 14 -22 -47 -54 -12 1 -80 vhcurveto
          -11 -11 0 1 -10 hvcurveto
          20 100 11 74 17 vvcurveto
          1 vlineto
          31 6 36 7 40 3 rrcurveto
          115 11 103 3 45 vvcurveto
          45 -96 22 -98 -165 -72 -5 -46 -15 vhcurveto
          endchar
        </CharString>
        <CharString name="G">
          38 413 282 19 callsubr
          endchar
        </CharString>
        <CharString name="Gbreve">
          38 413 282 19 callsubr
          295 658 98 callsubr
        </CharString>
        <CharString name="H">
          92 225 287 rmoveto
          20 5 23 6 27 5 35 7 37 6 35 6 rrcurveto
          -23 -95 -19 -79 -21 vvcurveto
          -54 62 -60 29 18 13 90 126 34 vhcurveto
          10 40 11 40 10 38 rrcurveto
          45 11 29 15 23 vvcurveto
          20 -22 12 -28 8 vhcurveto
          22 84 17 66 21 vvcurveto
          60 -73 78 -28 -22 -7 -12 -21 -52 -22 -106 -26 -109 vhcurveto
          -50 -2 -62 -6 -59 -10 rrcurveto
          21 89 15 70 21 vvcurveto
          60 -72 78 -29 -21 -8 -12 -21 -61 -32 -137 -31 -126 vhcurveto
          -29 -12 -19 -14 -14 vvcurveto
          -23 9 -22 15 -15 vhcurveto
          -17 -73 -13 -59 -24 vvcurveto
          -31 68 -88 29 19 11 90 126 33 vhcurveto
          endchar
        </CharString>
        <CharString name="I">
          -36 callsubr
          endchar
        </CharString>
        <CharString name="Iacute">
          -36 callsubr
          217 286 -65 callsubr
          endchar
        </CharString>
        <CharString name="Icircumflex">
          -36 callsubr
          204 208 173 callsubr
        </CharString>
        <CharString name="Idieresis">
          -36 callsubr
          95 129 rmoveto
          -21 callgsubr
          227 callgsubr
          vhcurveto
          178 hmoveto
          -21 callgsubr
          227 callgsubr
          vhcurveto
          endchar
        </CharString>
        <CharString name="Idotaccent">
          -36 callsubr
          41 162 160 callgsubr
        </CharString>
        <CharString name="Igrave">
          -36 callsubr
          -16 280 rmoveto
          -34 -34 1 -42 26 -17 106 -67 rcurveline
          1 callgsubr
          rrcurveto
          endchar
        </CharString>
        <CharString name="Imacron">
          -36 callsubr
          127 119 rmoveto
          -29 callsubr
          202 callsubr
          endchar
        </CharString>
        <CharString name="Iogonek">
          -250 182 745 rmoveto
          -22 -8 -12 -21 -1 hvcurveto
          -3 -104 -97 -446 -1 -44 rrcurveto
          -10 7 -16 11 -16 vhcurveto
          -54 -44 -66 -79 -60 -30 callgsubr
          17 13 12 16 4 15 19 44 16 96 22 106 36 174 32 112 1 36 rrcurveto
          60 2 -78 78 -28 hhcurveto
          endchar
        </CharString>
        <CharString name="J">
          -73 38 255 rmoveto
          -19 -6 -14 -35 -68 100 -125 100 124 27 137 319 80 hvcurveto
          20 80 50 125 30 vvcurveto
          26 -23 10 -20 -63 -285 -37 -80 -23 17 -21 33 25 109 15 8 36 vhcurveto
          -9 -24 -14 -76 -12 -48 rrcurveto
          -226 -58 -25 -85 -33 -71 -45 112 -38 hhcurveto
          endchar
        </CharString>
        <CharString name="K">
          43 118 13 82 callgsubr
        </CharString>
        <CharString name="L">
          -13 315 659 15 callgsubr
        </CharString>
        <CharString name="Lacute">
          -13 472 998 -65 callsubr
          -157 -339 15 callgsubr
        </CharString>
        <CharString name="Lcaron">
          -13 435 646 65 callgsubr
          -120 13 15 callgsubr
        </CharString>
        <CharString name="Lslash">
          -13 280 474 rmoveto
          20 66 15 66 53 vvcurveto
          51 -69 50 -28 -23 -6 -13 -20 -60 -31 -109 -33 -110 vhcurveto
          -75 -16 -53 -19 3 -22 2 -22 35 -37 28 4 6 1 9 1 12 3 rrcurveto
          -28 -92 -23 -80 -38 vvcurveto
          -58 64 -59 66 158 159 52 88 19 -4 13 -21 vhcurveto
          -25 -102 -41 -142 hhcurveto
          -10 -2 0 7 26 19 66 15 43 hvcurveto
          10 28 12 33 12 34 108 33 46 19 -4 28 -3 21 -26 3 -49 -6 rrcurveto
          endchar
        </CharString>
        <CharString name="M">
          197 309 644 rmoveto
          28 1 -109 73 -22 hhcurveto
          -22 -7 -12 -21 hvcurveto
          -117 -117 -391 -72 vvcurveto
          -31 57 -88 24 23 22 90 126 34 vhcurveto
          11 38 20 96 9 73 33 -121 13 -71 22 -21 rrcurveto
          -21 21 26 -3 19 hhcurveto
          59 64 104 113 88 hvcurveto
          -44 -126 -17 -89 -66 vvcurveto
          -57 32 -65 29 42 5 77 199 51 vhcurveto
          36 140 44 130 78 vvcurveto
          37 -44 44 -32 -54 -145 -223 -111 -96 vhcurveto
          -40 89 -38 133 2 38 rrcurveto
          endchar
        </CharString>
        <CharString name="N">
          72 624 671 -43 callsubr
          endchar
        </CharString>
        <CharString name="NULL">
          endchar
        </CharString>
        <CharString name="Nacute">
          72 515 998 -65 callsubr
          109 -327 -43 callsubr
          endchar
        </CharString>
        <CharString name="Ncaron">
          72 539 964 -28 callgsubr
          85 -293 -43 callsubr
          endchar
        </CharString>
        <CharString name="Ntilde">
          72 624 671 -43 callsubr
          -276 314 rmoveto
          154 callgsubr
          12 callgsubr
          endchar
        </CharString>
        <CharString name="O">
          140 callgsubr
          endchar
        </CharString>
        <CharString name="OE">
          391 220 138 rmoveto
          -29 -13 38 55 165 139 187 61 40 25 -48 -98 -108 -130 -191 -93 hvcurveto
          370 279 rmoveto
          12 48 9 52 2 55 32 7 38 11 42 7 rrcurveto
          120 21 145 -9 52 vvcurveto
          36 -138 10 -100 -158 -74 -4 -29 -25 vhcurveto
          29 -34 -40 17 -47 hhcurveto
          -148 -194 -253 -249 -86 81 -120 100 64 59 23 37 51 hvcurveto
          -34 24 45 -25 47 hhcurveto
          169 208 61 79 16 -4 6 -17 hvcurveto
          -25 -138 -36 -154 hhcurveto
          -10 -9 0 14 44 16 52 19 59 hvcurveto
          112 2 183 33 63 vvcurveto
          11 -14 10 -21 -50 -60 -11 1 -110 vhcurveto
          endchar
        </CharString>
        <CharString name="Oacute">
          60 588 998 -65 callsubr
          -556 -768 -56 callsubr
          endchar
        </CharString>
        <CharString name="Ocircumflex">
          60 575 920 -28 callsubr
          -543 -690 -56 callsubr
          endchar
        </CharString>
        <CharString name="Odieresis">
          60 466 841 rmoveto
          -21 callgsubr
          227 callgsubr
          vhcurveto
          178 hmoveto
          -21 callgsubr
          227 callgsubr
          vhcurveto
          -612 -611 -56 callsubr
          endchar
        </CharString>
        <CharString name="Ograve">
          140 callgsubr
          -43 376 rmoveto
          -34 -34 1 -42 26 -17 106 -67 rcurveline
          1 callgsubr
          rrcurveto
          endchar
        </CharString>
        <CharString name="Ohungarumlaut">
          60 486 1015 -1 callgsubr
          -647 -769 -56 callsubr
          endchar
        </CharString>
        <CharString name="Omacron">
          60 498 831 rmoveto
          -29 callsubr
          202 callsubr
          -466 -601 -56 callsubr
          endchar
        </CharString>
        <CharString name="Oslash">
          60 480 461 rmoveto
          -141 -159 -186 -85 -11 -13 8 14 -11 vhcurveto
          63 77 88 107 127 142 rrcurveto
          1 -7 0 -7 -7 vvcurveto
          -82 155 rmoveto
          18 19 -11 -22 15 hvcurveto
          -59 -70 -66 -83 -59 -74 -29 -36 -30 -36 -27 -34 rrcurveto
          175 10 145 191 63 hhcurveto
          215 13 rmoveto
          34 37 9 24 14 vvcurveto
          21 -16 13 -21 -17 -29 -22 -36 -35 vhcurveto
          41 -41 -52 26 -59 hhcurveto
          -144 -210 -260 -257 -36 16 -41 26 -37 hvcurveto
          -25 -34 -16 -24 -9 vvcurveto
          -18 10 -20 19 12 18 16 35 30 vhcurveto
          -30 34 40 -19 41 hhcurveto
          207 178 271 187 47 -11 46 -20 41 hvcurveto
          endchar
        </CharString>
        <CharString name="Otilde">
          140 callgsubr
          23 369 rmoveto
          154 callgsubr
          12 callgsubr
          endchar
        </CharString>
        <CharString name="P">
          -10 234 378 rmoveto
          21 78 8 42 43 vvcurveto
          20 -8 22 -12 21 vhcurveto
          16 30 37 21 47 hhcurveto
          43 36 -30 -43 -73 -86 -71 -116 -46 hvcurveto
          -38 -131 rmoveto
          216 43 166 130 151 vvcurveto
          113 -95 86 -164 -88 -140 -45 -47 -11 14 -25 20 -21 vhcurveto
          -7 -250 -96 -183 -69 vvcurveto
          -31 55 -70 32 24 21 84 127 37 vhcurveto
          endchar
        </CharString>
        <CharString name="Q">
          100 254 462 rmoveto
          -51 28 -133 41 -130 vhcurveto
          -9 -16 -15 -5 -14 hhcurveto
          -24 -75 38 58 84 33 89 42 71 hvcurveto
          144 142 rmoveto
          39 65 -49 -106 -70 -34 -81 -45 -64 hvcurveto
          -26 99 -20 115 127 vvcurveto
          13 9 9 12 7 vhcurveto
          246 -145 rmoveto
          142 -124 134 -134 -144 -210 -260 -257 -90 143 -127 104 30 28 6 10 27 vhcurveto
          -112 44 50 -89 45 hhcurveto
          28 9 11 30 44 -33 77 -37 104 hvcurveto
          106 95 68 159 123 vvcurveto
          endchar
        </CharString>
        <CharString name="R">
          42 261 384 -12 callgsubr
        </CharString>
        <CharString name="Racute">
          16 551 882 100 callsubr
          -194 -443 rmoveto
          13 56 3 36 35 vvcurveto
          22 -10 25 -15 23 vhcurveto
          11 27 31 11 35 hhcurveto
          60 22 -16 -26 -78 -102 -52 -64 -47 hvcurveto
          320 187 rmoveto
          103 -101 70 -143 -134 -116 -59 -37 -24 24 -43 25 -20 vhcurveto
          -13 -232 -88 -154 -66 vvcurveto
          -31 56 -70 32 24 21 84 107 37 vhcurveto
          7 22 7 20 6 18 rrcurveto
          -107 44 130 -144 111 hhcurveto
          42 15 18 23 29 -65 51 -61 59 hvcurveto
          -51 47 -22 29 31 26 213 82 168 vvcurveto
          endchar
        </CharString>
        <CharString name="Rcaron">
          16 356 782 -16 callgsubr
          -108 -398 -12 callgsubr
        </CharString>
        <CharString name="S">
          -7 227 13 -11 callsubr
          endchar
        </CharString>
        <CharString name="Sacute">
          -20 534 998 -65 callsubr
          -307 -985 -11 callsubr
          endchar
        </CharString>
        <CharString name="Scaron">
          -20 558 964 -28 callgsubr
          -331 -951 -11 callsubr
          endchar
        </CharString>
        <CharString name="T">
          -15 340 737 32 callsubr
        </CharString>
        <CharString name="Tcaron">
          -54 306 782 -16 callgsubr
          -3 -45 32 callsubr
        </CharString>
        <CharString name="Thorn">
          -24 221 310 rmoveto
          14 55 16 56 13 50 rrcurveto
          5 16 16 3 14 hhcurveto
          43 37 -18 -19 -88 -104 -33 -65 -11 hvcurveto
          72 309 rmoveto
          88 -95 44 -27 -25 -7 -13 -20 vhcurveto
          -238 -99 -297 -71 vvcurveto
          -31 43 -71 32 34 12 53 128 29 vhcurveto
          186 12 146 105 127 vvcurveto
          62 -100 122 -92 -12 -12 -1 -1 -13 vhcurveto
          endchar
        </CharString>
        <CharString name="U">
          36 272 44 callsubr
          endchar
        </CharString>
        <CharString name="Uacute">
          19 433 998 -65 callsubr
          -175 -363 -61 callgsubr
          endchar
        </CharString>
        <CharString name="Ucircumflex">
          19 420 920 -28 callsubr
          -162 -285 -61 callgsubr
          endchar
        </CharString>
        <CharString name="Udieresis">
          19 311 841 rmoveto
          -21 callgsubr
          227 callgsubr
          vhcurveto
          178 hmoveto
          -21 callgsubr
          227 callgsubr
          vhcurveto
          -231 -206 -61 callgsubr
          endchar
        </CharString>
        <CharString name="Ugrave">
          35 callgsubr
          -58 357 rmoveto
          -34 -34 1 -42 26 -17 106 -67 rcurveline
          1 callgsubr
          rrcurveto
          endchar
        </CharString>
        <CharString name="Uhungarumlaut">
          35 callgsubr
          73 380 -1 callgsubr
          endchar
        </CharString>
        <CharString name="Umacron">
          35 callgsubr
          85 196 rmoveto
          -29 callsubr
          202 callsubr
          endchar
        </CharString>
        <CharString name="Uogonek">
          -16 254 1 rmoveto
          7 5 6 6 5 6 rrcurveto
          183 45 121 311 200 vvcurveto
          98 -100 76 -33 -20 -6 -12 -19 vhcurveto
          -33 13 -16 -99 vvcurveto
          -215 -126 -203 -68 -33 -17 48 50 vhcurveto
          125 72 189 72 vvcurveto
          59 -74 53 -28 -23 -7 -13 -20 vhcurveto
          -91 -80 -198 -196 vvcurveto
          -62 45 -84 59 -43 vhcurveto
          -40 -43 -35 -54 -44 -30 callgsubr
          endchar
        </CharString>
        <CharString name="Uring">
          19 360 1010 159 callgsubr
          -94 -299 -61 callgsubr
          endchar
        </CharString>
        <CharString name="V">
          -27 512 745 rmoveto
          -41 -72 -140 -374 -137 hvcurveto
          -29 165 -9 197 -18 46 rrcurveto
          66 -27 -56 40 -43 hhcurveto
          -15 -12 -12 -32 -70 90 -462 35 -89 hvcurveto
          -32 11 48 -34 18 hhcurveto
          59 45 157 170 84 hvcurveto
          81 165 73 123 52 vvcurveto
          31 -49 33 -36 vhcurveto
          endchar
        </CharString>
        <CharString name="W">
          226 356 220 rmoveto
          -131 11 41 -76 87 hhcurveto
          137 112 209 188 175 -73 162 -205 -34 -21 -12 -33 -29 40 -60 44 hvcurveto
          78 1 28 -85 -103 vvcurveto
          -122 -46 -140 -54 -63 25 265 1 -50 vhcurveto
          -52 1 -102 -95 -67 -134 7 165 69 225 -5 33 rrcurveto
          57 -93 63 -44 -16 -10 -12 -30 vhcurveto
          1 -299 -46 -120 3 -177 1 -49 76 -46 18 1 38 1 62 55 72 107 rrcurveto
          endchar
        </CharString>
        <CharString name="X">
          26 534 736 rmoveto
          -48 -47 -32 -220 -142 hvcurveto
          -36 77 -26 73 55 vvcurveto
          33 -86 25 -49 -18 0 -28 -17 -55 59 -144 73 -143 vhcurveto
          -84 -118 -78 -95 -30 -34 rrcurveto
          -15 -17 -8 -6 -13 vvcurveto
          -27 52 -37 39 48 81 115 100 67 vhcurveto
          -121 72 71 -95 39 hhcurveto
          25 26 18 36 31 -77 117 -73 132 hvcurveto
          95 125 47 57 43 51 rrcurveto
          31 37 33 -2 26 vvcurveto
          35 -60 61 -24 vhcurveto
          endchar
        </CharString>
        <CharString name="Y">
          29 callgsubr
          endchar
        </CharString>
        <CharString name="Yacute">
          29 callgsubr
          168 594 -65 callsubr
          endchar
        </CharString>
        <CharString name="Ydieresis">
          29 callgsubr
          46 437 rmoveto
          -21 callgsubr
          227 callgsubr
          vhcurveto
          178 hmoveto
          -21 callgsubr
          227 callgsubr
          vhcurveto
          endchar
        </CharString>
        <CharString name="Z">
          87 563 553 -20 callgsubr
          endchar
        </CharString>
        <CharString name="Zacute">
          87 512 998 -65 callsubr
          51 -445 -20 callgsubr
          endchar
        </CharString>
        <CharString name="Zcaron">
          87 536 964 -28 callgsubr
          27 -411 -20 callgsubr
          endchar
        </CharString>
        <CharString name="Zdotaccent">
          87 563 553 -20 callgsubr
          -227 321 160 callgsubr
        </CharString>
        <CharString name="a">
          -49 159 208 callsubr
          291 158 rmoveto
          132 callgsubr
          -157 -151 -280 -99 -57 87 -80 56 47 58 42 54 53 vhcurveto
          -55 13 32 -41 24 hhcurveto
          30 6 60 62 11 hvcurveto
          14 77 17 28 30 vvcurveto
          7 -7 10 -11 10 vhcurveto
          endchar
        </CharString>
        <CharString name="aacute">
          -41 168 138 -73 callgsubr
          74 146 55 callgsubr
        </CharString>
        <CharString name="abreve">
          -41 168 138 -73 callgsubr
          238 195 98 callsubr
        </CharString>
        <CharString name="acircumflex">
          -41 168 138 -73 callgsubr
          167 156 173 callsubr
        </CharString>
        <CharString name="acute">
          134 858 -65 callsubr
          endchar
        </CharString>
        <CharString name="adieresis">
          -41 349 563 rmoveto
          227 callgsubr
          -21 callgsubr
          hvcurveto
          -181 -425 -73 callgsubr
          162 197 rmoveto
          -29 -34 -43 -29 -33 55 -57 36 227 callgsubr
          25 -45 95 -29 hvcurveto
          endchar
        </CharString>
        <CharString name="ae">
          211 359 401 rmoveto
          10 7 -18 -32 4 hvcurveto
          -18 -31 -15 -33 -8 -34 rrcurveto
          -75 -49 -89 -40 -29 hhcurveto
          -14 -5 2 11 52 120 198 86 hvcurveto
          139 -92 rmoveto
          52 32 45 44 33 hhcurveto
          18 37 -35 -13 -39 -70 -9 -67 hvcurveto
          -185 219 rmoveto
          -155 -157 -280 -99 -55 89 -82 58 49 64 48 56 57 hvcurveto
          -58 28 57 -46 96 hhcurveto
          101 103 57 52 16 -9 11 -32 hvcurveto
          -28 -30 -28 -126 hhcurveto
          -51 -3 17 36 16 3 17 5 18 hvcurveto
          -6 27 36 -4 45 hhcurveto
          118 callgsubr
          -44 -50 -26 -43 -45 hvcurveto
          38 -35 -54 31 -33 hhcurveto
          endchar
        </CharString>
        <CharString name="agrave">
          -41 383 596 rmoveto
          1 callgsubr
          -34 -34 1 -42 26 -17 rrcurveto
          -109 -525 -73 callgsubr
          endchar
        </CharString>
        <CharString name="amacron">
          -41 168 138 -73 callgsubr
          176 149 rmoveto
          -156 2 -126 -3 -1 -39 rrcurveto
          -23 28 -41 28 -1 vhcurveto
          202 callsubr
          113 18 47 7 28 vvcurveto
          21 -25 7 -49 1 vhcurveto
          endchar
        </CharString>
        <CharString name="ampersand">
          227 144 120 rmoveto
          5 24 54 46 65 58 12 -18 12 -19 13 -17 -68 -42 -60 -31 -33 -1 rrcurveto
          199 485 rmoveto
          18 11 -25 -28 1 hvcurveto
          -28 -24 -35 -37 -38 vhcurveto
          -6 28 -4 27 25 vvcurveto
          40 -1 12 34 30 hhcurveto
          277 -494 rmoveto
          -46 -44 18 28 -39 hvcurveto
          119 83 99 90 37 vvcurveto
          26 -11 28 -38 -20 -119 -87 -80 -122 vhcurveto
          -16 23 -15 25 -13 26 rrcurveto
          83 80 75 89 78 vvcurveto
          53 -1 -28 98 -103 hhcurveto
          -127 -91 -85 -100 1 hvcurveto
          1 -53 16 -65 29 -65 rrcurveto
          -100 -84 -107 -85 -50 vvcurveto
          -47 78 -95 67 58 94 42 57 95 vhcurveto
          -53 60 67 -34 66 hhcurveto
          81 45 27 43 25 -23 7 -71 hvcurveto
          endchar
        </CharString>
        <CharString name="aogonek">
          -41 168 208 callsubr
          309 131 rmoveto
          7 -7 10 -11 10 vhcurveto
          132 callgsubr
          -157 -151 -280 -99 -57 87 -80 56 47 58 42 54 53 vhcurveto
          3 -12 4 -12 5 -11 rrcurveto
          -54 -44 -64 -78 -59 -30 callgsubr
          29 23 14 29 -12 21 4 20 4 23 4 24 rrcurveto
          14 77 17 28 30 vvcurveto
          endchar
        </CharString>
        <CharString name="approxequal">
          25 199 314 79 callsubr
          61 272 79 callsubr
          endchar
        </CharString>
        <CharString name="aring">
          -41 168 138 -73 callgsubr
          124 132 rmoveto
          -20 -1 -13 -18 -14 hhcurveto
          -15 -12 18 20 2 hvcurveto
          298 callgsubr
          15 12 -17 -21 -2 hvcurveto
          -17 114 rmoveto
          -60 -51 -51 -61 -6 hvcurveto
          -61 -5 44 -51 60 hhcurveto
          60 51 51 61 6 hvcurveto
          61 5 -44 51 -60 hhcurveto
          endchar
        </CharString>
        <CharString name="asciicircum">
          -137 381 669 rmoveto
          -49 113 -3 52 -21 15 rrcurveto
          10 -15 -45 23 -32 hhcurveto
          -62 -147 -249 -59 8 hvcurveto
          6 -21 42 -34 33 4 28 3 7 47 35 62 26 51 18 17 27 28 rrcurveto
          -80 46 74 -123 41 hhcurveto
          18 7 6 17 17 -14 35 -28 66 hvcurveto
          endchar
        </CharString>
        <CharString name="asciitilde">
          27 229 440 79 callsubr
          endchar
        </CharString>
        <CharString name="asterisk">
          -184 200 553 rmoveto
          -16 22 -22 17 16 13 57 35 5 vhcurveto
          -24 20 39 -38 18 hhcurveto
          11 16 9 11 11 -64 49 -17 23 hvcurveto
          53 7 85 0 25 vvcurveto
          11 -20 4 -27 -22 -29 -1 -12 -34 vhcurveto
          40 19 54 36 10 vvcurveto
          17 -25 18 -14 -13 -32 -42 -25 -27 vhcurveto
          3 15 11 20 12 vvcurveto
          17 -39 27 -17 -9 -4 -4 -13 -14 5 -41 -1 -15 vhcurveto
          -9 4 -21 25 9 vvcurveto
          17 -53 12 -27 -11 0 -6 -9 -14 41 -50 41 -28 vhcurveto
          -35 -48 4 -11 hhcurveto
          -12 -6 -5 -9 -16 18 -27 26 18 32 6 7 23 hvcurveto
          -33 -27 -54 -30 -13 vvcurveto
          -11 16 -19 17 12 50 45 25 17 vhcurveto
          -3 -14 -22 -30 -12 vvcurveto
          endchar
        </CharString>
        <CharString name="at">
          519 439 182 rmoveto
          -11 -1 10 7 37 102 170 74 8 12 -11 -24 10 hvcurveto
          -3 -3 -3 -3 -1 -5 rrcurveto
          -105 -21 -143 -73 -23 hhcurveto
          458 495 rmoveto
          59 -64 -86 31 -85 hhcurveto
          -368 -247 -342 -269 -182 167 -139 172 100 171 66 78 66 -91 -82 -187 -136 -46 72 123 216 209 260 258 117 86 -69 -137 -132 -112 -87 -17 -5 31 70 25 -17 hvcurveto
          -1 8 -7 9 -11 10 rrcurveto
          10 18 7 19 18 vvcurveto
          77 -98 69 -51 -151 -140 -239 -94 -56 87 -81 55 43 58 42 51 52 vhcurveto
          -41 10 27 -41 56 hhcurveto
          107 204 155 208 147 -47 38 -60 56 hvcurveto
          endchar
        </CharString>
        <CharString name="atilde">
          -41 168 138 -73 callgsubr
          232 210 rmoveto
          -52 -11 -66 -15 -25 hvcurveto
          16 -31 -15 76 -85 hhcurveto
          154 callgsubr
          56 -2 72 22 45 hvcurveto
          -61 33 50 -44 43 hhcurveto
          49 64 79 64 3 hvcurveto
          31 1 -16 17 -25 hhcurveto
          endchar
        </CharString>
        <CharString name="b">
          8 251 128 rmoveto
          -20 -27 12 21 -27 hvcurveto
          125 61 90 106 77 hhcurveto
          15 1 -1 -8 -111 -96 -144 -74 hvcurveto
          162 399 rmoveto
          -52 -67 -52 -69 -65 hvcurveto
          26 96 25 116 65 vvcurveto
          54 -73 71 -28 -22 -7 -12 -18 vhcurveto
          -230 -132 -379 -65 vvcurveto
          -28 56 -64 29 10 11 22 34 12 vhcurveto
          -33 44 47 -22 41 hhcurveto
          159 115 246 120 57 -64 91 -65 hvcurveto
          endchar
        </CharString>
        <CharString name="backslash">
          41 463 -80 rmoveto
          30 48 63 31 72 -228 529 -74 212 hvcurveto
          17 -6 -1 13 -21 hhcurveto
          -25 -71 -83 -45 -54 56 -107 113 -275 hvcurveto
          -177 73 83 -196 23 hhcurveto
          endchar
        </CharString>
        <CharString name="bar">
          -103 95 -71 rmoveto
          -25 63 -70 29 30 93 521 132 28 vhcurveto
          33 158 18 72 33 vvcurveto
          54 -80 71 -28 -23 -7 -12 -18 vhcurveto
          -94 -156 -782 -40 vvcurveto
          endchar
        </CharString>
        <CharString name="braceleft">
          -97 72 465 rmoveto
          -2 -1 0 -1 hhcurveto
          -11 -4 -22 -9 -15 5 -15 8 -14 hvcurveto
          -2 vlineto
          6 -11 17 -13 1 -16 rrcurveto
          -103 -64 -38 1 -136 vhcurveto
          -95 89 -91 110 59 53 41 37 37 -25 10 -54 -63 -37 14 48 vhcurveto
          -1 103 51 53 81 vvcurveto
          11 vlineto
          71 10 40 57 54 vvcurveto
          58 -43 35 -1 115 vhcurveto
          96 53 15 35 37 13 -15 -25 1 vhcurveto
          -49 0 -26 22 25 42 64 23 vhcurveto
          72 -1 -71 76 -85 hhcurveto
          -116 -87 -73 -115 1 hvcurveto
          -128 53 -41 -54 vvcurveto
          -29 -16 -14 -26 -1 -3 1 1 -3 vhcurveto
          -22 17 -27 12 -28 10 rrcurveto
          endchar
        </CharString>
        <CharString name="braceright">
          67 382 395 rmoveto
          -22 -2 -17 16 18 71 198 90 135 vvcurveto
          62 -110 95 -95 -95 -97 -68 -42 -24 42 -59 27 vhcurveto
          34 22 85 61 hhcurveto
          46 25 -24 -35 hvcurveto
          -87 -185 -110 -100 vvcurveto
          -46 30 -36 38 -19 vhcurveto
          -119 -63 52 -206 -70 -77 9 37 -44 hhcurveto
          -19 -2 -16 -12 -50 60 -57 91 221 -117 354 74 107 hvcurveto
          25 14 19 20 29 vvcurveto
          27 -66 -15 -28 vhcurveto
          endchar
        </CharString>
        <CharString name="bracketleft">
          -96 253 749 rmoveto
          -12 -179 -176 -461 -84 vvcurveto
          -53 64 -54 66 79 149 76 42 17 -4 12 -21 vhcurveto
          -25 -90 -16 -53 hhcurveto
          -10 -2 0 6 29 31 93 27 79 hvcurveto
          51 152 61 179 3 109 10 4 10 3 9 2 73 18 106 -8 -1 56 rrcurveto
          42 -97 7 -78 -1 vhcurveto
          -149 -1 -21 -2 -59 vvcurveto
          endchar
        </CharString>
        <CharString name="bracketright">
          -38 498 709 rmoveto
          5 vlineto
          2 -1 3 -1 2 vhcurveto
          -12 46 -77 0 -79 1 rrcurveto
          -104 2 -93 -40 -54 vvcurveto
          -49 137 21 50 1 vhcurveto
          18 hlineto
          -1 -188 -112 -378 -1 -15 rrcurveto
          -13 -1 -13 -2 -19 -51 -28 10 -49 hhcurveto
          -21 -18 -8 -22 -60 121 -51 79 94 41 21 74 17 hvcurveto
          35 161 85 350 4 174 rrcurveto
          5 vlineto
          endchar
        </CharString>
        <CharString name="breve">
          192 723 98 callsubr
        </CharString>
        <CharString name="brokenbar">
          -104 143 249 313 callsubr
          61 283 37 54 -80 71 -28 -23 -6 -12 -18 vhcurveto
          108 596 313 callsubr
          62 283 37 54 -81 71 -28 -22 -7 -12 -18 vhcurveto
          endchar
        </CharString>
        <CharString name="bullet">
          -322 22 372 rmoveto
          -47 83 -85 52 30 37 38 25 40 -66 133 -43 -43 -50 -61 -43 vhcurveto
          endchar
        </CharString>
        <CharString name="c">
          -70 325 527 62 callgsubr
        </CharString>
        <CharString name="cacute">
          -66 435 762 -65 callsubr
          -99 -235 62 callgsubr
        </CharString>
        <CharString name="caron">
          158 728 -28 callgsubr
          endchar
        </CharString>
        <CharString name="ccaron">
          -66 459 728 -28 callgsubr
          -123 -201 62 callgsubr
        </CharString>
        <CharString name="ccedilla">
          -66 402 171 rmoveto
          -40 -5 -33 -137 hhcurveto
          -39 -13 11 30 77 118 140 51 hvcurveto
          35 12 -22 26 hhcurveto
          14 10 10 16 45 -60 82 -49 -145 -155 -217 -141 -48 59 -62 57 -29 hvcurveto
          -18 -42 -21 -36 -3 -22 7 callsubr
          8 14 8 15 6 14 rrcurveto
          97 12 105 68 53 vvcurveto
          17 -12 7 -16 vhcurveto
          endchar
        </CharString>
        <CharString name="cedilla">
          31 -28 rmoveto
          20 34 16 38 12 vvcurveto
          19 -24 5 -22 -19 -18 -2 -17 -6 vhcurveto
          -20 -55 -30 -48 -4 -27 7 callsubr
          endchar
        </CharString>
        <CharString name="cent">
          -10 221 204 rmoveto
          52 51 83 52 49 vhcurveto
          -24 -74 -21 -80 -18 -71 rrcurveto
          -30 3 -10 11 27 vvcurveto
          245 318 rmoveto
          8 25 6 21 14 vvcurveto
          19 1 -8 27 -27 hhcurveto
          -18 -21 -30 -46 -22 hvcurveto
          -150 -5 -157 -214 -139 vvcurveto
          -60 91 -80 64 -15 vhcurveto
          -8 -37 -4 -26 -9 vvcurveto
          -17 15 -18 20 24 17 34 80 25 vhcurveto
          85 20 84 51 45 vvcurveto
          17 -11 8 -16 -30 -15 -13 -7 -62 vhcurveto
          19 65 24 81 30 97 rrcurveto
          -15 19 18 -20 20 hhcurveto
          14 10 10 17 35 -22 41 -27 31 hvcurveto
          endchar
        </CharString>
        <CharString name="circumflex">
          121 684 173 callsubr
        </CharString>
        <CharString name="colon">
          -313 47 143 rmoveto
          -44 67 -109 36 29 18 27 30 45 -41 149 -57 -23 -29 -60 -38 vhcurveto
          45 296 rmoveto
          -44 67 -109 36 29 17 27 30 45 -40 149 -57 -23 -29 -60 -38 vhcurveto
          endchar
        </CharString>
        <CharString name="comma">
          -297 32 -225 86 callsubr
        </CharString>
        <CharString name="copyright">
          149 423 527 rmoveto
          -96 -107 -144 -85 -39 58 -59 47 63 100 56 32 10 -8 11 -9 hvcurveto
          -16 -55 -32 -79 hhcurveto
          -19 2 3 16 61 86 92 43 hvcurveto
          16 1 -4 11 hhcurveto
          9 6 6 9 23 -29 44 -24 hvcurveto
          153 -117 rmoveto
          -176 -104 -100 -170 293 callsubr
          vhcurveto
          -270 -350 rmoveto
          293 callgsubr
          292 callgsubr
          hvcurveto
          endchar
        </CharString>
        <CharString name="currency">
          41 234 296 rmoveto
          58 -2 45 40 53 hhcurveto
          57 24 -44 -42 3 hvcurveto
          -44 -38 -51 -58 -52 -30 26 57 -2 vhcurveto
          348 182 rmoveto
          32 -56 50 -25 -26 -52 -35 -50 -45 vhcurveto
          4 -17 -18 2 -19 hhcurveto
          -20 -20 -3 -5 -19 hvcurveto
          -12 15 -11 15 -7 9 rrcurveto
          35 -20 -76 13 -51 hhcurveto
          -18 -1 -12 -16 -18 51 -46 39 -62 hvcurveto
          -26 -31 -16 -39 1 -42 1 -31 6 -27 12 -24 rrcurveto
          -57 -60 -43 -36 -9 vvcurveto
          -24 39 -49 38 26 43 40 54 50 vhcurveto
          -9 24 27 -5 28 hhcurveto
          18 17 2 4 17 hvcurveto
          -50 40 38 -35 30 hhcurveto
          22 11 13 24 16 -19 39 -26 47 hvcurveto
          37 35 22 49 -1 57 -1 28 -7 26 -12 22 rrcurveto
          64 60 20 6 21 vvcurveto
          endchar
        </CharString>
        <CharString name="d">
          -20 157 75 callgsubr
          endchar
        </CharString>
        <CharString name="dagger">
          -20 445 405 rmoveto
          167 callsubr
          -29 -243 -48 -236 -47 vvcurveto
          -28 55 -64 29 23 45 262 110 22 vhcurveto
          300 callgsubr
          endchar
        </CharString>
        <CharString name="daggerdbl">
          -20 190 90 rmoveto
          300 callgsubr
          167 callsubr
          -13 -110 -17 -108 -15 -90 rrcurveto
          -115 -13 -100 -18 -15 vvcurveto
          -25 31 -61 26 vhcurveto
          54 1 40 5 45 7 rrcurveto
          -8 -49 -5 -35 -15 vvcurveto
          -28 55 -64 29 15 23 106 106 21 vhcurveto
          124 22 125 28 -1 34 rrcurveto
          27 -61 3 -65 -1 vhcurveto
          -30 -35 -2 -2 -36 hvcurveto
          endchar
        </CharString>
        <CharString name="dcaron">
          220 177 75 callgsubr
          209 -15 -2 callsubr
          endchar
        </CharString>
        <CharString name="dcroat">
          -51 177 139 rmoveto
          -13 -1 2 11 45 48 204 87 15 36 -29 -56 -9 0 -8 1 -8 hvcurveto
          -102 -44 -108 -50 -21 hhcurveto
          237 431 rmoveto
          -7 -35 -8 -36 -8 -36 rrcurveto
          38 -24 -37 27 -44 hhcurveto
          -152 -94 -278 -101 -58 66 -79 56 34 57 36 46 54 hvcurveto
          -3 0 -3 -2 vvcurveto
          -33 47 -41 26 31 56 216 129 30 vhcurveto
          14 58 26 104 18 75 rrcurveto
          109 17 46 7 28 vvcurveto
          21 -25 7 -49 1 vhcurveto
          -22 -21 0 -20 hhcurveto
          1 4 0 2 2 vvcurveto
          54 -74 71 -28 -22 -7 -12 -18 vhcurveto
          1 -27 -4 -37 -7 -44 rrcurveto
          -49 -5 -31 -11 -19 vvcurveto
          -23 28 -41 28 -1 vhcurveto
          endchar
        </CharString>
        <CharString name="degree">
          -138 307 726 rmoveto
          -92 -93 -78 -95 -27 hvcurveto
          -95 -25 52 -78 94 hhcurveto
          91 94 78 95 26 hvcurveto
          95 26 -53 78 -93 hhcurveto
          -29 -106 rmoveto
          26 16 -32 -38 -11 hvcurveto
          -38 -9 -31 -32 -27 hhcurveto
          -25 -16 32 38 10 hvcurveto
          38 9 31 32 27 hhcurveto
          endchar
        </CharString>
        <CharString name="dieresis">
          12 690 rmoveto
          -21 callgsubr
          227 callgsubr
          vhcurveto
          178 hmoveto
          -21 callgsubr
          227 callgsubr
          vhcurveto
          endchar
        </CharString>
        <CharString name="divide">
          41 95 267 rmoveto
          138 428 18 91 23 -49 6 -68 -48 -173 -8 -7 -108 hvcurveto
          -4 -72 -68 -5 282 callsubr
          hvcurveto
          93 -121 rmoveto
          -40 68 -68 42 24 31 31 20 33 -54 108 -35 -35 -41 -50 -34 vhcurveto
          110 401 rmoveto
          -39 67 -69 43 24 30 31 20 33 -53 109 -36 -35 -40 -50 -35 vhcurveto
          endchar
        </CharString>
        <CharString name="dollar">
          33 289 132 rmoveto
          9 38 11 43 13 49 rrcurveto
          44 -30 32 -26 -23 vvcurveto
          -30 -51 -15 -58 -6 vhcurveto
          -71 374 rmoveto
          13 42 25 49 21 vhcurveto
          -9 -39 -9 -38 -8 -38 rrcurveto
          -38 25 -27 19 12 vvcurveto
          -17 -378 rmoveto
          -77 -17 84 -49 hhcurveto
          -17 -10 -23 -42 -61 54 -80 95 -18 hvcurveto
          -2 -15 -2 -11 -8 vvcurveto
          -1 -18 16 -23 18 -1 rrcurveto
          15 11 23 51 16 hvcurveto
          123 10 161 63 -2 115 -1 93 -90 77 -84 57 16 59 18 65 20 71 rrcurveto
          1 7 6 1 6 39 1 -10 19 hhcurveto
          11 10 9 17 45 -22 62 -35 22 hvcurveto
          5 19 1 15 11 vvcurveto
          1 23 -5 31 -27 2 rrcurveto
          -23 -23 -42 -62 -23 hvcurveto
          -84 -23 -115 -53 -43 -51 rrcurveto
          -18 -23 -14 -55 -43 vvcurveto
          -68 85 -62 81 -54 vhcurveto
          -15 -65 -15 -62 -12 -53 rrcurveto
          endchar
        </CharString>
        <CharString name="dotaccent">
          -42 734 160 callgsubr
        </CharString>
        <CharString name="dotlessi">
          176 callgsubr
          endchar
        </CharString>
        <CharString name="dvB_DA_MatraU">
          32 callgsubr
          7 8 0 1 7 hvcurveto
          -93 callsubr
        </CharString>
        <CharString name="dvB_DA_MatraUU">
          409 35 callsubr
          358 -503 25 callgsubr
          -473 941 168 callsubr
          -89 -112 -121 -104 -45 hvcurveto
          -5 hlineto
          -21 -26 -16 -18 -32 hvcurveto
          -79 callgsubr
          93 99 42 45 57 hvcurveto
          -83 12 76 -44 111 hhcurveto
          -90 callgsubr
        </CharString>
        <CharString name="dvDA_MatraU">
          0 307 callgsubr
          343 -9 callgsubr
          -97 80 -52 120 7 8 0 1 7 hvcurveto
          -93 callsubr
        </CharString>
        <CharString name="dvDA_MatraUU">
          4 136 -279 25 callgsubr
          -88 193 callgsubr
          344 230 callsubr
          -90 callgsubr
        </CharString>
        <CharString name="dvDDH_DDHA">
          45 361 186 rmoveto
          41 19 23 49 30 19 -10 -13 -22 -49 -15 -68 -7 vhcurveto
          -53 -386 rmoveto
          27 23 -14 -23 -19 -30 -14 -43 -7 hvcurveto
          -10 14 -6 15 15 vvcurveto
          19 17 14 22 vhcurveto
          -214 865 -106 callgsubr
          355 hlineto
          -5 -16 -3 -18 -1 -19 rrcurveto
          5 -13 -13 2 -13 hhcurveto
          -141 -209 -171 -98 -53 27 -49 35 -20 hvcurveto
          -25 44 46 -10 81 hhcurveto
          5 hlineto
          3 -15 4 -16 5 -14 rrcurveto
          1 -8 -8 0 -9 hhcurveto
          -155 -162 -124 -105 -130 105 -61 139 113 139 40 93 74 -69 57 -85 -81 -49 -39 -56 -27 5 -24 14 -22 hvcurveto
          -68 4 -50 28 44 vvcurveto
          76 124 74 94 vhcurveto
          51 9 -9 33 hhcurveto
          0 1 vlineto
          4 3 1 2 3 hvcurveto
          12 6 9 16 18 vvcurveto
          1 vlineto
          2 vlineto
          25 -21 40 -16 48 vhcurveto
          108 17 83 48 66 vvcurveto
          67 -59 46 -84 -96 -55 -53 -87 vhcurveto
          -14 vlineto
          -77 1 -27 16 29 vvcurveto
          56 168 122 64 vhcurveto
          56 1 -44 35 hhcurveto
          9 8 2 4 7 hvcurveto
          15 7 3 16 30 207 callgsubr
          222 -105 callsubr
        </CharString>
        <CharString name="dvDD_GA">
          0 99 -150 -13 callsubr
        </CharString>
        <CharString name="dvG_DA_MatraU">
          397 225 206 -87 callgsubr
          379 -9 callgsubr
          -97 80 -52 120 7 8 0 1 7 hvcurveto
          -93 callsubr
        </CharString>
        <CharString name="dvG_DA_MatraUU">
          400 532 -279 25 callgsubr
          -307 485 -87 callgsubr
          379 230 callsubr
          -90 callgsubr
        </CharString>
        <CharString name="dvJ_DA_MatraU">
          476 138 662 168 callsubr
          -32 -35 -16 -24 -33 hvcurveto
          -27 -41 -87 -75 -150 -89 callgsubr
          3 vhcurveto
          27 4 29 7 29 9 rrcurveto
          -14 -31 -8 -29 -25 vvcurveto
          138 callgsubr
          7 8 0 1 7 vhcurveto
          -93 callsubr
        </CharString>
        <CharString name="dvJ_DA_MatraUU">
          479 611 -279 25 callgsubr
          -473 941 168 callsubr
          -32 -35 -16 -24 -33 hvcurveto
          -27 -41 -87 -75 -150 -89 callgsubr
          3 vhcurveto
          27 4 29 7 29 9 rrcurveto
          -14 -31 -8 -29 -25 vvcurveto
          138 callgsubr
          vhcurveto
          -90 callgsubr
        </CharString>
        <CharString name="dvK_DA_MatraU">
          522 913 554 rmoveto
          -56 callgsubr
          -28 -31 -13 -20 -31 hvcurveto
          -49 -15 -100 -55 -106 -56 149 callsubr
          -174 -298 rmoveto
          -38 -80 -71 -29 -42 -44 callsubr
          31 66 22 33 79 31 callsubr
          42 28 94 100 24 vhcurveto
          44 22 45 23 41 23 rrcurveto
          -14 -31 -8 -29 -25 vvcurveto
          138 callgsubr
          7 8 0 1 7 vhcurveto
          -93 callsubr
        </CharString>
        <CharString name="dvK_DA_MatraUU">
          527 915 554 rmoveto
          -56 callgsubr
          -28 -30 -12 -20 -30 hvcurveto
          -48 -13 -102 -57 -109 -57 149 callsubr
          -174 41 callsubr
          294 -535 25 callgsubr
          -581 941 rmoveto
          -48 -21 -21 -31 -31 21 -25 48 hvcurveto
          332 -50 callgsubr
          45 22 46 24 42 24 rrcurveto
          -15 -32 -8 -30 -25 vvcurveto
          138 callgsubr
          vhcurveto
          -90 callgsubr
        </CharString>
        <CharString name="dvL_DA_MatraU">
          461 117 callsubr
          760 -33 callsubr
          -47 -53 -34 -47 -47 40 callsubr
          30 45 34 37 78 vhcurveto
          -13 -30 -8 -28 -24 vvcurveto
          138 callgsubr
          7 8 0 1 7 vhcurveto
          -93 callsubr
        </CharString>
        <CharString name="dvL_DA_MatraUU">
          464 596 -279 25 callgsubr
          -504 193 callgsubr
          760 -33 callsubr
          -47 -53 -34 -47 -47 40 callsubr
          30 45 34 37 78 vhcurveto
          -13 -30 -8 -28 -24 vvcurveto
          138 callgsubr
          vhcurveto
          -90 callgsubr
        </CharString>
        <CharString name="dvM_DA_MatraU">
          420 811 554 rmoveto
          -56 callgsubr
          -61 -72 -58 -69 -54 hvcurveto
          8 -41 -53 3 -54 -67 callsubr
          31 26 -1 -1 25 hvcurveto
          -16 -33 -9 -32 -26 vvcurveto
          138 callgsubr
          7 8 0 1 7 vhcurveto
          -93 callsubr
        </CharString>
        <CharString name="dvM_DA_MatraUU">
          423 811 554 rmoveto
          -56 callgsubr
          -61 -72 -58 -69 -54 hvcurveto
          8 -41 -53 3 -54 72 callsubr
          354 -440 25 callgsubr
          -453 193 callgsubr
          148 -62 callgsubr
          hhcurveto
          31 26 -1 -1 25 hvcurveto
          -16 -33 -9 -32 -26 vvcurveto
          138 callgsubr
          vhcurveto
          -90 callgsubr
        </CharString>
        <CharString name="dvNG_GA">
          84 600 368 rmoveto
          61 callsubr
          286 callsubr
          hvcurveto
          -501 -518 -13 callsubr
        </CharString>
        <CharString name="dvNG_MA">
          30 593 383 rmoveto
          61 callsubr
          286 callsubr
          hvcurveto
          -336 -379 rmoveto
          3 27 1 27 1 26 rrcurveto
          -3 16 16 -1 17 hhcurveto
          30 27 4 7 24 hvcurveto
          -6 -21 -6 -24 -5 -23 -30 -4 -38 -6 -45 -8 rrcurveto
          -143 -179 rmoveto
          -16 -11 27 13 11 21 7 35 7 hvcurveto
          -38 -8 -11 -27 -10 hhcurveto
          -71 836 -106 callgsubr
          367 -38 callsubr
          -56 32 -44 49 -28 hvcurveto
          -4 -20 -3 -24 -26 vvcurveto
          -18 -1 -19 -1 -19 vhcurveto
          -113 -21 -60 -23 -64 vvcurveto
          -68 70 -91 61 64 39 84 102 20 vhcurveto
          35 6 39 6 40 8 rrcurveto
          -9 -55 -4 -47 -18 234 callsubr
          11 106 52 218 45 vvcurveto
          1 vlineto
          11 18 6 19 19 13 callgsubr
          177 -105 callsubr
        </CharString>
        <CharString name="dvNY_CA">
          642 98 -76 callsubr
          959 16 callgsubr
          -21 -18 -16 -19 -12 -21 -35 -7 -44 -12 -36 -9 -38 -9 -41 -6 -35 -6 rrcurveto
          6 21 3 21 20 vvcurveto
          -2 callgsubr
          97 75 54 67 46 vhcurveto
          9 hlineto
          43 108 16 25 85 hvcurveto
          -62 4 46 -45 78 hhcurveto
          87 72 35 55 58 hvcurveto
          -12 -54 -11 -42 -14 vvcurveto
          -44 55 -47 20 35 24 -105 callgsubr
        </CharString>
        <CharString name="dvN_DA_MatraU">
          428 119 callsubr
          -128 497 -106 callgsubr
          692 hlineto
          125 callsubr
          20 -59 -98 8 -74 hhcurveto
          -75 callsubr
          47 56 1 40 hhcurveto
          -27 -46 -17 -46 -35 vvcurveto
          138 callgsubr
          7 8 0 1 7 vhcurveto
          -93 callsubr
        </CharString>
        <CharString name="dvN_DA_MatraUU">
          431 563 -279 25 callgsubr
          -308 444 -77 callsubr
          -128 497 -106 callgsubr
          692 hlineto
          125 callsubr
          20 -59 -98 8 -74 hhcurveto
          -75 callsubr
          47 56 1 40 hhcurveto
          -27 -46 -17 -46 -35 vvcurveto
          138 callgsubr
          vhcurveto
          -90 callgsubr
        </CharString>
        <CharString name="dvN_TA.aTRAD">
          197 424 137 rmoveto
          -22 -9 -21 -21 -21 -20 9 14 13 25 20 40 21 vhcurveto
          4 -10 2 -12 -12 vvcurveto
          -396 525 -106 callgsubr
          589 hlineto
          -10 -44 -9 -45 -10 -51 rrcurveto
          21 -63 -77 17 -102 hhcurveto
          -197 -106 -95 -124 -119 94 -112 57 28 13 13 20 hvcurveto
          49 -69 34 92 vvcurveto
          91 77 43 115 74 65 -14 -15 53 vhcurveto
          -137 -39 -152 -74 -78 vvcurveto
          -56 74 -54 64 80 34 64 55 30 -6 24 -9 21 vhcurveto
          20 8 21 7 21 7 rrcurveto
          -9 -73 -4 -58 -38 vvcurveto
          -24 46 -38 26 34 14 180 133 29 vhcurveto
          21 93 29 105 8 44 rrcurveto
          101 -105 callsubr
        </CharString>
        <CharString name="dvSHA_MatraVocalicR">
          274 242 callsubr
          322 318 callgsubr
          12 hlineto
          -22 -148 -65 1 -56 6 -45 11 rlinecurve
          179 callgsubr
          63 -25 81 -15 98 -3 -13 -90 -16 -96 -4 -37 rrcurveto
          -100 -19 -119 -92 -87 vvcurveto
          -82 68 -29 109 69 82 18 36 18 -18 33 -29 vhcurveto
          -21 -16 -19 -74 hhcurveto
          -43 -35 9 18 39 100 74 78 hvcurveto
          4 hlineto
          2 hlineto
          55 12 155 -50 callsubr
          122 -105 callsubr
        </CharString>
        <CharString name="dvSH_VA.aSimp">
          561 290 510 -78 callsubr
          632 -110 -70 callsubr
          -103 445 111 callgsubr
          -146 -79 -175 -132 -90 26 -73 172 callsubr
          hvcurveto
          -94 callsubr
        </CharString>
        <CharString name="dvS_DA_MatraU">
          491 882 554 rmoveto
          125 callsubr
          -43 -10 -56 -15 -61 -12 117 callgsubr
          -459 108 95 callsubr
          62 2 73 9 66 14 rrcurveto
          -13 -30 -8 -28 -24 vvcurveto
          138 callgsubr
          7 8 0 1 7 vhcurveto
          -93 callsubr
        </CharString>
        <CharString name="dvS_DA_MatraUU">
          494 882 554 rmoveto
          125 callsubr
          -43 -10 -56 -15 -61 -12 117 callgsubr
          114 -833 25 callgsubr
          -573 941 95 callsubr
          62 2 73 9 66 14 rrcurveto
          -13 -30 -8 -28 -24 vvcurveto
          138 callgsubr
          vhcurveto
          -90 callgsubr
        </CharString>
        <CharString name="dvTTH_TTHA">
          64 289 219 rmoveto
          -39 -31 7 22 202 callgsubr
          hvcurveto
          -98 -422 rmoveto
          -39 -31 7 22 202 callgsubr
          hvcurveto
          -113 865 -106 callgsubr
          337 231 callgsubr
          vhcurveto
          13 12 1 13 hhcurveto
          -2 -8 -1 -9 -2 -9 -2 -10 -3 -8 -2 -6 rrcurveto
          -138 -8 -160 -143 -96 vvcurveto
          334 callgsubr
          51 -36 72 -57 36 vhcurveto
          3 10 rlineto
          7 20 10 34 29 vvcurveto
          101 32 70 66 72 288 callgsubr
          213 -105 callsubr
        </CharString>
        <CharString name="dvTT_GA">
          59 113 -169 rmoveto
          -18 -27 26 19 19 30 6 30 12 14 -1 -2 16 hvcurveto
          -41 -14 -20 -26 -23 hhcurveto
          -28 831 -106 callgsubr
          391 26 callsubr
          -111 -174 -186 -117 -55 32 -39 48 -24 hvcurveto
          -1 -11 -1 -13 -12 vvcurveto
          -23 -2 -23 -2 -22 vhcurveto
          3 -20 -19 2 -24 hhcurveto
          -86 -65 -35 -59 -72 69 -80 72 112 70 149 151 hvcurveto
          19 vlineto
          -1 11 12 -1 12 hhcurveto
          24 24 2 4 21 hvcurveto
          -35 -87 -27 -121 -62 127 callsubr
          170 -105 callsubr
        </CharString>
        <CharString name="dvT_KH_NA">
          658 1086 494 235 callgsubr
          -63 42 -51 63 -15 hvcurveto
          280 callgsubr
          -41 -30 17 24 -26 hvcurveto
          111 47 68 107 86 55 callsubr
          -198 -427 83 callgsubr
          -716 753 232 callsubr
          -60 -60 -50 -84 -26 hvcurveto
          -11 11 -17 9 -20 9 -9 4 -11 4 -11 2 rrcurveto
          19 -62 -78 9 -50 36 callsubr
          31 28 -2 -3 24 vhcurveto
          13 -46 53 -23 59 -5 rrcurveto
          -76 59 83 -55 97 hhcurveto
          89 109 39 59 89 hvcurveto
          -10 -47 -9 -37 -2 -16 rrcurveto
          -13 hlineto
          54 callgsubr
          22 17 -2 -5 15 hvcurveto
          -3 6 5 212 callgsubr
          143 -105 callsubr
        </CharString>
        <CharString name="dvT_S_NA">
          741 1128 439 rmoveto
          -74 -32 -99 -31 -99 -18 rrcurveto
          21 36 12 41 42 -26 callgsubr
          270 hlineto
          -258 -498 -24 callgsubr
          -832 606 -106 callgsubr
          473 -93 callgsubr
          -54 -19 21 14 -20 hvcurveto
          36 -43 -81 24 -67 hhcurveto
          -163 -82 -60 -106 -107 119 -121 322 callsubr
          59 -129 40 80 vvcurveto
          38 35 28 87 52 41 -13 -10 32 vhcurveto
          8 -33 25 -43 38 -58 rrcurveto
          52 callgsubr
        </CharString>
        <CharString name="e">
          -71 302 405 -65 callgsubr
        </CharString>
        <CharString name="eacute">
          -105 92 callsubr
          -5 146 55 callgsubr
        </CharString>
        <CharString name="ecaron">
          -105 268 546 -16 callgsubr
          24 -141 -65 callgsubr
        </CharString>
        <CharString name="ecircumflex">
          -105 163 570 37 callsubr
          129 -165 -65 callgsubr
        </CharString>
        <CharString name="edieresis">
          -105 397 563 rmoveto
          227 callgsubr
          -21 callgsubr
          hvcurveto
          -178 hmoveto
          227 callgsubr
          -21 callgsubr
          hvcurveto
          73 -158 -65 callgsubr
        </CharString>
        <CharString name="edotaccent">
          -105 302 549 rmoveto
          20 25 25 17 26 -45 91 -29 -29 -33 -41 -29 -32 54 -57 37 hvcurveto
          -10 -144 -65 callgsubr
        </CharString>
        <CharString name="egrave">
          -105 253 596 rmoveto
          1 callgsubr
          -34 -34 1 -42 26 -17 rrcurveto
          145 -258 -65 callgsubr
        </CharString>
        <CharString name="eight">
          31 366 221 rmoveto
          -51 -85 -36 -42 -5 -25 17 10 22 54 43 67 53 vhcurveto
          22 -21 14 -20 -17 vvcurveto
          227 376 rmoveto
          103 -71 45 -99 -148 -96 -63 -63 -28 47 -30 25 vhcurveto
          43 47 60 81 hhcurveto
          25 9 -14 -14 -39 -59 -51 -72 -57 hvcurveto
          -49 39 -51 38 -38 39 rrcurveto
          27 -27 -23 38 -24 hhcurveto
          -23 -12 -60 -34 -52 74 -59 74 -57 hvcurveto
          -83 -70 -73 -76 -77 vvcurveto
          -61 104 -66 52 117 163 85 97 60 -33 53 -47 48 vhcurveto
          87 76 80 85 78 vvcurveto
          endchar
        </CharString>
        <CharString name="ellipsis">
          236 191 callgsubr
          298 hmoveto
          -39 67 -69 43 24 30 31 20 33 -53 108 -36 -35 -40 -49 -35 vhcurveto
          300 hmoveto
          267 callgsubr
        </CharString>
        <CharString name="emacron">
          -105 156 572 rmoveto
          202 callsubr
          -29 callsubr
          136 -167 -65 callgsubr
        </CharString>
        <CharString name="emdash">
          409 780 383 rmoveto
          -87 -649 -5 -78 -32 26 -47 31 hvcurveto
          21 -1 156 20 181 19 rrcurveto
          162 19 321 9 57 vvcurveto
          20 -38 19 -124 vhcurveto
          endchar
        </CharString>
        <CharString name="endash">
          65 606 360 rmoveto
          20 -23 13 -52 vhcurveto
          -148 1 -339 -54 -38 vvcurveto
          -33 37 -48 31 vhcurveto
          20 -1 59 20 77 16 rrcurveto
          190 36 148 23 45 vvcurveto
          endchar
        </CharString>
        <CharString name="eogonek">
          -105 292 405 rmoveto
          171 callsubr
          94 callgsubr
          -40 -191 rmoveto
          118 callgsubr
          -120 -151 -192 -142 -87 53 -79 109 -14 hvcurveto
          -22 -32 -15 -33 -29 -30 callgsubr
          8 6 6 6 5 7 rrcurveto
          46 21 31 30 29 vvcurveto
          16 -10 11 -31 vhcurveto
          -28 -30 -28 -126 hhcurveto
          -51 -3 17 36 15 3 18 6 18 hvcurveto
          -6 27 36 -4 44 hhcurveto
          endchar
        </CharString>
        <CharString name="equal">
          113 621 444 rmoveto
          41 -82 3 -61 -83 -291 7 -48 -25 32 -60 26 55 94 6 9 83 vhcurveto
          84 8 143 19 40 vvcurveto
          -32 -161 rmoveto
          24 -42 6 -65 -58 -362 -33 -25 -25 32 -60 26 70 86 7 8 64 vhcurveto
          146 20 103 36 42 vvcurveto
          endchar
        </CharString>
        <CharString name="eth">
          229 callsubr
          299 522 rmoveto
          11 -12 11 -15 -10 -31 -10 -14 -39 vhcurveto
          60 -48 -60 35 -45 hhcurveto
          266 callsubr
          4 -4 4 -4 3 -4 rrcurveto
          -53 -17 -54 -15 -30 vvcurveto
          -17 16 -7 17 19 43 10 16 49 vhcurveto
          12 -31 6 -32 2 -34 240 callgsubr
          63 -17 57 -25 47 hvcurveto
          41 20 30 20 16 vvcurveto
          endchar
        </CharString>
        <CharString name="exclam">
          -81 374 715 rmoveto
          25 -91 83 -42 -16 -16 -8 -21 -300 -49 -138 7 -34 vhcurveto
          -39 1 42 -47 37 hhcurveto
          52 75 419 60 hvcurveto
          -115 -669 rmoveto
          32 -51 103 -32 -33 -37 -46 -32 -37 64 -65 40 22 27 28 17 vhcurveto
          endchar
        </CharString>
        <CharString name="exclamdown">
          -134 90 33 rmoveto
          -25 91 -83 42 16 16 8 21 300 49 138 -7 34 vhcurveto
          39 -1 -42 47 -37 hhcurveto
          -52 -75 -419 -60 hvcurveto
          115 669 rmoveto
          -32 51 -103 32 33 37 46 32 37 -64 65 -40 -22 -27 -28 -17 vhcurveto
          endchar
        </CharString>
        <CharString name="f">
          -124 378 669 rmoveto
          38 -12 -121 58 hhcurveto
          30 18 33 55 87 -65 68 -60 -134 -51 -104 -261 -45 hvcurveto
          -33 -6 -28 -6 -23 -8 rrcurveto
          -38 -12 -23 -15 -15 vvcurveto
          -43 38 -31 38 13 14 3 5 19 vhcurveto
          -30 -151 -29 -39 8 -18 rrcurveto
          -27 2 44 -50 22 hhcurveto
          44 28 137 177 42 hvcurveto
          107 16 111 18 47 vvcurveto
          20 -23 19 -52 -39 -39 -2 -2 -38 vhcurveto
          103 23 27 123 38 hhcurveto
          endchar
        </CharString>
        <CharString name="fi">
          -41 358 669 rmoveto
          38 50 -117 58 hhcurveto
          30 18 35 55 87 -127 62 -60 -131 -52 -98 -246 -44 hvcurveto
          -46 -6 -41 -9 -26 -11 rrcurveto
          -23 -9 -12 -12 -11 vvcurveto
          -37 34 -39 39 8 20 2 4 26 vhcurveto
          -33 -168 -32 -42 9 -19 rrcurveto
          -27 2 44 -50 22 hhcurveto
          45 29 144 185 43 hvcurveto
          49 8 47 8 29 2 rrcurveto
          -10 -65 -51 -162 -53 vvcurveto
          -47 1 29 -20 21 hhcurveto
          31 12 7 32 10 hvcurveto
          63 209 51 97 54 vvcurveto
          34 -2 -20 21 -53 hhcurveto
          -32 -70 -1 -5 -77 hvcurveto
          99 22 26 109 36 hhcurveto
          endchar
        </CharString>
        <CharString name="five">
          -53 576 695 rmoveto
          30 -78 14 -105 -89 -21 -1 -6 -34 vhcurveto
          -56 -10 -80 -153 -70 -147 189 -29 -75 vvcurveto
          -52 -93 -62 -63 vhcurveto
          -68 -32 74 -35 hhcurveto
          -14 -10 -22 -25 -78 94 -74 106 120 152 117 125 hvcurveto
          111 -190 67 71 vvcurveto
          26 26 69 28 7 vhcurveto
          111 26 142 23 44 vvcurveto
          endchar
        </CharString>
        <CharString name="fl">
          -44 101 480 rmoveto
          -58 -44 -22 -25 -26 30 -49 43 -2 hvcurveto
          11 hlineto
          -15 -88 -20 -85 -18 -67 rrcurveto
          -54 -15 50 -49 28 hhcurveto
          31 1 6 21 19 47 29 73 26 99 16 104 54 6 64 20 50 38 -17 -91 -26 -95 -38 -87 rrcurveto
          -66 -25 23 -71 70 hhcurveto
          14 16 24 31 14 hvcurveto
          55 114 72 355 7 147 rrcurveto
          76 4 -51 32 -48 hhcurveto
          -14 -12 -16 -38 -8 hvcurveto
          -8 -28 -4 -40 -2 -53 2 -77 -89 -37 -88 -15 2 25 1 24 1 23 rrcurveto
          73 15 37 19 vhcurveto
          22 10 -21 20 hhcurveto
          30 11 24 23 42 -36 54 -77 -73 -63 -45 -109 -2 hvcurveto
          -1 -47 -5 -54 -7 -56 rrcurveto
          endchar
        </CharString>
        <CharString name="florin">
          -34 211 394 rmoveto
          -94 -15 -70 -22 -26 vvcurveto
          -42 37 -54 38 15 19 7 8 25 vhcurveto
          -199 -43 -34 -120 -42 -66 -11 326 callsubr
          142 57 143 323 67 hvcurveto
          118 19 87 33 40 vvcurveto
          21 -24 19 -52 -34 -35 -1 -2 -35 vhcurveto
          116 24 35 142 42 37 -12 -122 58 hhcurveto
          31 17 33 55 87 -65 68 -60 -151 -60 -110 -234 -48 hvcurveto
          endchar
        </CharString>
        <CharString name="four">
          -14 418 579 rmoveto
          -16 -15 -9 -21 -47 -5 -46 -8 -44 hvcurveto
          -13 -45 -64 -42 -58 hhcurveto
          -18 -4 2 14 hvcurveto
          46 187 224 39 vvcurveto
          32 -48 42 -31 -56 -190 -286 -98 -86 57 -54 82 50 53 9 16 46 vhcurveto
          -25 -84 -26 -67 -41 vvcurveto
          -35 42 -48 24 53 125 439 60 33 -78 65 -32 vhcurveto
          endchar
        </CharString>
        <CharString name="fraction">
          151 callgsubr
        </CharString>
        <CharString name="g">
          -78 143 151 -8 callgsubr
          endchar
        </CharString>
        <CharString name="gbreve">
          -88 132 151 -8 callgsubr
          83 445 98 callsubr
        </CharString>
        <CharString name="germandbls">
          40 456 369 rmoveto
          33 98 33 86 vvcurveto
          74 -84 129 -119 -129 -71 -70 -133 -23 vhcurveto
          -24 -148 -76 -226 -64 vvcurveto
          -29 40 -44 28 67 67 324 124 25 vhcurveto
          78 15 28 59 44 hhcurveto
          31 36 -46 -42 hvcurveto
          -54 -110 -32 -33 -67 120 -30 -97 vvcurveto
          -56 -75 -13 -40 vhcurveto
          -20 -9 2 -13 hhcurveto
          -22 -12 -10 -24 -42 38 -39 73 118 91 91 91 hvcurveto
          117 -92 36 22 vvcurveto
          endchar
        </CharString>
        <CharString name="grave">
          -99 852 rmoveto
          -34 -34 1 -42 26 -17 106 -67 rcurveline
          1 callgsubr
          rrcurveto
          endchar
        </CharString>
        <CharString name="greater">
          57 152 607 rmoveto
          -18 -5 -10 -16 -25 58 -70 30 -10 hvcurveto
          65 -21 140 -88 -20 -39 -329 -151 -75 vvcurveto
          -23 17 -12 29 48 46 19 105 165 vhcurveto
          114 72 56 45 53 vvcurveto
          16 -14 24 -28 29 vhcurveto
          84 -77 -171 113 -126 hhcurveto
          endchar
        </CharString>
        <CharString name="greaterequal">
          56 151 574 rmoveto
          -18 -5 -9 -17 -25 32 -60 16 1 hvcurveto
          68 3 201 -41 -20 -28 -366 -45 -64 vvcurveto
          -23 17 -13 29 38 80 15 19 77 vhcurveto
          93 24 93 32 41 28 19 13 13 44 3 21 rrcurveto
          56 14 -244 89 -201 hhcurveto
          -97 -478 rmoveto
          -19 46 -12 37 150 240 59 26 35 -40 43 -29 -35 -45 -25 -26 -109 vhcurveto
          -111 -29 -104 -23 -29 vvcurveto
          endchar
        </CharString>
        <CharString name="guillemotleft">
          -133 245 168 callgsubr
          315 -26 rmoveto
          -57 -110 -46 -31 -48 hvcurveto
          -21 -14 -23 -34 -16 vvcurveto
          -71 150 -89 83 24 12 8 19 2 vhcurveto
          46 -160 36 41 vvcurveto
          21 43 30 146 15 vhcurveto
          20 3 10 6 1 15 rrcurveto
          22 -49 39 -23 vhcurveto
          endchar
        </CharString>
        <CharString name="guillemotright">
          274 201 475 rmoveto
          -27 -47 -38 -21 -17 10 -5 19 -3 hvcurveto
          122 -16 34 -24 -13 -42 -220 -46 -45 vvcurveto
          -17 15 -12 24 83 210 96 71 56 -170 76 -53 vhcurveto
          274 26 330 callsubr
          117 302 callsubr
          49 96 32 61 86 vhcurveto
          22 16 15 42 22 vvcurveto
          51 -175 106 -37 vhcurveto
          endchar
        </CharString>
        <CharString name="guilsinglleft">
          50 353 168 callgsubr
          endchar
        </CharString>
        <CharString name="guilsinglright">
          45 243 501 330 callsubr
          116 302 callsubr
          50 96 32 61 85 vhcurveto
          22 16 15 42 22 vvcurveto
          51 -174 106 -37 vhcurveto
          endchar
        </CharString>
        <CharString name="h">
          4 183 808 rmoveto
          -22 -11 -17 -25 -25 -40 -187 -29 -138 hvcurveto
          -32 -158 -40 -137 8 -13 rrcurveto
          -29 1 56 -67 30 hhcurveto
          36 35 57 73 42 hvcurveto
          90 52 67 103 51 hhcurveto
          9 -3 -10 -13 -18 -3 -22 -2 -11 hvcurveto
          -13 -58 -29 -80 -64 vvcurveto
          -35 12 -12 21 59 59 133 117 23 vhcurveto
          8 43 5 43 34 vvcurveto
          47 -69 99 -42 -65 -107 -121 -177 -87 vhcurveto
          47 162 70 207 84 vvcurveto
          47 -61 78 -36 vhcurveto
          endchar
        </CharString>
        <CharString name="hungarumlaut">
          32 875 -1 callgsubr
          endchar
        </CharString>
        <CharString name="hyphen">
          -28 209 callgsubr
        </CharString>
        <CharString name="i">
          -299 138 528 rmoveto
          -36 -15 -146 -96 -21 hvcurveto
          -23 -97 -26 -98 5 -24 rrcurveto
          -26 2 22 -28 21 hhcurveto
          31 17 7 32 10 hvcurveto
          40 122 63 209 28 vvcurveto
          44 -40 73 -50 vhcurveto
          139 66 rmoveto
          40 -53 100 -31 -32 -38 -48 -32 -36 66 -67 39 22 27 20 23 vhcurveto
          endchar
        </CharString>
        <CharString name="iacute">
          -299 317 762 -65 callsubr
          -67 -351 4 callgsubr
          endchar
        </CharString>
        <CharString name="icircumflex">
          -299 304 684 -28 callsubr
          -54 -273 4 callgsubr
          endchar
        </CharString>
        <CharString name="idieresis">
          -299 195 605 rmoveto
          -21 callgsubr
          227 callgsubr
          vhcurveto
          178 hmoveto
          -21 callgsubr
          227 callgsubr
          vhcurveto
          -123 -194 4 callgsubr
          endchar
        </CharString>
        <CharString name="igrave">
          176 callgsubr
          -166 345 rmoveto
          -34 -34 1 -42 26 -17 106 -67 rcurveline
          1 callgsubr
          rrcurveto
          endchar
        </CharString>
        <CharString name="imacron">
          176 callgsubr
          -23 184 rmoveto
          -29 callsubr
          202 callsubr
          endchar
        </CharString>
        <CharString name="infinity">
          258 555 187 rmoveto
          -29 -28 22 30 -21 hvcurveto
          67 77 67 61 26 hhcurveto
          2 1 1 -2 -62 -37 -117 -58 hvcurveto
          -366 5 rmoveto
          -5 -5 0 8 39 65 116 33 26 22 -33 -29 22 hvcurveto
          -56 -65 -57 -45 -36 hhcurveto
          460 314 rmoveto
          -57 -88 -74 -76 -86 hvcurveto
          63 -26 -54 76 -74 hhcurveto
          -131 -91 -217 -85 -63 90 -65 71 51 73 51 59 74 hvcurveto
          -61 37 53 -47 76 hhcurveto
          134 84 202 100 53 -68 84 -68 hvcurveto
          endchar
        </CharString>
        <CharString name="integral">
          -8 584 670 rmoveto
          65 -79 57 -56 -129 -33 -144 -337 -85 vhcurveto
          -203 -51 -13 -177 -61 -44 -12 326 callsubr
          128 48 178 319 73 hvcurveto
          215 50 31 149 35 65 -2 -37 18 hhcurveto
          11 8 6 23 hvcurveto
          endchar
        </CharString>
        <CharString name="iogonek">
          -299 103 -70 rmoveto
          -3 -17 -11 2 -5 hhcurveto
          -14 -5 4 6 10 23 23 29 22 hvcurveto
          12 9 9 10 6 10 7 6 6 9 4 14 rrcurveto
          40 122 63 209 28 vvcurveto
          44 -40 73 -50 -36 -15 -146 -96 -21 vhcurveto
          -21 -89 -23 -89 -1 -33 rrcurveto
          -53 -44 -66 -79 -60 vvcurveto
          -31 41 -31 47 22 32 2 7 39 vhcurveto
          41 6 25 28 -9 24 -11 26 -24 13 -24 -6 rrcurveto
          endchar
        </CharString>
        <CharString name="itfLogo">
          1089 147 hmoveto
          206 callgsubr
          236 -634 rmoveto
          206 callgsubr
          236 -634 rmoveto
          206 callgsubr
          -410 vmoveto
          196 185 -196 hlineto
          endchar
        </CharString>
        <CharString name="itfStar">
          113 663 452 rmoveto
          -28 -200 -6 -2 -34 hvcurveto
          -66 246 -8 -27 -53 -188 -8 -31 rlinecurve
          -261 8 25 -15 168 -108 28 -17 rlinecurve
          -96 -247 24 20 152 128 29 20 rlinecurve
          204 -168 -11 28 -71 189 -12 30 rlinecurve
          endchar
        </CharString>
        <CharString name="j">
          -299 305 594 rmoveto
          40 -52 100 -32 -32 -38 -48 -32 -36 66 -67 40 20 28 20 23 vhcurveto
          -197 -139 rmoveto
          -165 -54 -74 -439 -71 hhcurveto
          -21 -13 10 27 -22 hvcurveto
          24 -20 -21 31 -21 hhcurveto
          -23 -28 -50 -30 -41 81 -78 73 92 84 51 134 38 hvcurveto
          45 151 89 298 29 vvcurveto
          59 -50 62 -39 -16 -11 -13 -60 -18 vhcurveto
          endchar
        </CharString>
        <CharString name="k">
          -66 520 437 100 callgsubr
        </CharString>
        <CharString name="l">
          -293 229 374 20 callsubr
          endchar
        </CharString>
        <CharString name="lacute">
          -325 374 988 -65 callsubr
          -146 -614 20 callsubr
          endchar
        </CharString>
        <CharString name="lcaron">
          -58 228 374 20 callsubr
          88 176 143 callgsubr
        </CharString>
        <CharString name="less">
          -84 435 606 rmoveto
          -87 -243 -169 -59 -65 hvcurveto
          -17 -15 -13 -60 -23 vvcurveto
          -85 283 -149 84 27 22 9 22 vhcurveto
          50 -254 117 53 vvcurveto
          29 210 125 93 43 vhcurveto
          18 9 8 8 15 vvcurveto
          21 -29 59 -37 vhcurveto
          endchar
        </CharString>
        <CharString name="lessequal">
          -77 454 574 rmoveto
          -102 -181 -60 -50 -71 hvcurveto
          -22 -14 -18 -50 -23 vvcurveto
          -85 291 -63 73 38 21 15 22 vhcurveto
          50 -283 56 17 vvcurveto
          25 151 20 144 29 vhcurveto
          20 4 6 12 15 vvcurveto
          22 -29 58 -38 vhcurveto
          34 -480 rmoveto
          30 -100 22 -113 31 vhcurveto
          27 -108 -46 24 -34 hhcurveto
          -30 -39 -43 -35 -26 250 -60 137 37 46 12 18 hvcurveto
          endchar
        </CharString>
        <CharString name="logicalnot">
          -63 83 503 rmoveto
          -18 -5 -8 -17 -30 43 -78 52 hvcurveto
          122 55 9 56 hhcurveto
          28 79 2 -11 hvcurveto
          -92 -114 -165 -19 vvcurveto
          -16 10 -11 19 85 133 225 85 39 -28 68 -41 8 vhcurveto
          9 -44 -85 2 -18 hhcurveto
          endchar
        </CharString>
        <CharString name="lozenge">
          -137 201 614 rmoveto
          -56 -136 -218 -69 -27 82 -209 15 -4 hvcurveto
          -8 10 50 -25 32 hhcurveto
          53 138 203 81 13 -11 22 -12 28 hvcurveto
          -33 73 -22 97 -18 10 rrcurveto
          9 -16 -44 24 -32 hhcurveto
          90 -270 rmoveto
          -30 -67 -36 -64 -58 -63 -12 39 -28 99 -11 30 27 72 35 55 50 52 16 -36 25 -67 22 -50 rrcurveto
          endchar
        </CharString>
        <CharString name="lslash">
          -176 305 480 rmoveto
          11 79 8 87 36 vvcurveto
          54 -71 72 -30 -23 -7 -12 -17 -116 -13 -110 -17 -97 vhcurveto
          -73 -16 -48 -19 3 -24 3 -22 34 -37 29 4 8 1 10 3 13 4 -34 -154 -36 -99 13 6 rrcurveto
          -28 1 55 -63 29 hhcurveto
          32 53 222 140 32 hvcurveto
          5 24 77 26 32 16 -3 24 rlinecurve
          -3 21 -26 3 -48 -6 rrcurveto
          endchar
        </CharString>
        <CharString name="m">
          260 698 528 rmoveto
          -82 -101 -126 -94 -32 hvcurveto
          5 27 -1 40 19 vvcurveto
          53 -70 81 -33 -89 -69 -151 -136 -58 vhcurveto
          22 75 21 71 60 vvcurveto
          32 -55 57 -54 -43 26 -177 -143 -42 vhcurveto
          -15 -49 -15 -38 3 -29 rrcurveto
          -21 1 54 -67 31 hhcurveto
          38 60 91 52 30 hvcurveto
          165 99 4 50 31 hhcurveto
          9 0 -16 -23 hvcurveto
          -156 -33 -49 -37 vvcurveto
          -30 48 -46 26 37 16 63 63 34 vhcurveto
          164 82 42 67 28 hhcurveto
          9 -2 -18 -19 hvcurveto
          -77 -49 -115 -82 vvcurveto
          -35 12 -12 21 90 55 294 79 40 -33 103 -58 vhcurveto
          endchar
        </CharString>
        <CharString name="macron">
          44 595 rmoveto
          -29 callsubr
          202 callsubr
          endchar
        </CharString>
        <CharString name="minus">
          41 95 267 rmoveto
          89 413 14 91 23 -49 6 -68 -48 -172 -7 -4 -45 hvcurveto
          -7 -72 -68 -2 282 callsubr
          hvcurveto
          endchar
        </CharString>
        <CharString name="multiply">
          -126 496 483 rmoveto
          32 -49 49 -25 -40 -66 -76 -79 -70 vhcurveto
          -22 37 -15 34 27 vvcurveto
          32 -95 24 -51 -17 -1 -11 -17 -28 52 -95 66 -94 vhcurveto
          -87 -89 -58 -43 -15 vvcurveto
          -25 38 -49 39 25 36 39 85 82 vhcurveto
          -70 59 61 -54 40 hhcurveto
          21 11 14 24 29 -55 67 -55 73 hvcurveto
          120 120 56 44 15 vvcurveto
          endchar
        </CharString>
        <CharString name="n">
          -5 393 528 -52 callgsubr
        </CharString>
        <CharString name="nacute">
          -7 496 646 100 callsubr
          5 -63 -52 callgsubr
        </CharString>
        <CharString name="ncaron">
          -7 301 546 -16 callgsubr
          91 -18 -52 callgsubr
        </CharString>
        <CharString name="nine">
          -53 187 435 rmoveto
          70 95 123 29 10 12 -27 -24 vhcurveto
          -29 -4 -18 -21 vvcurveto
          -10 9 -8 19 -4 vhcurveto
          -43 -37 -42 -50 -48 hhcurveto
          -22 -21 21 20 hvcurveto
          312 60 rmoveto
          4 -2 5 -2 5 vhcurveto
          -5 20 -19 13 -26 5 rrcurveto
          4 17 1 18 20 vvcurveto
          66 -34 87 -96 -115 -139 -171 -148 -57 91 -100 64 23 27 6 11 28 vhcurveto
          -16 -68 -11 -68 1 -49 1 -61 11 -54 33 1 rrcurveto
          40 35 201 133 43 hvcurveto
          11 31 16 37 13 33 rrcurveto
          14 22 9 21 20 vvcurveto
          endchar
        </CharString>
        <CharString name="notequal">
          25 448 488 rmoveto
          5 15 4 14 3 11 rrcurveto
          11 36 8 23 15 vvcurveto
          22 -14 17 -20 -44 -25 -46 -107 -45 vhcurveto
          -107 -2 -120 -8 -31 vvcurveto
          -25 32 -60 26 31 43 2 3 46 vhcurveto
          -14 -34 -13 -31 rlineto
          -98 -8 -92 -10 -13 vvcurveto
          -26 -1 29 -61 26 hhcurveto
          28 -1 30 0 30 1 rrcurveto
          -20 -52 -10 -31 -16 vvcurveto
          -19 15 -14 18 20 40 58 78 42 vhcurveto
          27 2 147 14 104 33 1 41 rlinecurve
          1 24 -41 7 -65 2 -17 1 -44 -1 -52 -2 11 23 11 23 9 23 rrcurveto
          85 9 132 19 38 vvcurveto
          41 -82 3 -61 vhcurveto
          endchar
        </CharString>
        <CharString name="ntilde">
          -7 171 558 rmoveto
          12 callgsubr
          154 callgsubr
          221 -30 -52 callgsubr
        </CharString>
        <CharString name="numbersign">
          221 444 469 rmoveto
          15 2 17 2 18 2 -13 -60 -15 -62 -14 -56 -35 -2 -36 -1 -36 -3 18 62 17 58 14 51 rrcurveto
          269 127 rmoveto
          6 26 3 19 11 vvcurveto
          54 -79 49 -30 -23 -7 -12 -17 -35 -6 -46 -10 -51 vhcurveto
          -29 -1 -30 -2 -31 -1 rrcurveto
          7 28 4 22 12 vvcurveto
          54 -80 49 -29 -23 -7 -12 -17 -1 vhcurveto
          -42 -7 -51 -10 -56 vhcurveto
          -99 -12 -78 -19 -32 vvcurveto
          -33 20 -47 24 10 40 6 9 55 vhcurveto
          -13 -57 -15 -57 -13 -50 rrcurveto
          -86 -12 -64 -19 -29 vvcurveto
          -33 20 -48 24 1 vhcurveto
          8 27 4 6 39 hvcurveto
          -4 -24 -1 -15 3 -5 rrcurveto
          -59 1 24 -49 29 hhcurveto
          30 21 73 98 27 hvcurveto
          29 5 31 4 31 4 25 3 rcurveline
          -12 -53 -6 -38 5 -11 rrcurveto
          -42 1 15 -43 26 hhcurveto
          36 30 79 122 34 hvcurveto
          87 11 81 16 37 vvcurveto
          21 0 18 -99 vhcurveto
          -41 hlineto
          20 69 19 66 15 56 rrcurveto
          72 11 58 17 31 vvcurveto
          21 -1 0 18 -97 hhcurveto
          endchar
        </CharString>
        <CharString name="o">
          -103 145 callgsubr
          endchar
        </CharString>
        <CharString name="oacute">
          -107 421 762 -65 callsubr
          10 -409 -51 callgsubr
          endchar
        </CharString>
        <CharString name="ocircumflex">
          -107 408 684 -28 callsubr
          23 -331 -51 callgsubr
          endchar
        </CharString>
        <CharString name="odieresis">
          -107 299 605 rmoveto
          -21 callgsubr
          227 callgsubr
          vhcurveto
          178 hmoveto
          -21 callgsubr
          227 callgsubr
          vhcurveto
          -46 -252 -51 callgsubr
          endchar
        </CharString>
        <CharString name="oe">
          347 92 callsubr
          324 -414 rmoveto
          -11 15 -1 35 33 vvcurveto
          70 69 135 59 34 vhcurveto
          16 -21 2 -48 -25 vvcurveto
          -72 -58 -122 -76 -34 vhcurveto
          87 415 rmoveto
          -102 -131 -179 -170 -94 63 -74 72 154 122 178 163 89 -77 87 -101 hvcurveto
          endchar
        </CharString>
        <CharString name="ogonek">
          50 -13 rmoveto
          32 25 14 33 -20 22 -20 23 -31 5 -23 -18 rrcurveto
          -55 -41 -76 -87 -64 -30 callgsubr
          endchar
        </CharString>
        <CharString name="ograve">
          142 callgsubr
          -94 320 rmoveto
          -34 -34 1 -42 26 -17 106 -67 rcurveline
          1 callgsubr
          rrcurveto
          endchar
        </CharString>
        <CharString name="ohungarumlaut">
          -107 319 779 -1 callgsubr
          -81 -410 -51 callgsubr
          endchar
        </CharString>
        <CharString name="omacron">
          -107 331 595 rmoveto
          -29 callsubr
          202 callsubr
          100 -242 -51 callgsubr
          endchar
        </CharString>
        <CharString name="one">
          -257 239 343 rmoveto
          35 137 24 92 -1 76 rrcurveto
          23 -90 80 -43 -15 -14 -8 -21 vhcurveto
          3 -338 -93 -214 1 -71 rrcurveto
          -38 53 -48 29 47 23 171 159 41 vhcurveto
          endchar
        </CharString>
        <CharString name="onehalf">
          299 114 80 callsubr
          92 -705 rmoveto
          -36 -61 -8 -10 -49 hvcurveto
          74 37 117 118 98 vvcurveto
          68 -33 55 -85 -85 -54 -60 -47 -15 54 -38 17 vhcurveto
          11 14 55 43 hhcurveto
          11 8 -7 -16 hvcurveto
          -86 -231 -135 -38 vvcurveto
          -34 59 -50 31 62 199 42 41 21 -25 9 -41 vhcurveto
          endchar
        </CharString>
        <CharString name="onequarter">
          264 108 80 callsubr
          84 -476 rmoveto
          -11 -10 -7 -13 -30 -2 -28 -4 -27 hvcurveto
          -10 -32 -44 -27 -40 hhcurveto
          -12 -4 1 11 hvcurveto
          31 126 144 27 vvcurveto
          23 -37 37 -22 -39 -133 -187 -81 -59 51 -37 68 310 callsubr
          18 -31 24 50 71 301 41 23 -58 46 -22 vhcurveto
          endchar
        </CharString>
        <CharString name="onesuperior">
          -398 172 513 rmoveto
          14 58 12 51 41 vvcurveto
          13 -1 -52 45 -23 hhcurveto
          -8 -8 -3 -12 hvcurveto
          2 -187 -40 -102 -39 vvcurveto
          -20 29 -27 15 1 vhcurveto
          25 13 93 88 22 hvcurveto
          endchar
        </CharString>
        <CharString name="ordfeminine">
          -23 238 424 rmoveto
          -17 -6 4 17 26 51 141 50 19 13 -11 -17 6 hvcurveto
          -2 -1 -1 -2 vvcurveto
          -111 -22 -78 -44 -15 hhcurveto
          189 116 rmoveto
          7 17 5 16 10 vvcurveto
          56 -73 68 -53 -128 -68 -213 -59 -41 66 -57 44 39 42 23 36 35 vhcurveto
          -34 13 24 -25 22 hhcurveto
          15 3 42 35 -1 hvcurveto
          -1 38 12 59 16 vvcurveto
          4 -1 4 -2 5 vhcurveto
          endchar
        </CharString>
        <CharString name="ordmasculine">
          -107 437 578 rmoveto
          45 -38 84 -69 -111 -86 -120 -126 -67 49 -58 49 129 77 134 108 vhcurveto
          -211 -110 rmoveto
          53 46 85 53 13 vhcurveto
          15 -9 6 -21 -22 vvcurveto
          -70 -64 -71 -35 -9 vhcurveto
          -16 16 -5 13 22 vvcurveto
          endchar
        </CharString>
        <CharString name="oslash">
          -107 180 100 rmoveto
          -5 -1 -6 3 -6 5 50 48 70 70 97 103 -23 -86 -93 -144 -84 2 rrcurveto
          140 336 rmoveto
          10 1 10 -4 9 -8 -36 -39 -41 -48 -48 -51 -32 -34 -31 -33 -28 -32 6 74 118 178 63 -4 rrcurveto
          155 -7 rmoveto
          30 33 8 24 13 vvcurveto
          17 -13 13 -19 -18 -20 -12 -22 -25 vhcurveto
          21 -28 -34 13 -39 hhcurveto
          -140 -157 -194 -155 -33 12 -30 18 -26 hvcurveto
          -25 -31 -15 -22 -9 vvcurveto
          -10 4 -9 16 10 16 6 30 38 vhcurveto
          -21 28 32 -13 25 hhcurveto
          154 158 189 152 26 -6 25 -11 24 hvcurveto
          endchar
        </CharString>
        <CharString name="otilde">
          142 callgsubr
          -28 313 rmoveto
          154 callgsubr
          12 callgsubr
          endchar
        </CharString>
        <CharString name="p">
          -21 176 188 rmoveto
          0 vlineto
          192 62 94 14 18 hhcurveto
          25 4 -31 -19 -69 -110 -121 -108 -21 hvcurveto
          227 394 rmoveto
          -52 -60 -31 -49 -51 hvcurveto
          64 -13 -71 33 -23 hhcurveto
          -22 -7 -12 -18 hvcurveto
          5 -217 -120 -385 -67 vvcurveto
          -29 39 -64 29 25 35 141 121 30 vhcurveto
          3 4 0 4 hhcurveto
          170 197 206 109 91 -75 107 -47 hvcurveto
          endchar
        </CharString>
        <CharString name="paragraph">
          33 425 687 rmoveto
          62 13 22 5 18 6 -43 -348 -129 -304 16 15 rrcurveto
          -29 -1 45 -33 23 hhcurveto
          26 62 210 140 39 hvcurveto
          24 84 32 172 9 53 5 52 -45 66 -25 8 rrcurveto
          5 -12 -19 3 -25 hhcurveto
          -59 -101 -11 -22 -70 hvcurveto
          -122 -38 -74 -151 -111 vvcurveto
          -46 55 -62 46 21 29 16 24 28 vhcurveto
          -47 -181 -51 -129 3 -20 rrcurveto
          -29 -2 45 -33 25 hhcurveto
          26 61 210 140 39 hvcurveto
          24 84 33 173 7 53 rrcurveto
          endchar
        </CharString>
        <CharString name="parenleft">
          -81 211 258 rmoveto
          368 365 116 83 vvcurveto
          33 -33 30 -37 -110 -323 -265 -348 -214 185 -161 174 22 11 10 13 vhcurveto
          76 -254 29 230 vvcurveto
          endchar
        </CharString>
        <CharString name="parenright">
          -29 -4 -105 rmoveto
          92 368 281 440 -1 hvcurveto
          135 -106 142 -107 -52 -30 -27 -49 vhcurveto
          -84 155 14 -194 -370 -353 -193 -71 vvcurveto
          -13 12 -11 22 vhcurveto
          endchar
        </CharString>
        <CharString name="partialdiff">
          229 callsubr
          39 615 rmoveto
          266 callsubr
          49 -49 15 -58 4 -62 240 callgsubr
          186 -145 130 -86 hvcurveto
          endchar
        </CharString>
        <CharString name="percent">
          432 17 callgsubr
          endchar
        </CharString>
        <CharString name="period">
          -322 191 callgsubr
          endchar
        </CharString>
        <CharString name="periodcentered">
          -322 33 346 rmoveto
          267 callgsubr
        </CharString>
        <CharString name="perthousand">
          744 17 callgsubr
          289 -290 rmoveto
          -13 -9 28 33 39 42 68 25 7 14 -26 -38 -62 -48 -42 -18 hvcurveto
          55 290 rmoveto
          -110 -86 -159 -74 -84 48 -93 68 113 93 125 106 53 -39 126 -87 hvcurveto
          endchar
        </CharString>
        <CharString name="pi">
          311 855 506 rmoveto
          66 -108 14 -153 -1 vhcurveto
          -133 -1 -359 -14 -53 vvcurveto
          -35 43 -62 31 49 34 5 7 46 vhcurveto
          -6 -52 -6 -63 -16 -52 rrcurveto
          -52 -179 -54 26 -33 vvcurveto
          -36 38 -31 52 70 106 215 193 8 -2 8 -2 8 vhcurveto
          32 2 37 1 46 1 rrcurveto
          -21 -70 -11 -85 -66 vvcurveto
          -132 82 -83 81 32 26 11 24 vhcurveto
          52 -91 -11 139 vvcurveto
          120 25 56 16 45 vhcurveto
          96 3 73 14 -1 41 rrcurveto
          endchar
        </CharString>
        <CharString name="plus">
          41 251 390 rmoveto
          -7 -72 -68 -2 282 callsubr
          23 45 1 3 54 hvcurveto
          -11 -57 -10 -40 -16 vvcurveto
          -39 1 53 -48 29 hhcurveto
          22 1 13 36 36 159 4 15 rcurveline
          124 14 119 27 49 vvcurveto
          23 -49 6 -68 -19 -38 -1 -2 -42 vhcurveto
          10 46 7 36 -1 21 rrcurveto
          24 -1 -77 79 -45 hhcurveto
          -16 -14 -8 -21 hvcurveto
          3 -65 -4 -63 -7 -55 rrcurveto
          endchar
        </CharString>
        <CharString name="plusminus">
          41 258 151 rmoveto
          -6 -72 -59 -2 -17 hhcurveto
          -19 -11 -7 -17 -31 36 -49 42 106 345 16 78 53 -307 -30 -44 -5 hvcurveto
          196 230 rmoveto
          107 15 99 25 42 vvcurveto
          26 -42 9 -73 -14 -25 0 -1 -29 vhcurveto
          5 33 3 26 15 vvcurveto
          22 -76 70 -40 -13 -13 -8 -18 vhcurveto
          1 -54 -3 -48 -4 -44 rrcurveto
          -12 -9 -1 -1 -7 hvcurveto
          -7 -63 -61 -2 -22 hhcurveto
          -20 -7 -6 -16 -31 38 -63 40 20 39 1 3 46 hvcurveto
          -9 -52 -9 -35 -15 vvcurveto
          -34 53 -43 27 18 25 64 110 26 vhcurveto
          endchar
        </CharString>
        <CharString name="product">
          -60 376 820 rmoveto
          -146 -110 0 -65 hvcurveto
          -191 -96 -387 -69 vvcurveto
          -28 51 -64 22 53 108 548 119 -7 vhcurveto
          61 16 70 9 81 -1 rrcurveto
          -10 -169 -83 -362 -68 vvcurveto
          -28 51 -64 22 52 102 510 132 133 -41 29 -180 vhcurveto
          endchar
        </CharString>
        <CharString name="q">
          -40 427 -42 rmoveto
          -18 -32 -9 -13 -28 hvcurveto
          61 164 69 150 32 vvcurveto
          25 -81 47 -16 -18 -9 -5 -12 -3 vhcurveto
          -28 -124 -124 -74 -39 -1 rrcurveto
          -15 -3 1 12 52 131 203 95 hvcurveto
          29 29 -41 23 hhcurveto
          18 8 13 15 51 -69 84 -67 -161 -151 -272 -99 -58 78 -87 59 23 35 12 25 37 hvcurveto
          -41 -103 -38 -98 -19 vvcurveto
          -35 32 -50 27 30 52 54 48 75 vhcurveto
          49 31 25 17 1 19 rrcurveto
          18 1 -21 27 -25 hhcurveto
          endchar
        </CharString>
        <CharString name="question">
          67 573 645 rmoveto
          99 -70 58 -97 -85 -91 -72 -80 -26 54 -53 17 11 14 9 3 8 vhcurveto
          12 6 3 13 18 vvcurveto
          23 21 20 31 21 20 -12 -23 vhcurveto
          -90 -176 -66 -131 vvcurveto
          -52 10 -43 26 34 17 64 43 22 vhcurveto
          44 91 154 72 129 vvcurveto
          -396 -542 rmoveto
          -37 64 -65 40 22 27 28 17 32 -51 103 -32 -33 -37 -46 -32 vhcurveto
          endchar
        </CharString>
        <CharString name="questiondown">
          -163 -6 51 rmoveto
          -99 70 -58 97 85 91 72 80 26 -54 53 -17 -11 -14 -9 -3 -8 vhcurveto
          -12 -6 -3 -13 -18 vvcurveto
          -23 -21 -20 -31 -21 -20 12 23 vhcurveto
          90 176 66 131 vvcurveto
          52 -10 43 -26 -34 -17 -64 -43 -22 vhcurveto
          -44 -91 -154 -72 -129 vvcurveto
          396 542 rmoveto
          37 -64 65 -40 -22 -27 -28 -17 -32 51 -103 32 33 37 46 32 vhcurveto
          endchar
        </CharString>
        <CharString name="quotedbl">
          -75 232 823 rmoveto
          13 -58 46 -24 -8 -7 329 callgsubr
          33 -25 15 46 21 255 40 vhcurveto
          210 hmoveto
          13 -58 46 -24 -8 -8 329 callgsubr
          34 -25 15 45 22 255 40 vhcurveto
          endchar
        </CharString>
        <CharString name="quotedblbase">
          41 32 -225 86 callsubr
        </CharString>
        <CharString name="quotedblleft">
          15 534 882 rmoveto
          -79 -88 -138 -75 -72 50 -69 74 45 44 37 23 hvcurveto
          38 -89 19 43 63 82 59 38 vvcurveto
          22 -16 12 -23 vhcurveto
          -249 hmoveto
          -79 -88 -138 -75 -72 50 253 callsubr
        </CharString>
        <CharString name="quotedblright">
          14 211 callgsubr
          249 hmoveto
          79 88 137 76 71 -50 70 -75 -44 -44 -37 -24 hvcurveto
          -37 88 -19 -43 -63 -81 -59 -38 vvcurveto
          -23 16 -11 23 vhcurveto
          endchar
        </CharString>
        <CharString name="quoteleft">
          -234 288 882 rmoveto
          -79 -87 -138 -75 -72 49 253 callsubr
        </CharString>
        <CharString name="quoteright">
          -234 211 callgsubr
          endchar
        </CharString>
        <CharString name="quotesinglbase">
          121 32 -225 86 callsubr
        </CharString>
        <CharString name="quotesingle">
          -339 258 823 rmoveto
          13 -70 46 -23 -8 -8 -4 -11 vhcurveto
          -129 -30 -133 -31 vvcurveto
          -21 34 -25 14 vhcurveto
          41 -18 50 279 34 vvcurveto
          endchar
        </CharString>
        <CharString name="r">
          -197 355 530 63 callsubr
        </CharString>
        <CharString name="racute">
          -233 355 530 67 callgsubr
          -120 144 55 callgsubr
        </CharString>
        <CharString name="radical">
          65 324 -6 rmoveto
          -19 132 3 149 -20 20 rrcurveto
          38 -22 -40 28 -44 hhcurveto
          -56 -101 -104 -74 -16 9 -10 15 36 46 66 10 33 hvcurveto
          20 -104 40 -174 25 -59 rrcurveto
          -32 13 58 -33 18 hhcurveto
          56 54 198 187 73 hvcurveto
          85 216 85 161 31 vvcurveto
          28 -47 25 -35 -58 -116 -320 -363 -111 vhcurveto
          endchar
        </CharString>
        <CharString name="rcaron">
          -233 222 546 -16 callgsubr
          133 -16 63 callsubr
        </CharString>
        <CharString name="registered">
          208 387 384 rmoveto
          4 16 1 12 12 vvcurveto
          7 -3 8 -5 8 vhcurveto
          3 9 11 3 11 hhcurveto
          24 7 0 -9 -23 -33 -19 -26 -18 hvcurveto
          -19 -67 rmoveto
          -44 24 56 -56 44 hhcurveto
          18 8 9 10 14 -33 22 -26 23 hvcurveto
          -20 19 -6 13 12 12 83 37 60 vvcurveto
          41 -34 31 -86 -42 -58 -25 -16 -8 15 -24 15 -10 vhcurveto
          -7 -89 -34 -61 -26 vvcurveto
          -14 27 -30 14 12 10 34 49 15 vhcurveto
          -25 -166 rmoveto
          293 callsubr
          -176 -104 -100 -170 hvcurveto
          113 526 rmoveto
          292 callgsubr
          293 callgsubr
          hvcurveto
          endchar
        </CharString>
        <CharString name="ring">
          61 774 159 callgsubr
          endchar
        </CharString>
        <CharString name="s">
          -92 456 401 3 callsubr
          endchar
        </CharString>
        <CharString name="sacute">
          -92 395 762 -65 callsubr
          61 -361 3 callsubr
          endchar
        </CharString>
        <CharString name="scaron">
          -92 419 728 -28 callgsubr
          37 -327 3 callsubr
          endchar
        </CharString>
        <CharString name="section">
          -30 271 200 rmoveto
          -40 33 -35 31 45 vvcurveto
          50 54 35 52 26 vhcurveto
          36 -36 30 -36 -35 vvcurveto
          -60 -46 -41 -51 -12 vhcurveto
          115 494 rmoveto
          37 3 -113 57 hhcurveto
          29 19 32 59 86 -66 57 -63 -78 -156 -104 -106 -35 21 -33 27 -32 hvcurveto
          -76 -45 -81 -78 -72 -140 186 -50 -83 vvcurveto
          -31 -25 -24 -43 -29 -26 19 28 -21 vhcurveto
          27 -21 -16 31 -20 hhcurveto
          -23 -27 -62 -35 -38 76 -86 106 142 63 94 71 41 -15 32 -21 27 hvcurveto
          90 29 69 66 70 vvcurveto
          173 -204 90 1 55 vhcurveto
          38 40 42 45 vhcurveto
          endchar
        </CharString>
        <CharString name="semicolon">
          -253 120 439 rmoveto
          -44 66 -109 37 28 18 27 30 45 -40 149 -58 -23 -28 -60 -38 vhcurveto
          -87 -657 86 callsubr
        </CharString>
        <CharString name="seven">
          -87 436 726 rmoveto
          10 -11 -55 5 -70 hhcurveto
          -109 -106 -10 -28 -27 54 -82 36 hvcurveto
          32 94 14 33 hhcurveto
          20 15 -1 -9 -52 -276 -361 -1 -99 hvcurveto
          -40 -1 39 -46 29 hhcurveto
          41 74 171 179 103 hvcurveto
          55 95 73 113 -5 32 -1 50 -35 61 -28 25 rrcurveto
          endchar
        </CharString>
        <CharString name="six">
          -17 188 146 rmoveto
          -22 -12 16 27 46 29 60 41 62 hvcurveto
          80 -14 47 -32 -33 vvcurveto
          -60 -77 -72 -86 vhcurveto
          99 298 rmoveto
          88 114 99 104 27 vvcurveto
          28 -55 25 -41 -75 -290 -381 -183 -88 62 -73 96 163 178 154 120 74 -110 65 -115 14 vhcurveto
          endchar
        </CharString>
        <CharString name="slash">
          -277 73 -80 rmoveto
          23 83 196 177 73 hvcurveto
          113 275 56 107 54 vvcurveto
          45 -71 83 -25 -21 -1 -13 -17 -6 vhcurveto
          -74 -212 -228 -529 -72 vvcurveto
          -31 48 -63 30 vhcurveto
          endchar
        </CharString>
        <CharString name="space">
          -174 endchar
        </CharString>
        <CharString name="sterling">
          173 149 116 rmoveto
          -9 -17 31 15 16 6 15 23 13 14 -12 -17 17 hvcurveto
          -33 -20 -17 -15 -10 hhcurveto
          252 206 rmoveto
          103 10 110 22 1 42 rrcurveto
          29 -45 5 -53 -33 -28 0 1 -25 vhcurveto
          129 37 17 26 27 hhcurveto
          24 7 -21 -19 hvcurveto
          -21 -4 -8 -17 vvcurveto
          -16 2 -10 16 28 61 53 39 77 -55 93 -71 -127 -61 -106 -188 -51 vhcurveto
          4 -26 -23 3 -37 hhcurveto
          -18 -33 -52 -41 -32 19 -8 77 -3 hvcurveto
          10 hlineto
          -4 -18 -4 -16 -5 -15 rrcurveto
          22 -29 -33 16 -42 hhcurveto
          -79 -48 -70 -49 -86 95 -86 38 57 48 25 34 38 hvcurveto
          -40 43 53 -34 67 hhcurveto
          73 153 74 70 40 -24 36 -37 hvcurveto
          -41 -58 -99 -80 hhcurveto
          -32 -27 15 22 -24 hvcurveto
          13 24 9 23 5 21 rrcurveto
          endchar
        </CharString>
        <CharString name="summation">
          274 499 356 rmoveto
          0 vlineto
          5 -1 4 -1 4 vhcurveto
          17 -7 -19 11 -39 -11 -111 -16 -46 hhcurveto
          -33 -16 1 16 33 146 137 114 hvcurveto
          22 -7 -10 17 hhcurveto
          13 20 39 29 37 -17 37 -54 hvcurveto
          -127 -1 -273 -184 -130 vvcurveto
          -52 44 -38 80 -10 vhcurveto
          -81 -60 -69 -76 -70 vvcurveto
          -32 73 -48 80 65 134 5 26 72 vhcurveto
          65 22 22 23 24 vvcurveto
          23 -20 22 -48 vhcurveto
          -56 -56 -32 -125 hhcurveto
          -21 -20 0 8 20 37 33 63 49 hvcurveto
          61 48 121 51 9 32 rrcurveto
          0 0 1 1 vvcurveto
          endchar
        </CharString>
        <CharString name="t">
          -108 284 409 rmoveto
          185 callsubr
          8 34 5 30 20 vvcurveto
          47 -78 48 -29 -23 -7 -12 -18 vhcurveto
          45 callsubr
          endchar
        </CharString>
        <CharString name="tcaron">
          -37 315 546 rmoveto
          79 88 87 69 37 -43 50 -55 -28 -48 -39 -25 -26 26 -25 38 5 hvcurveto
          -21 -34 -39 -19 -20 -23 rrcurveto
          45 -7 -72 43 -27 hhcurveto
          -23 -7 -12 -18 hvcurveto
          45 callsubr
          185 callsubr
          3 16 3 15 3 13 rrcurveto
          -7 6 11 -3 9 hhcurveto
          endchar
        </CharString>
        <CharString name="thorn">
          -33 173 185 rmoveto
          6 23 10 40 11 46 11 46 rlinecurve
          23 30 57 23 30 hhcurveto
          36 35 -18 -34 -80 -139 -66 -64 -3 hvcurveto
          150 327 rmoveto
          -30 -37 -8 -12 -35 hvcurveto
          18 88 13 74 28 vvcurveto
          54 -74 71 -28 -22 -7 -12 -18 vhcurveto
          -285 -171 -535 -65 vvcurveto
          -28 55 -64 29 17 43 160 130 33 vhcurveto
          16 -8 19 -3 19 1 rrcurveto
          118 4 196 114 130 vvcurveto
          81 -118 103 -54 vhcurveto
          endchar
        </CharString>
        <CharString name="three">
          -12 153 357 rmoveto
          -2 vlineto
          -12 6 -9 10 -6 vhcurveto
          44 -33 120 18 -55 -104 -360 -46 -49 vvcurveto
          -25 27 -22 81 178 252 117 129 64 -51 43 -89 20 vhcurveto
          82 56 73 83 67 vvcurveto
          74 -72 80 -91 -89 -172 -50 -60 -22 68 -66 23 vhcurveto
          40 71 65 61 hhcurveto
          5 4 -4 -8 -93 -165 -73 -45 -55 hvcurveto
          -7 -5 -4 -7 -8 vvcurveto
          endchar
        </CharString>
        <CharString name="threequarters">
          403 200 559 rmoveto
          -1 vlineto
          -2 0 -1 1 -2 vhcurveto
          10 -48 107 33 -41 -46 -226 -50 -29 vvcurveto
          -16 15 -13 51 113 157 73 81 41 -32 30 -57 14 vhcurveto
          52 40 47 55 30 vvcurveto
          47 -44 50 -59 -55 -107 -39 -37 -13 41 -47 15 vhcurveto
          24 45 47 39 hhcurveto
          -1 4 2 -5 -41 -121 -59 -17 -44 hvcurveto
          -1 -2 -1 -3 -2 vvcurveto
          532 234 rmoveto
          -20 5 -4 -12 -10 -16 -127 -185 -346 -462 -17 -69 -6 -30 29 -29 28 -5 23 -7 126 172 116 154 175 239 80 90 13 52 12 44 -48 53 -24 6 rrcurveto
          84 -476 rmoveto
          -11 -10 -7 -13 -30 -2 -28 -4 -27 hvcurveto
          -10 -32 -43 -27 -40 hhcurveto
          -13 -3 1 11 hvcurveto
          31 125 144 27 vvcurveto
          23 -37 37 -22 -38 -133 -187 -81 -59 51 -37 67 310 callsubr
          12 -31 25 49 72 301 41 23 -52 46 -23 vhcurveto
          endchar
        </CharString>
        <CharString name="threesuperior">
          -259 127 520 rmoveto
          -1 vlineto
          -1 0 -1 -1 vvcurveto
          8 -39 85 28 -34 -37 -179 -40 -22 vvcurveto
          -11 13 -10 39 89 123 56 64 32 -25 23 -46 12 vhcurveto
          42 31 37 43 24 vvcurveto
          37 -34 38 -46 -44 -84 -30 -28 -11 32 -36 13 vhcurveto
          18 36 37 30 hhcurveto
          0 3 2 -4 vvcurveto
          -34 -98 -47 -11 -35 vhcurveto
          -1 -1 0 -2 -1 vvcurveto
          endchar
        </CharString>
        <CharString name="tilde">
          -33 749 rmoveto
          154 callgsubr
          12 callgsubr
          endchar
        </CharString>
        <CharString name="trademark">
          170 332 638 rmoveto
          23 -47 30 -101 -66 -76 -2 -18 -16 27 -32 14 21 10 2 1 29 vhcurveto
          -9 -80 -33 -85 -25 vvcurveto
          -14 32 -28 14 8 6 25 45 12 vhcurveto
          7 37 30 89 5 36 rrcurveto
          41 25 -1 23 hhcurveto
          19 9 6 7 hvcurveto
          317 47 rmoveto
          -27 -74 -94 -46 -48 hvcurveto
          -21 36 -19 58 1 15 rrcurveto
          12 -56 30 -10 -10 -2 -6 -8 vhcurveto
          -47 -60 -166 -29 vvcurveto
          -13 26 -34 12 11 13 42 51 17 vhcurveto
          6 16 6 22 5 13 15 -25 8 -16 10 -8 rrcurveto
          -9 10 19 -6 9 hhcurveto
          34 39 60 29 34 hvcurveto
          -20 -38 -12 -54 -28 vvcurveto
          -23 16 -26 14 19 5 35 82 26 vhcurveto
          17 57 22 53 32 vvcurveto
          15 -19 18 -16 vhcurveto
          endchar
        </CharString>
        <CharString name="two">
          24 448 182 rmoveto
          -51 -113 -14 -19 -103 hvcurveto
          180 102 151 156 152 vvcurveto
          106 -69 80 -110 -128 -83 -91 -69 -29 71 -49 34 vhcurveto
          17 21 86 67 hhcurveto
          23 15 -13 -30 -136 -363 -221 1 -52 hvcurveto
          -47 89 -78 46 95 307 70 56 29 -33 11 -64 vhcurveto
          endchar
        </CharString>
        <CharString name="twosuperior">
          -224 189 587 rmoveto
          8 11 43 33 hhcurveto
          9 7 -7 -12 hvcurveto
          -68 -181 -107 -29 vvcurveto
          -25 46 -40 25 48 156 33 31 16 -19 8 -33 -30 -52 -7 -10 -39 vhcurveto
          57 26 99 98 78 vvcurveto
          54 -26 43 -66 -66 -43 -48 -36 -11 42 -30 14 vhcurveto
          endchar
        </CharString>
        <CharString name="u">
          -73 494 407 -58 callsubr
          endchar
        </CharString>
        <CharString name="uacute">
          -80 491 407 -58 callsubr
          -63 620 55 callgsubr
        </CharString>
        <CharString name="ucircumflex">
          -80 194 570 37 callsubr
          297 -163 -58 callsubr
          endchar
        </CharString>
        <CharString name="udieresis">
          -80 428 563 rmoveto
          227 callgsubr
          -21 callgsubr
          hvcurveto
          -178 hmoveto
          227 callgsubr
          -21 callgsubr
          hvcurveto
          241 -156 -58 callsubr
          endchar
        </CharString>
        <CharString name="ugrave">
          -80 284 596 rmoveto
          1 callgsubr
          -34 -34 1 -42 26 -17 rrcurveto
          313 -256 -58 callsubr
          endchar
        </CharString>
        <CharString name="uhungarumlaut">
          -80 333 669 rmoveto
          19 24 2 58 -38 28 -27 20 -37 -5 -16 -35 -42 -93 rcurveline
          -18 -42 -8 -45 27 -22 23 -19 39 39 22 29 rrcurveto
          212 -199 -58 callsubr
          -3 614 rmoveto
          -24 -40 -12 -44 25 -25 20 -21 42 36 26 25 64 53 rcurveline
          23 20 7 59 -34 32 -25 23 -38 -1 -20 -32 rrcurveto
          endchar
        </CharString>
        <CharString name="umacron">
          -80 187 572 rmoveto
          202 callsubr
          -29 callsubr
          304 -165 -58 callsubr
          endchar
        </CharString>
        <CharString name="underscore">
          60 590 29 rmoveto
          15 -15 11 -24 7 vhcurveto
          17 -52 -104 1 -84 hhcurveto
          -151 -136 -9 -33 -37 34 -48 25 1 hvcurveto
          25 -1 65 8 66 6 rrcurveto
          194 13 157 4 45 vvcurveto
          endchar
        </CharString>
        <CharString name="uni00A0">
          endchar
        </CharString>
        <CharString name="uni00AD">
          41 209 callgsubr
        </CharString>
        <CharString name="uni00B5">
          -120 458 417 rmoveto
          38 -2 -55 73 -34 hhcurveto
          -16 -9 -7 -18 -5 hvcurveto
          -149 -42 -151 -215 -40 hhcurveto
          -2 1 2 4 hvcurveto
          97 70 168 68 vvcurveto
          19 -53 31 -26 -48 -32 -203 -167 -52 vhcurveto
          -60 -190 -64 -97 -22 vvcurveto
          -22 44 -27 32 29 75 178 63 27 vhcurveto
          -15 7 20 -14 22 hhcurveto
          49 64 75 75 50 hvcurveto
          -8 -34 -4 -32 -26 vvcurveto
          -44 1 22 -14 24 hhcurveto
          23 14 11 31 11 hvcurveto
          96 300 20 55 3 8 rrcurveto
          -1 0 -1 1 hvcurveto
          endchar
        </CharString>
        <CharString name="uni0122">
          38 215 -13 -2 callsubr
          198 295 19 callsubr
          endchar
        </CharString>
        <CharString name="uni0123">
          -88 330 552 rmoveto
          28 48 39 25 26 -26 25 -37 -5 hvcurveto
          29 47 62 18 37 vvcurveto
          23 -19 8 -16 -78 -89 -87 -69 -37 43 -50 55 vhcurveto
          -198 -401 -8 callgsubr
          endchar
        </CharString>
        <CharString name="uni0136">
          43 242 -13 -2 callsubr
          -124 26 82 callgsubr
        </CharString>
        <CharString name="uni0137">
          -64 268 -7 rmoveto
          76 callsubr
          hvcurveto
          -28 -47 -63 -18 -37 vvcurveto
          -23 19 -8 16 79 88 87 69 37 -43 50 -55 vhcurveto
          254 444 100 callgsubr
        </CharString>
        <CharString name="uni013B">
          -13 198 -123 65 callgsubr
          117 782 15 callgsubr
        </CharString>
        <CharString name="uni013C">
          -325 228 374 20 callsubr
          -250 -659 143 callgsubr
        </CharString>
        <CharString name="uni0145">
          72 226 -123 65 callgsubr
          398 794 -43 callsubr
          endchar
        </CharString>
        <CharString name="uni0146">
          -7 224 -7 -2 callsubr
          168 535 -52 callgsubr
        </CharString>
        <CharString name="uni0156">
          16 249 -13 -2 callsubr
          -1 397 -12 callgsubr
        </CharString>
        <CharString name="uni0157">
          -233 67 -7 -2 callsubr
          288 537 63 callsubr
        </CharString>
        <CharString name="uni015E">
          -20 397 590 rmoveto
          68 26 87 0 32 vvcurveto
          42 -34 58 -54 -87 -131 -59 -71 -72 vhcurveto
          -23 -20 -17 -59 -42 -70 226 -152 -53 vvcurveto
          -31 -89 -61 -57 vhcurveto
          -93 -29 96 -59 hhcurveto
          -22 -9 -24 -30 -54 56 -72 98 -25 hvcurveto
          -18 -41 -20 -35 -3 -22 7 callsubr
          10 17 9 17 6 16 rrcurveto
          137 8 115 89 109 145 -223 113 40 vvcurveto
          22 46 21 75 29 vhcurveto
          endchar
        </CharString>
</ttFont>
